<svg width="121" height="41" viewBox="0 0 121 41" fill="none" xmlns="http://www.w3.org/2000/svg">
<rect x="1.14258" y="0.539551" width="119" height="39" rx="5.5" fill="black"/>
<rect x="1.14258" y="0.539551" width="119" height="39" rx="5.5" stroke="#A6A6A6"/>
<path d="M25.3471 20.8025C25.3592 19.8826 25.6095 18.9807 26.0746 18.1806C26.5398 17.3805 27.2046 16.7082 28.0074 16.2264C27.4974 15.5154 26.8247 14.9302 26.0425 14.5174C25.2604 14.1046 24.3905 13.8755 23.5018 13.8484C21.6061 13.6541 19.7684 14.9558 18.8023 14.9558C17.8176 14.9558 16.3303 13.8677 14.7287 13.8998C13.6928 13.9325 12.6832 14.2266 11.7983 14.7535C10.9134 15.2804 10.1833 16.0221 9.67931 16.9063C7.4961 20.5967 9.12458 26.0203 11.216 29.0034C12.2623 30.4641 13.4852 32.0958 15.0854 32.0379C16.6512 31.9745 17.236 31.0631 19.1261 31.0631C20.9987 31.0631 21.5473 32.0379 23.18 32.0011C24.8602 31.9745 25.9188 30.5339 26.9285 29.0594C27.6803 28.0186 28.2588 26.8682 28.6426 25.651C27.6664 25.2479 26.8334 24.5732 26.2474 23.711C25.6613 22.8488 25.3482 21.8373 25.3471 20.8025Z" fill="white"/>
<path d="M22.2636 11.8867C23.1797 10.813 23.6311 9.43291 23.5218 8.03955C22.1222 8.18307 20.8293 8.83615 19.9008 9.86866C19.4468 10.3731 19.0991 10.9599 18.8776 11.5956C18.6561 12.2312 18.565 12.9033 18.6097 13.5734C19.3097 13.5804 20.0023 13.4322 20.6352 13.1401C21.2682 12.8479 21.8249 12.4194 22.2636 11.8867Z" fill="white"/>
<path d="M37.4336 8.54102H39.5034C41.292 8.54102 42.1621 9.60449 42.1621 11.5337C42.1621 13.4629 41.2832 14.5396 39.5034 14.5396H37.4336V8.54102ZM38.4312 9.38037V13.7002H39.3936C40.5801 13.7002 41.1382 12.9839 41.1382 11.5469C41.1382 10.1011 40.5757 9.38037 39.3936 9.38037H38.4312ZM45.3174 9.81543C46.5303 9.81543 47.3784 10.6021 47.3784 11.9072V12.5093C47.3784 13.8584 46.5303 14.6187 45.3174 14.6187C44.0869 14.6187 43.2476 13.8672 43.2476 12.5137V11.9116C43.2476 10.6416 44.1001 9.81543 45.3174 9.81543ZM45.3218 10.6021C44.6274 10.6021 44.2319 11.1821 44.2319 11.96V12.4785C44.2319 13.2563 44.6011 13.832 45.3218 13.832C46.0337 13.832 46.3984 13.2607 46.3984 12.4785V11.96C46.3984 11.1821 46.0161 10.6021 45.3218 10.6021ZM54.5415 9.89453L53.3198 14.5396H52.3267L51.3555 11.1118H51.3291L50.3755 14.5396H49.3779L48.1035 9.89453H49.1538L49.9009 13.4365H49.9448L50.8809 9.89453H51.7993L52.7617 13.4365H52.8057L53.5659 9.89453H54.5415ZM55.5083 14.5396V9.89453H56.4663V10.7295H56.5146C56.6333 10.3647 56.9717 9.82422 57.9121 9.82422C58.8481 9.82422 59.4766 10.3428 59.4766 11.4019V14.5396H58.501V11.6875C58.501 10.98 58.1318 10.6548 57.5825 10.6548C56.8618 10.6548 56.4839 11.2085 56.4839 11.96V14.5396H55.5083ZM60.9531 14.5396V8.22461H61.9287V14.5396H60.9531ZM65.2773 9.81543C66.4902 9.81543 67.3384 10.6021 67.3384 11.9072V12.5093C67.3384 13.8584 66.4902 14.6187 65.2773 14.6187C64.0469 14.6187 63.2075 13.8672 63.2075 12.5137V11.9116C63.2075 10.6416 64.0601 9.81543 65.2773 9.81543ZM65.2817 10.6021C64.5874 10.6021 64.1919 11.1821 64.1919 11.96V12.4785C64.1919 13.2563 64.561 13.832 65.2817 13.832C65.9937 13.832 66.3584 13.2607 66.3584 12.4785V11.96C66.3584 11.1821 65.9761 10.6021 65.2817 10.6021ZM69.8652 14.6099C68.9644 14.6099 68.3447 14.0562 68.3447 13.1904C68.3447 12.3687 68.916 11.8149 69.9883 11.8149H71.1616V11.3799C71.1616 10.8481 70.8232 10.5977 70.2871 10.5977C69.7598 10.5977 69.5225 10.8174 69.4478 11.125H68.5205C68.5776 10.3472 69.1621 9.82422 70.3179 9.82422C71.311 9.82422 72.1328 10.2373 72.1328 11.3931V14.5396H71.2056V13.9375H71.1616C70.9551 14.2935 70.5508 14.6099 69.8652 14.6099ZM70.1685 13.854C70.7222 13.854 71.1616 13.4761 71.1616 12.9707V12.4697H70.1421C69.5752 12.4697 69.3247 12.7554 69.3247 13.1421C69.3247 13.6255 69.729 13.854 70.1685 13.854ZM75.1387 9.83301C75.7935 9.83301 76.2944 10.123 76.4746 10.5933H76.5229V8.22461H77.4985V14.5396H76.5493V13.7969H76.501C76.3604 14.2671 75.8022 14.6011 75.1255 14.6011C74.0576 14.6011 73.3633 13.8408 73.3633 12.6147V11.8193C73.3633 10.5933 74.0708 9.83301 75.1387 9.83301ZM75.4111 10.6328C74.7607 10.6328 74.3564 11.1162 74.3564 11.96V12.4697C74.3564 13.3179 74.7651 13.8013 75.4331 13.8013C76.0923 13.8013 76.5229 13.3223 76.5229 12.5312V11.8281C76.5229 11.1118 76.0527 10.6328 75.4111 10.6328ZM82.8555 9.81543C84.0684 9.81543 84.9165 10.6021 84.9165 11.9072V12.5093C84.9165 13.8584 84.0684 14.6187 82.8555 14.6187C81.625 14.6187 80.7856 13.8672 80.7856 12.5137V11.9116C80.7856 10.6416 81.6382 9.81543 82.8555 9.81543ZM82.8599 10.6021C82.1655 10.6021 81.77 11.1821 81.77 11.96V12.4785C81.77 13.2563 82.1392 13.832 82.8599 13.832C83.5718 13.832 83.9365 13.2607 83.9365 12.4785V11.96C83.9365 11.1821 83.5542 10.6021 82.8599 10.6021ZM86.1733 14.5396V9.89453H87.1313V10.7295H87.1797C87.2983 10.3647 87.6367 9.82422 88.5771 9.82422C89.5132 9.82422 90.1416 10.3428 90.1416 11.4019V14.5396H89.166V11.6875C89.166 10.98 88.7969 10.6548 88.2476 10.6548C87.5269 10.6548 87.1489 11.2085 87.1489 11.96V14.5396H86.1733ZM93.9165 9.92529V8.76514H94.8701V9.92529H95.9116V10.6899H94.8701V13.1553C94.8701 13.6606 95.0591 13.8013 95.582 13.8013C95.7139 13.8013 95.8896 13.7925 95.9644 13.7837V14.5308C95.8853 14.5439 95.5601 14.5703 95.3403 14.5703C94.2109 14.5703 93.9033 14.166 93.9033 13.2344V10.6899H93.1958V9.92529H93.9165ZM97.1421 14.5396V8.22461H98.1133V10.7295H98.1616C98.2627 10.3999 98.6406 9.82422 99.5723 9.82422C100.478 9.82422 101.124 10.3472 101.124 11.4062V14.5396H100.152V11.6919C100.152 10.9844 99.7612 10.6548 99.2075 10.6548C98.5088 10.6548 98.1133 11.2041 98.1133 11.96V14.5396H97.1421ZM104.397 14.6187C103.132 14.6187 102.345 13.8408 102.345 12.5312V11.9028C102.345 10.5845 103.207 9.81543 104.34 9.81543C105.505 9.81543 106.327 10.624 106.327 11.9028V12.4478H103.312V12.6763C103.312 13.3442 103.708 13.8364 104.393 13.8364C104.903 13.8364 105.254 13.5947 105.32 13.3047H106.274C106.217 13.8408 105.65 14.6187 104.397 14.6187ZM103.312 11.8105H105.373V11.749C105.373 11.0503 104.964 10.5845 104.345 10.5845C103.725 10.5845 103.312 11.0503 103.312 11.749V11.8105Z" fill="white"/>
<path d="M38.8486 30.5396H36.8184L40.9492 18.5425H43.1816L47.3037 30.5396H45.1943L44.1309 27.2173H39.9209L38.8486 30.5396ZM42.0742 20.6167H41.9951L40.3691 25.688H43.6826L42.0742 20.6167ZM52.907 30.6714C51.7029 30.6714 50.7888 30.1001 50.2966 29.2476H50.2263V33.6245H48.2751V21.2495H50.1736V22.6118H50.2439C50.7536 21.7241 51.7029 21.1265 52.9509 21.1265C55.0339 21.1265 56.5193 22.6997 56.5193 25.4771V26.3032C56.5193 29.063 55.0515 30.6714 52.907 30.6714ZM52.4587 29.063C53.698 29.063 54.5417 28.0698 54.5417 26.1978V25.5474C54.5417 23.7456 53.7507 22.7173 52.4236 22.7173C51.0612 22.7173 50.2087 23.8247 50.2087 25.5386V26.1978C50.2087 27.9556 51.07 29.063 52.4587 29.063ZM62.8256 30.6714C61.6215 30.6714 60.7075 30.1001 60.2153 29.2476H60.145V33.6245H58.1938V21.2495H60.0922V22.6118H60.1625C60.6723 21.7241 61.6215 21.1265 62.8696 21.1265C64.9526 21.1265 66.4379 22.6997 66.4379 25.4771V26.3032C66.4379 29.063 64.9702 30.6714 62.8256 30.6714ZM62.3774 29.063C63.6166 29.063 64.4604 28.0698 64.4604 26.1978V25.5474C64.4604 23.7456 63.6694 22.7173 62.3422 22.7173C60.9799 22.7173 60.1274 23.8247 60.1274 25.5386V26.1978C60.1274 27.9556 60.9887 29.063 62.3774 29.063ZM70.4813 27.2085H72.4325C72.5204 28.2456 73.4344 29.1333 75.1307 29.1333C76.6864 29.1333 77.6093 28.4038 77.6093 27.27C77.6093 26.356 76.994 25.8638 75.7108 25.5562L73.7421 25.064C72.1952 24.7036 70.8065 23.7808 70.8065 21.8296C70.8065 19.5356 72.8104 18.2788 75.1395 18.2788C77.4686 18.2788 79.411 19.5356 79.455 21.7769H77.5389C77.451 20.7573 76.6688 19.9136 75.1132 19.9136C73.7421 19.9136 72.8104 20.564 72.8104 21.6802C72.8104 22.4624 73.3553 23.0249 74.4716 23.2798L76.4315 23.7632C78.2333 24.2026 79.6044 25.0552 79.6044 27.0942C79.6044 29.4497 77.6971 30.7769 74.9813 30.7769C71.6415 30.7769 70.5253 28.8257 70.4813 27.2085ZM81.982 21.2495V18.9907H83.898V21.2495H85.7086V22.814H83.898V27.771C83.898 28.7817 84.276 29.063 85.3219 29.063C85.4889 29.063 85.6471 29.063 85.7613 29.0454V30.5396C85.6031 30.5659 85.234 30.6011 84.8385 30.6011C82.5797 30.6011 81.9557 29.7925 81.9557 27.9292V22.814H80.6725V21.2495H81.982ZM90.9778 21.0913C93.6497 21.0913 95.0999 22.9722 95.0999 25.5034V26.2505C95.0999 28.8696 93.6585 30.6978 90.9778 30.6978C88.2972 30.6978 86.8382 28.8696 86.8382 26.2505V25.5034C86.8382 22.981 88.306 21.0913 90.9778 21.0913ZM90.9778 22.6558C89.5277 22.6558 88.8069 23.8423 88.8069 25.5298V26.2417C88.8069 27.9028 89.5189 29.1245 90.9778 29.1245C92.4368 29.1245 93.14 27.9116 93.14 26.2417V25.5298C93.14 23.8335 92.428 22.6558 90.9778 22.6558ZM96.7481 30.5396V21.2495H98.6993V22.4712H98.7696C99.0069 21.8911 99.7012 21.1177 100.993 21.1177C101.248 21.1177 101.468 21.1353 101.652 21.1704V22.8931C101.485 22.8491 101.143 22.8228 100.817 22.8228C99.253 22.8228 98.7256 23.7896 98.7256 25.0376V30.5396H96.7481ZM106.385 30.6978C103.898 30.6978 102.316 29.0542 102.316 26.3032V25.3628C102.316 22.77 103.863 21.0913 106.306 21.0913C108.785 21.0913 110.279 22.8315 110.279 25.4507V26.3384H104.241V26.5581C104.241 28.1226 105.085 29.1597 106.412 29.1597C107.405 29.1597 108.082 28.6675 108.319 27.8677H110.174C109.892 29.3706 108.679 30.6978 106.385 30.6978ZM104.241 24.9761H108.372V24.9585C108.372 23.6401 107.554 22.603 106.315 22.603C105.058 22.603 104.241 23.6401 104.241 24.9585V24.9761Z" fill="white"/>
</svg>
