<svg width="20" height="32" viewBox="0 0 20 32" fill="none" xmlns="http://www.w3.org/2000/svg">
<path d="M12.643 3.16956L11.1992 0L9.75547 3.16956L6.51172 3.63925L8.86372 5.91612L8.31259 9.12963L11.1992 7.61263L14.0859 9.12963L13.5338 5.91525L15.8867 3.63925L12.643 3.16956ZM19.6367 30.125H17.7617C17.7617 29.0894 16.9223 28.25 15.8867 28.25H6.51172C5.47616 28.25 4.63672 29.0894 4.63672 30.125H2.76172V32H19.6367V30.125Z" fill="#486FEB"/>
<path d="M6.51147 26.375H15.8865C15.964 26.375 16.0365 26.3932 16.1128 26.3979L19.7802 9.76681L15.7935 7.99506L16.5768 12.5564L11.199 9.73112L5.82209 12.5564L6.84841 6.57438L2.46397 2.33087L0.488281 1.19287L6.27591 26.3988C6.35528 26.3938 6.43078 26.375 6.51147 26.375ZM8.38647 15H14.0115V16.875H8.38647V15ZM8.38647 18.75H14.0115V20.625H8.38647V18.75Z" fill="#486FEB"/>
</svg>
