<svg width="55" height="55" viewBox="0 0 55 55" fill="none" xmlns="http://www.w3.org/2000/svg">
<g clip-path="url(#clip0_90_960)">
<mask id="mask0_90_960" style="mask-type:luminance" maskUnits="userSpaceOnUse" x="0" y="0" width="55" height="55">
<path d="M54.7265 0.189697H0.740234V54.1759H54.7265V0.189697Z" fill="white"/>
</mask>
<g mask="url(#mask0_90_960)">
<path d="M50.3509 0.189697H5.11586C2.70314 0.189697 0.740234 2.1526 0.740234 4.56533V7.01505C0.740234 10.882 2.07059 14.6745 4.48616 17.6938C6.49473 20.2046 9.35357 22.1715 12.5363 23.2325L14.3991 23.8533C16.373 27.1449 19.5424 29.6622 23.3578 30.7827V33.6143C23.3578 34.7479 22.4354 35.6701 21.3018 35.6701C18.8891 35.6701 16.9262 37.6331 16.9262 40.0458V42.1016H14.8702C14.2297 42.1016 13.7104 42.6208 13.7104 43.2614V51.8562H11.6546C11.0141 51.8562 10.4948 52.3755 10.4948 53.0161C10.4948 53.6566 11.0141 54.1759 11.6546 54.1759H43.8121C44.4528 54.1759 44.972 53.6566 44.972 53.0161C44.972 52.3755 44.4528 51.8562 43.8121 51.8562H41.7564V43.2615C41.7564 42.621 41.2371 42.1017 40.5965 42.1017H38.5406V40.0459C38.5406 37.6332 36.5778 35.6702 34.165 35.6702C33.0314 35.6702 32.109 34.748 32.109 33.6144V30.7828C35.9215 29.6632 39.089 27.1488 41.0632 23.8611L43.0226 23.2374C43.0276 23.2359 43.0327 23.2343 43.0377 23.2325C46.1709 22.1882 48.9175 20.273 50.9806 17.6941C53.3961 14.6745 54.7265 10.882 54.7265 7.01505V4.56533C54.7265 2.1526 52.7636 0.189697 50.3509 0.189697ZM6.29765 16.2449C4.20979 13.6352 3.05995 10.3573 3.05995 7.01505V4.56533C3.05995 3.43172 3.98225 2.50942 5.11586 2.50942H10.6164L12.2971 17.6351C12.4244 18.7813 12.6786 19.8917 13.0445 20.9522C10.3721 20.0151 7.98272 18.3513 6.29765 16.2449ZM39.4365 51.8562H16.0301V44.4214H39.4365V51.8562ZM30.689 28.7576C30.1624 28.8787 29.7892 29.3475 29.7892 29.888V33.6145C29.7892 36.0272 31.7522 37.9901 34.1649 37.9901C35.2985 37.9901 36.2208 38.9123 36.2208 40.0459V42.1018H19.2459V40.0459C19.2459 38.9123 20.1682 37.9901 21.3018 37.9901C23.7145 37.9901 25.6775 36.0272 25.6775 33.6145V29.888C25.6775 29.3475 25.3043 28.8788 24.7777 28.7576C19.308 27.4991 15.219 22.9264 14.6027 17.379L12.9505 2.50942H42.5162L40.864 17.3789C40.2478 22.9264 36.1587 27.4991 30.689 28.7576ZM52.4067 7.01505C52.4067 10.3572 51.2569 13.6351 49.169 16.2447C47.4088 18.4449 45.0726 20.0849 42.4081 20.9951C42.7819 19.9218 43.0406 18.7966 43.1695 17.635L44.8502 2.50942H50.3509C51.4845 2.50942 52.4067 3.43172 52.4067 4.56533V7.01505Z" fill="black"/>
<path d="M31.7079 20.8856C31.527 20.8856 31.3454 20.8434 31.1784 20.7576L27.7332 18.9892L24.288 20.7576C23.8961 20.9586 23.4245 20.9206 23.07 20.6593C22.7157 20.398 22.5397 19.9586 22.6159 19.5249L23.2674 15.8157L20.502 13.184C20.1797 12.8773 20.0613 12.4135 20.1968 11.99C20.3325 11.5664 20.6983 11.2579 21.1387 11.1954L24.9836 10.6498L26.6979 7.25814C26.8953 6.86779 27.2956 6.62158 27.7331 6.62158C28.1706 6.62158 28.5708 6.86779 28.7682 7.25814L30.4826 10.6498L34.3275 11.1954C34.7678 11.2579 35.1337 11.5666 35.2693 11.99C35.4049 12.4136 35.2864 12.8773 34.9642 13.184L32.1988 15.8157L32.8503 19.5249C32.9266 19.9586 32.7505 20.398 32.3961 20.6593C32.193 20.8092 31.9512 20.8856 31.7079 20.8856ZM27.7332 16.5256C27.915 16.5256 28.0965 16.5683 28.2628 16.6536L30.162 17.6284L29.8066 15.6051C29.7394 15.2225 29.868 14.8318 30.1494 14.5641L31.6293 13.1557L29.5577 12.8618C29.1823 12.8085 28.8567 12.5751 28.6855 12.2365L27.7332 10.3526L26.7809 12.2364C26.6098 12.575 26.2841 12.8083 25.9087 12.8617L23.8371 13.1555L25.3171 14.564C25.5984 14.8317 25.7272 15.2224 25.6599 15.6049L25.3044 17.6283L27.2037 16.6535C27.3698 16.5683 27.5516 16.5256 27.7332 16.5256Z" fill="#A0D766"/>
</g>
</g>
<defs>
<clipPath id="clip0_90_960">
<rect width="53.9862" height="53.9862" fill="white" transform="translate(0.740234 0.189697)"/>
</clipPath>
</defs>
</svg>
