<svg width="55" height="55" viewBox="0 0 55 55" fill="none" xmlns="http://www.w3.org/2000/svg">
<g clip-path="url(#clip0_90_988)">
<mask id="mask0_90_988" style="mask-type:luminance" maskUnits="userSpaceOnUse" x="0" y="0" width="55" height="55">
<path d="M54.7265 0.732666H0.740234V54.7189H54.7265V0.732666Z" fill="white"/>
</mask>
<g mask="url(#mask0_90_988)">
<path d="M21.2838 36.7895C20.1502 36.7895 19.2279 35.8672 19.2279 34.7336C19.2279 33.6 20.1502 32.6777 21.2838 32.6777C22.4174 32.6777 23.3398 33.6 23.3398 34.7336C23.3398 35.3741 23.859 35.8935 24.4996 35.8935C25.1402 35.8935 25.6595 35.3741 25.6595 34.7336C25.6595 32.7288 24.3034 31.0355 22.4609 30.5202V27.8313C22.4609 27.1907 21.9415 26.6714 21.301 26.6714C20.6605 26.6714 20.1412 27.1907 20.1412 27.8313V30.5104C18.2809 31.0144 16.9082 32.7163 16.9082 34.7337C16.9082 37.1464 18.8712 39.1092 21.2838 39.1092C22.4174 39.1092 23.3398 40.0316 23.3398 41.1652C23.3398 42.2988 22.4174 43.2211 21.2838 43.2211C20.1502 43.2211 19.2279 42.2988 19.2279 41.1652C19.2279 40.5247 18.7086 40.0053 18.068 40.0053C17.4275 40.0053 16.9082 40.5247 16.9082 41.1652C16.9082 43.1826 18.2809 44.8845 20.1412 45.3885V47.1257C20.1412 47.7663 20.6605 48.2856 21.301 48.2856C21.9415 48.2856 22.4609 47.7663 22.4609 47.1257V45.3786C24.3034 44.8632 25.6595 43.1701 25.6595 41.1652C25.6595 38.7524 23.6965 36.7895 21.2838 36.7895Z" fill="#A0D766"/>
<path d="M54.7265 37.4803C54.7265 36.2098 54.1818 35.0646 53.3142 34.2645C54.1818 33.4644 54.7265 32.3192 54.7265 31.0487C54.7265 28.636 52.7636 26.6732 50.3509 26.6732H37.3807C37.1581 26.6732 36.9396 26.6901 36.726 26.7223C34.9841 24.5662 32.9029 22.7929 30.5971 21.4898C31.5222 20.6869 32.1089 19.5039 32.1089 18.1857C32.1089 16.3036 30.9144 14.6955 29.2438 14.079L32.0518 5.46785C32.167 5.11462 32.106 4.72765 31.8877 4.42703C31.6695 4.12642 31.3206 3.94843 30.9491 3.94843H25.5202C25.0105 2.09698 23.3129 0.732666 21.3018 0.732666C19.2905 0.732666 17.5917 2.09688 17.0821 3.94843H11.6545C11.283 3.94843 10.934 4.12642 10.7159 4.42703C10.4977 4.72765 10.4368 5.11462 10.5518 5.46785L13.3597 14.079C11.6891 14.6954 10.4947 16.3035 10.4947 18.1857C10.4947 19.5046 11.082 20.6881 12.0078 21.491C9.1254 23.122 6.55735 25.4973 4.6148 28.3633C2.11625 32.0493 0.740234 36.4291 0.740234 40.696C0.740234 46.0494 2.86563 49.9017 7.05747 52.1461C10.336 53.9013 14.8622 54.7189 21.3018 54.7189C26.7266 54.7189 30.7529 54.1417 33.8415 52.912C34.6377 54.0059 35.9272 54.7189 37.3807 54.7189H50.3509C52.7636 54.7189 54.7265 52.756 54.7265 50.3433C54.7265 49.0728 54.1818 47.9275 53.3142 47.1275C54.1818 46.3274 54.7265 45.1822 54.7265 43.9117C54.7265 42.6414 54.1818 41.4961 53.3143 40.696C54.1818 39.8958 54.7265 38.7507 54.7265 37.4803ZM52.4067 31.0487C52.4067 32.1823 51.4845 33.1047 50.3509 33.1047H37.3807C36.2471 33.1047 35.3247 32.1823 35.3247 31.0487C35.3247 29.9151 36.2471 28.9929 37.3807 28.9929H50.3509C51.4845 28.9929 52.4067 29.9151 52.4067 31.0487ZM18.086 6.26815C18.7266 6.26815 19.2459 5.74885 19.2459 5.10829C19.2459 3.97468 20.1682 3.05239 21.3018 3.05239C22.4354 3.05239 23.3578 3.97468 23.3578 5.10829V8.32406C23.3578 8.96462 23.877 9.48392 24.5176 9.48392C25.1581 9.48392 25.6775 8.96462 25.6775 8.32406V6.26815H29.3509L26.8916 13.81H15.7121L13.2528 6.26815H18.086ZM14.8667 16.1299L14.87 16.13C14.8726 16.13 14.8753 16.1298 14.8779 16.1298H27.7256C27.7282 16.1298 27.7309 16.13 27.7335 16.13L27.7367 16.1299C28.8687 16.1318 29.7891 17.0533 29.7891 18.1856C29.7891 19.3185 28.8678 20.2405 27.735 20.2414C27.7223 20.2414 27.7097 20.2411 27.6971 20.2415H14.9041C14.8934 20.2411 14.8827 20.2415 14.872 20.2415H14.8702C13.7366 20.2415 12.8145 19.3192 12.8145 18.1856C12.8145 17.0533 13.7348 16.1318 14.8667 16.1299ZM21.3018 52.3992C15.2592 52.3992 11.0808 51.6689 8.15237 50.1009C4.72572 48.2664 3.05995 45.1899 3.05995 40.696C3.05995 36.8885 4.29405 32.9706 6.5349 29.6647C8.70795 26.4587 11.7418 23.9438 15.0962 22.5613H27.503C30.1601 23.6549 32.5697 25.4235 34.5412 27.7236C33.6021 28.5268 33.0051 29.7191 33.0051 31.0487C33.0051 32.3192 33.5498 33.4644 34.4174 34.2645C33.5498 35.0646 33.0051 36.2098 33.0051 37.4803C33.0051 38.7507 33.5498 39.8958 34.4173 40.696C33.5497 41.4961 33.0051 42.6413 33.0051 43.9117C33.0051 45.1822 33.5498 46.3274 34.4174 47.1275C33.4561 48.0005 32.8877 49.3664 33.0241 50.7415C30.2164 51.8701 26.4553 52.3992 21.3018 52.3992ZM52.4067 50.3433C52.4067 51.4769 51.4845 52.3992 50.3509 52.3992H37.3807C36.2471 52.3992 35.3247 51.4769 35.3247 50.3433C35.3247 49.2097 36.2471 48.2873 37.3807 48.2873H50.3509C51.4845 48.2873 52.4067 49.2097 52.4067 50.3433ZM52.4067 43.9117C52.4067 45.0453 51.4845 45.9676 50.3509 45.9676H37.3807C36.2471 45.9676 35.3247 45.0453 35.3247 43.9117C35.3247 42.7781 36.2471 41.8558 37.3807 41.8558H50.3509C51.4845 41.8558 52.4067 42.7781 52.4067 43.9117ZM37.3807 39.5361C36.2471 39.5361 35.3247 38.6139 35.3247 37.4803C35.3247 36.3467 36.2471 35.4244 37.3807 35.4244H50.3509C51.4845 35.4244 52.4067 36.3467 52.4067 37.4803C52.4067 38.6139 51.4845 39.5361 50.3509 39.5361H37.3807Z" fill="black"/>
</g>
</g>
<defs>
<clipPath id="clip0_90_988">
<rect width="53.9862" height="53.9862" fill="white" transform="translate(0.740234 0.732666)"/>
</clipPath>
</defs>
</svg>
