<svg width="72" height="72" viewBox="0 0 72 72" fill="none" xmlns="http://www.w3.org/2000/svg">
<rect x="0.743164" y="0.679688" width="70.7007" height="70.7007" rx="9.12267" fill="#D9D9D9"/>
<rect x="0.743164" y="0.679688" width="70.7007" height="70.7007" rx="9.12267" fill="url(#paint0_linear_90_826)"/>
<path fill-rule="evenodd" clip-rule="evenodd" d="M56.1864 35.1863C55.9628 35.2239 55.7633 35.3489 55.6318 35.5337C55.5003 35.7184 55.4475 35.9479 55.4851 36.1715C55.6699 37.2662 55.764 38.3695 55.764 39.4505C55.764 45.4783 53.0785 50.9194 48.7475 54.5423C48.3865 52.1707 47.3622 49.9495 45.7929 48.1351C44.2237 46.3207 42.1733 44.9869 39.8785 44.2878C40.8178 43.6645 41.5885 42.8186 42.1218 41.8254C42.6551 40.8322 42.9345 39.7226 42.9352 38.5953C42.9352 34.8219 39.8666 31.7533 36.0932 31.7533C32.3198 31.7533 29.2512 34.8219 29.2512 38.5953C29.2512 40.9695 30.4673 43.0597 32.3078 44.2878C30.0131 44.9869 27.9627 46.3207 26.3934 48.1351C24.8242 49.9495 23.7999 52.1707 23.4389 54.5423C21.2344 52.695 19.4631 50.3856 18.2506 47.7775C17.0381 45.1695 16.4139 42.3267 16.4224 39.4505C16.4224 38.3695 16.5165 37.2679 16.7012 36.1715C16.7218 36.0599 16.72 35.9454 16.6959 35.8345C16.6718 35.7237 16.6259 35.6187 16.5608 35.5258C16.4958 35.4329 16.4129 35.3538 16.317 35.2932C16.2211 35.2326 16.114 35.1917 16.0022 35.1729C15.8903 35.154 15.7758 35.1576 15.6653 35.1835C15.5549 35.2093 15.4507 35.2569 15.3588 35.3234C15.2669 35.3899 15.1891 35.4741 15.13 35.5709C15.071 35.6678 15.0317 35.7754 15.0147 35.8876C14.8149 37.0647 14.7136 38.2565 14.7119 39.4505C14.7119 49.953 22.2142 58.8185 32.549 60.529C32.7688 60.5575 32.9911 60.4995 33.1689 60.3673C33.3468 60.2351 33.4664 60.039 33.5026 59.8204C33.5387 59.6017 33.4886 59.3776 33.3627 59.1951C33.2368 59.0127 33.0451 58.8863 32.8278 58.8425C30.0334 58.3809 27.3723 57.3188 25.0279 55.7294C25.4368 49.9256 30.2091 45.4373 36.0932 45.4373C41.9773 45.4373 46.7479 49.9256 47.1601 55.7294C44.8153 57.319 42.1536 58.3811 39.3585 58.8425C39.2446 58.8572 39.1349 58.8948 39.0358 58.9528C38.9367 59.0109 38.8504 59.0883 38.7819 59.1805C38.7133 59.2727 38.6641 59.3777 38.6371 59.4893C38.61 59.6009 38.6058 59.7169 38.6245 59.8302C38.6432 59.9435 38.6846 60.0518 38.7461 60.1488C38.8076 60.2458 38.888 60.3294 38.9826 60.3946C39.0771 60.4598 39.1838 60.5054 39.2963 60.5284C39.4088 60.5515 39.5248 60.5518 39.6373 60.529C49.9722 58.8185 57.4745 49.9547 57.4745 39.4505C57.4745 38.2737 57.3718 37.0747 57.1717 35.8876C57.1535 35.7766 57.1135 35.6704 57.054 35.575C56.9945 35.4796 56.9167 35.3969 56.8251 35.3317C56.7335 35.2665 56.6299 35.2201 56.5203 35.1952C56.4107 35.1702 56.2972 35.1672 56.1864 35.1863ZM30.9617 38.5953C30.9617 35.7661 33.264 33.4638 36.0932 33.4638C38.9224 33.4638 41.2247 35.7661 41.2247 38.5953C41.2247 41.4245 38.9224 43.7268 36.0932 43.7268C33.264 43.7268 30.9617 41.4245 30.9617 38.5953ZM45.4599 18.0333C45.4107 17.8813 45.3199 17.746 45.1978 17.6429C45.0756 17.5398 44.927 17.473 44.7688 17.4501L39.3038 16.6564L36.8595 11.7028C36.5721 11.1212 35.6142 11.1212 35.3269 11.7028L32.8826 16.6564L27.4175 17.4501C27.2596 17.473 27.1112 17.5397 26.9891 17.6426C26.8671 17.7455 26.7763 17.8805 26.727 18.0323C26.6777 18.1841 26.6719 18.3467 26.7102 18.5016C26.7485 18.6566 26.8294 18.7978 26.9437 18.9091L30.8984 22.7629L29.9645 28.2057C29.9374 28.3631 29.9549 28.5249 30.0151 28.6729C30.0753 28.8208 30.1757 28.9489 30.3049 29.0428C30.4342 29.1366 30.5871 29.1923 30.7464 29.2037C30.9057 29.2151 31.065 29.1816 31.2063 29.1071L36.0932 26.5363L40.9801 29.1071C41.1211 29.1828 41.2806 29.2168 41.4402 29.2053C41.5998 29.1938 41.7528 29.1372 41.8815 29.0421C42.0109 28.9482 42.1114 28.8199 42.1716 28.6718C42.2318 28.5236 42.2492 28.3615 42.2219 28.204L41.288 22.7646L45.2444 18.9074C45.3586 18.7962 45.4395 18.6553 45.4779 18.5005C45.5163 18.3458 45.5106 18.1834 45.4616 18.0316L45.4599 18.0333ZM39.7708 21.8495C39.6714 21.9464 39.5971 22.066 39.5542 22.198C39.5113 22.33 39.5011 22.4704 39.5245 22.6072L40.2429 26.786L36.49 24.8121C36.367 24.7479 36.2302 24.7144 36.0915 24.7144C35.9527 24.7144 35.816 24.7479 35.6929 24.8121L31.9418 26.786L32.6585 22.6072C32.6819 22.4704 32.6717 22.33 32.6288 22.198C32.5859 22.066 32.5115 21.9464 32.4122 21.8495L29.3778 18.892L33.5719 18.2831C33.7088 18.263 33.8389 18.21 33.9509 18.1287C34.0629 18.0473 34.1535 17.9401 34.2151 17.8161L36.0932 14.0154L37.9696 17.8178C38.0311 17.9418 38.1218 18.0491 38.2338 18.1304C38.3458 18.2117 38.4758 18.2647 38.6128 18.2848L42.8069 18.8937L39.7725 21.8512L39.7708 21.8495Z" fill="white"/>
<path fill-rule="evenodd" clip-rule="evenodd" d="M15.6264 31.7924C15.599 31.9499 15.6162 32.112 15.6763 32.2602C15.7363 32.4084 15.8366 32.5368 15.9659 32.6309C16.0953 32.7249 16.2484 32.7809 16.4078 32.7923C16.5673 32.8037 16.7268 32.7702 16.8682 32.6956L20.6981 30.6806L24.5296 32.6956C24.6704 32.7708 24.8296 32.8047 24.9888 32.7932C25.1481 32.7817 25.3008 32.7253 25.4293 32.6306C25.5587 32.5366 25.6592 32.4083 25.7194 32.2602C25.7796 32.112 25.797 31.95 25.7697 31.7924L25.0376 27.5281L28.137 24.5091C28.2519 24.3978 28.3332 24.2565 28.3718 24.1013C28.4104 23.9461 28.4047 23.7832 28.3554 23.6311C28.306 23.4789 28.215 23.3437 28.0927 23.2407C27.9703 23.1377 27.8215 23.071 27.6632 23.0483L23.3801 22.4274L21.4644 18.5446C21.177 17.963 20.2191 17.963 19.9318 18.5446L18.016 22.4274L13.7329 23.0483C13.5746 23.071 13.4258 23.1377 13.3035 23.2407C13.1811 23.3437 13.0901 23.4789 13.0407 23.6311C12.9914 23.7832 12.9857 23.9461 13.0243 24.1013C13.0629 24.2565 13.1442 24.3978 13.2591 24.5091L16.3585 27.5281L15.6264 31.7924ZM15.6948 24.4937L18.7053 24.0558C18.8426 24.036 18.973 23.9831 19.0853 23.9018C19.1976 23.8204 19.2885 23.7131 19.3502 23.5888L20.6981 20.8572L22.0459 23.5888C22.1075 23.7128 22.1981 23.8201 22.3101 23.9014C22.4221 23.9827 22.5521 24.0357 22.6891 24.0558L25.7013 24.4937L23.5221 26.6164C23.4227 26.7134 23.3484 26.8329 23.3055 26.9649C23.2626 27.0969 23.2524 27.2374 23.2758 27.3742L23.7906 30.3744L21.0966 28.9581C20.9736 28.894 20.8368 28.8605 20.6981 28.8605C20.5593 28.8605 20.4226 28.894 20.2995 28.9581L17.6055 30.3744L18.1186 27.3742C18.1422 27.2375 18.1323 27.0972 18.0897 26.9652C18.0471 26.8332 17.9731 26.7135 17.874 26.6164L15.6948 24.4937ZM58.4523 23.0483L54.1692 22.4274L52.2534 18.5446C51.966 17.963 51.0081 17.963 50.7208 18.5446L48.805 22.4274L44.5219 23.0483C44.3636 23.071 44.2148 23.1377 44.0925 23.2407C43.9701 23.3437 43.8791 23.4789 43.8298 23.6311C43.7804 23.7832 43.7747 23.9461 43.8133 24.1013C43.8519 24.2565 43.9333 24.3978 44.0481 24.5091L47.1475 27.5281L46.4155 31.7924C46.388 31.9499 46.4053 32.112 46.4653 32.2602C46.5253 32.4084 46.6257 32.5368 46.755 32.6309C46.8843 32.7249 47.0374 32.7809 47.1969 32.7923C47.3564 32.8037 47.5159 32.7702 47.6573 32.6956L51.4871 30.6806L55.3186 32.6956C55.4594 32.7708 55.6186 32.8047 55.7779 32.7932C55.9371 32.7817 56.0898 32.7253 56.2183 32.6306C56.3478 32.5366 56.4482 32.4083 56.5084 32.2602C56.5686 32.112 56.586 31.95 56.5587 31.7924L55.8266 27.5281L58.9261 24.5091C59.0409 24.3978 59.1223 24.2565 59.1609 24.1013C59.1994 23.9461 59.1937 23.7832 59.1444 23.6311C59.0951 23.4789 59.004 23.3437 58.8817 23.2407C58.7593 23.1377 58.6106 23.071 58.4523 23.0483ZM54.3111 26.6164C54.2118 26.7134 54.1375 26.8329 54.0946 26.9649C54.0516 27.0969 54.0414 27.2374 54.0648 27.3742L54.5797 30.3744L51.8856 28.9581C51.7626 28.894 51.6259 28.8605 51.4871 28.8605C51.3483 28.8605 51.2116 28.894 51.0885 28.9581L48.3945 30.3744L48.9077 27.3742C48.9312 27.2375 48.9213 27.0972 48.8787 26.9652C48.8361 26.8332 48.7621 26.7135 48.6631 26.6164L46.4839 24.4937L49.4944 24.0558C49.6316 24.036 49.762 23.9831 49.8743 23.9018C49.9866 23.8204 50.0775 23.7131 50.1392 23.5888L51.4871 20.8572L52.835 23.5888C52.8965 23.7128 52.9871 23.8201 53.0991 23.9014C53.2111 23.9827 53.3412 24.0357 53.4781 24.0558L56.4903 24.4937L54.3111 26.6164Z" fill="white"/>
<path d="M36.0935 60.8316C36.5659 60.8316 36.9488 60.4487 36.9488 59.9763C36.9488 59.504 36.5659 59.1211 36.0935 59.1211C35.6212 59.1211 35.2383 59.504 35.2383 59.9763C35.2383 60.4487 35.6212 60.8316 36.0935 60.8316Z" fill="white"/>
<defs>
<linearGradient id="paint0_linear_90_826" x1="0.743164" y1="0.679688" x2="123.22" y2="7.63343" gradientUnits="userSpaceOnUse">
<stop stop-color="#3C83F6"/>
<stop offset="0.5" stop-color="#7C3BED"/>
</linearGradient>
</defs>
</svg>
