<svg width="72" height="72" viewBox="0 0 72 72" fill="none" xmlns="http://www.w3.org/2000/svg">
<rect x="0.882812" y="0.679688" width="70.7007" height="70.7007" rx="9.12267" fill="#D9D9D9"/>
<rect x="0.882812" y="0.679688" width="70.7007" height="70.7007" rx="9.12267" fill="url(#paint0_linear_90_845)"/>
<g clip-path="url(#clip0_90_845)">
<path d="M47.9929 50.9971C47.4028 50.9971 46.9238 51.476 46.9238 52.0661C46.9238 52.6563 47.4028 53.1352 47.9929 53.1352C48.583 53.1352 49.062 52.6563 49.062 52.0661C49.062 51.476 48.583 50.9971 47.9929 50.9971Z" fill="white"/>
<path d="M50.6259 47.54L45.5447 45.8466L43.7205 42.1982C45.3639 40.5255 46.5049 38.3124 46.8896 36.0039L47.1171 34.6404H49.0627C50.8312 34.6404 52.2699 33.2016 52.2699 31.4332V24.6981C52.2699 15.8558 45.0762 8.66211 36.234 8.66211C27.3691 8.66211 20.198 15.8352 20.198 24.6981V31.4332C20.198 32.8268 21.0919 34.0152 22.3361 34.4565V35.7094C22.3361 37.4779 23.7749 38.9166 25.5433 38.9166H26.4822C26.9443 39.9231 27.5482 40.8582 28.2754 41.6934C28.4271 41.8672 28.5842 42.0362 28.7465 42.2002L26.9233 45.8466L21.8419 47.5401C15.9337 49.5102 11.6455 55.7299 11.6455 62.3291C11.6455 62.9195 12.1241 63.3982 12.7146 63.3982H59.7534C60.3437 63.3982 60.8224 62.9195 60.8224 62.3291C60.8224 55.7299 56.5343 49.5102 50.6259 47.54ZM50.1318 31.4332C50.1318 32.0226 49.6522 32.5022 49.0627 32.5022H47.4311C47.7029 30.3972 47.884 28.1572 47.9568 25.951C47.9589 25.8888 47.9606 25.8283 47.9626 25.7671H50.1318V31.4332ZM23.4052 32.5022C22.8157 32.5022 22.3361 32.0226 22.3361 31.4332V25.7671H24.5061C24.5097 25.8786 24.5134 25.9907 24.5176 26.1035L24.518 26.1149V26.1159C24.5928 28.2617 24.7716 30.4435 25.0371 32.5021H23.4052V32.5022ZM25.5433 36.7785C24.9539 36.7785 24.4743 36.2989 24.4743 35.7094V34.6404H25.3507L25.5782 36.0044C25.6219 36.2642 25.6748 36.5224 25.7366 36.7785H25.5433ZM24.4761 23.629H22.3768C22.9182 16.464 28.8977 10.8002 36.234 10.8002C43.5376 10.8002 49.5434 16.4633 50.0911 23.629H47.992C47.915 17.7249 43.1071 12.9384 37.1909 12.9384H35.2773C29.3612 12.9384 24.553 17.7249 24.4761 23.629ZM35.2772 15.0765H37.1908C41.9811 15.0765 45.8583 18.9947 45.8555 23.7797C45.8555 24.1162 45.8529 24.4091 45.8472 24.6756L45.8471 24.6861L44.5099 24.495C40.8772 23.9763 37.4473 22.2613 34.8518 19.6659C34.6513 19.4654 34.3794 19.3528 34.0958 19.3527C31.2248 19.3527 28.4764 20.6609 26.6596 22.8708C27.1074 18.5177 30.7874 15.0765 35.2772 15.0765ZM27.953 36.7785C27.4178 34.9982 26.8055 29.7598 26.6701 26.4029L28.109 24.4844C29.4304 22.723 31.4864 21.6286 33.6733 21.503C36.5509 24.2415 40.2736 26.0499 44.2076 26.6116L45.7815 26.8365C45.6763 29.0692 45.4613 31.3098 45.1533 33.3704L45.153 33.3726C45.055 34.035 44.9778 34.4614 44.7807 35.6522C44.2145 39.0481 41.6806 42.119 38.3356 42.9553C36.9558 43.299 35.5127 43.299 34.1328 42.9553C32.0442 42.4332 30.1291 40.988 28.8931 38.9166H31.0725C31.5138 40.1609 32.7021 41.0547 34.0958 41.0547H36.234C38.0059 41.0547 39.4412 39.6196 39.4412 37.8475C39.4412 36.0791 38.0024 34.6404 36.234 34.6404H34.0958C32.6711 34.6404 31.5004 35.5606 31.0707 36.7785H27.953ZM34.0059 45.1189C34.7385 45.2736 35.4852 45.3519 36.234 45.3524C36.8189 45.3524 37.4038 45.3034 37.9822 45.2085L36.0932 47.2062L34.0059 45.1189ZM34.6234 48.7604L31.2326 52.3463C30.2984 50.558 29.4983 48.7028 28.839 46.796L30.1124 44.2493L34.6234 48.7604ZM42.1743 43.8871L43.6287 46.7959C42.9694 48.7033 42.1693 50.5591 41.2348 52.3479L37.6056 48.7186L42.1743 43.8871ZM33.0268 37.8475C33.0268 37.2573 33.5055 36.7785 34.0958 36.7785H36.234C36.8235 36.7785 37.303 37.2581 37.303 37.8475C37.303 38.4379 36.8242 38.9166 36.234 38.9166H34.0958C33.5064 38.9166 33.0268 38.437 33.0268 37.8475ZM13.8264 61.26C14.2501 55.964 17.7747 51.1502 22.5181 49.5684L27.0182 48.0688C27.8438 50.3511 28.8617 52.5592 30.0611 54.6691L30.0671 54.6799L30.0672 54.6802C30.9488 56.2291 31.9261 57.7215 32.9934 59.1487L34.3086 61.26H13.8264ZM36.234 60.3071L34.7841 57.9794C34.7679 57.9533 34.7505 57.928 34.7321 57.9034C33.866 56.7474 33.0619 55.5461 32.3233 54.3047L36.1359 50.2728L40.1533 54.2902C39.4124 55.5367 38.6055 56.7427 37.736 57.9032C37.6836 57.973 37.7579 57.863 36.234 60.3071ZM38.1594 61.26L39.4744 59.1488C40.5501 57.7107 41.5343 56.2063 42.4212 54.6447C42.4265 54.6353 42.4315 54.6256 42.4369 54.6162L42.4388 54.6128C43.6245 52.5199 44.6317 50.3308 45.4497 48.0688L49.9497 49.5684C54.6933 51.1502 58.2179 55.964 58.6415 61.26H38.1594Z" fill="white"/>
<path d="M55.428 56.933C54.7136 55.503 53.6671 54.2325 52.4016 53.259C51.9336 52.8988 51.2624 52.9864 50.9025 53.4544C50.5424 53.9225 50.63 54.5936 51.0979 54.9537C52.1086 55.7312 52.9444 56.7461 53.5152 57.8886C53.7795 58.4177 54.422 58.6306 54.9493 58.3672C55.4774 58.1034 55.6918 57.4613 55.428 56.933Z" fill="white"/>
</g>
<defs>
<linearGradient id="paint0_linear_90_845" x1="0.882812" y1="0.679688" x2="123.36" y2="7.63343" gradientUnits="userSpaceOnUse">
<stop stop-color="#3C83F6"/>
<stop offset="0.5" stop-color="#7C3BED"/>
</linearGradient>
<clipPath id="clip0_90_845">
<rect width="54.736" height="54.736" fill="white" transform="translate(8.86523 8.66211)"/>
</clipPath>
</defs>
</svg>
