<svg width="61" height="61" viewBox="0 0 61 61" fill="none" xmlns="http://www.w3.org/2000/svg">
<rect x="0.383301" y="0.871948" width="60" height="60" rx="8" fill="white"/>
<path d="M40.21 38.306H38.5986C37.6872 38.306 36.2467 38.1189 34.2773 37.7445L32.4219 46.7777L26.6113 45.4838L29.4678 32.7885L32.7881 16.1869C36.4665 15.5358 40.3483 15.0394 44.4336 14.6976L48.291 31.4457L51.2695 46.1429L45.3369 47.0951L42.7246 32.6908L40.1855 20.5326C39.2578 20.5326 38.2894 20.6872 37.2803 20.9965L35.1807 33.0326L41.4795 33.1791L40.7227 38.2816C40.5436 38.2979 40.3727 38.306 40.21 38.306Z" fill="#403B3B"/>
<path d="M40.21 38.306H38.5986C37.6872 38.306 36.2467 38.1189 34.2773 37.7445L32.4219 46.7777L26.6113 45.4838L29.4678 32.7885L32.7881 16.1869C36.4665 15.5358 40.3483 15.0394 44.4336 14.6976L48.291 31.4457L51.2695 46.1429L45.3369 47.0951L42.7246 32.6908L40.1855 20.5326C39.2578 20.5326 38.2894 20.6872 37.2803 20.9965L35.1807 33.0326L41.4795 33.1791L40.7227 38.2816C40.5436 38.2979 40.3727 38.306 40.21 38.306Z" fill="url(#paint0_linear_92_2999)"/>
<path d="M9.49707 15.6254L15.6494 14.6488V28.0277L14.8926 39.9418C16.1458 40.4301 17.8385 40.8207 19.9707 41.1136C22.1029 41.3903 23.3887 41.5612 23.8281 41.6263L22.4365 47.0463C20.695 46.8184 19.2871 46.6068 18.2129 46.4115L15.3564 45.8744C12.4105 45.3047 10.4574 44.792 9.49707 44.3363V15.6254Z" fill="#403B3B"/>
<path d="M9.49707 15.6254L15.6494 14.6488V28.0277L14.8926 39.9418C16.1458 40.4301 17.8385 40.8207 19.9707 41.1136C22.1029 41.3903 23.3887 41.5612 23.8281 41.6263L22.4365 47.0463C20.695 46.8184 19.2871 46.6068 18.2129 46.4115L15.3564 45.8744C12.4105 45.3047 10.4574 44.792 9.49707 44.3363V15.6254Z" fill="url(#paint1_linear_92_2999)"/>
<defs>
<linearGradient id="paint0_linear_92_2999" x1="14.2822" y1="14.6976" x2="14.2822" y2="47.0951" gradientUnits="userSpaceOnUse">
<stop stop-color="#3C83F6"/>
<stop offset="0.5" stop-color="#7C3BED"/>
</linearGradient>
<linearGradient id="paint1_linear_92_2999" x1="2.33154" y1="14.6488" x2="2.33154" y2="47.0463" gradientUnits="userSpaceOnUse">
<stop stop-color="#3C83F6"/>
<stop offset="0.5" stop-color="#7C3BED"/>
</linearGradient>
</defs>
</svg>
