<svg width="18" height="21" viewBox="0 0 18 21" fill="none" xmlns="http://www.w3.org/2000/svg">
<path d="M9.67306 19.2966C9.50986 19.4138 9.31399 19.4768 9.11306 19.4768C8.91213 19.4768 8.71626 19.4138 8.55306 19.2966C3.72406 15.8546 -1.40094 8.77456 3.78006 3.65856C5.2024 2.25941 7.1179 1.47569 9.11306 1.47656C11.1131 1.47656 13.0321 2.26156 14.4461 3.65756C19.6271 8.77356 14.5021 15.8526 9.67306 19.2966Z" stroke="white" stroke-width="1.5" stroke-linecap="round" stroke-linejoin="round"/>
<path d="M9.11328 10.4766C9.64371 10.4766 10.1524 10.2658 10.5275 9.89078C10.9026 9.5157 11.1133 9.007 11.1133 8.47656C11.1133 7.94613 10.9026 7.43742 10.5275 7.06235C10.1524 6.68728 9.64371 6.47656 9.11328 6.47656C8.58285 6.47656 8.07414 6.68728 7.69907 7.06235C7.324 7.43742 7.11328 7.94613 7.11328 8.47656C7.11328 9.007 7.324 9.5157 7.69907 9.89078C8.07414 10.2658 8.58285 10.4766 9.11328 10.4766Z" stroke="white" stroke-width="1.5" stroke-linecap="round" stroke-linejoin="round"/>
</svg>
