<svg width="71" height="72" viewBox="0 0 71 72" fill="none" xmlns="http://www.w3.org/2000/svg">
<rect x="0.113281" y="0.679688" width="70.7007" height="70.7007" rx="9.12267" fill="#D9D9D9"/>
<rect x="0.113281" y="0.679688" width="70.7007" height="70.7007" rx="9.12267" fill="url(#paint0_linear_90_854)"/>
<g clip-path="url(#clip0_90_854)">
<path d="M8.89746 18.2808V29.0449C8.89746 29.3763 9.16612 29.645 9.49753 29.645H13.7166C13.2395 30.3218 12.9798 31.164 13.0432 32.0697C13.1721 33.9135 14.6624 35.4059 16.5005 35.5311C18.6768 35.6793 20.4881 33.9524 20.4881 31.8009C20.4892 31.0289 20.2506 30.2756 19.8053 29.645H28.4143C28.7457 29.645 29.0143 29.3763 29.0143 29.0449V23.8164C29.0143 23.421 28.6391 23.1352 28.2575 23.238C27.9425 23.3227 27.6178 23.3655 27.2917 23.3653C25.1486 23.3653 23.4281 21.5509 23.573 19.3698C23.6968 17.5074 25.2102 16.0034 27.0676 15.8937C27.4659 15.8697 27.8654 15.9099 28.2509 16.0126C28.6352 16.1154 29.0145 15.8376 29.0145 15.4399V10.0639C29.0145 9.73252 28.7458 9.46387 28.4144 9.46387H11.2247C9.93937 9.46387 8.89746 10.5091 8.89746 11.7985V15.0791M40.3068 59.088C38.5271 59.088 37.1069 57.5431 37.3064 55.7171C37.4595 54.315 38.5907 53.1906 39.9894 53.0468C40.6995 52.9738 41.3653 53.1491 41.9131 53.4953V42.4152H33.6995C33.2739 42.4152 32.992 42.8426 33.1434 43.2403C33.3306 43.7321 33.4172 44.2735 33.3776 44.8399C33.2487 46.6836 31.7584 48.176 29.9203 48.3012C27.744 48.4496 25.9327 46.7225 25.9327 44.5711C25.9327 44.1007 26.0196 43.6508 26.1778 43.2363C26.329 42.8405 26.0445 42.4152 25.6206 42.4152H22.3964C22.2373 42.4152 22.0846 42.4784 21.9721 42.5909C21.8596 42.7035 21.7964 42.8561 21.7964 43.0152V60.2617C21.7964 61.5511 22.8383 62.5963 24.1236 62.5963H41.9131V58.6231C41.4326 58.9274 40.8755 59.0886 40.3068 59.088Z" stroke="white" stroke-width="1.6036" stroke-miterlimit="10" stroke-linecap="round" stroke-linejoin="round"/>
<path d="M62.0302 52.5616V42.4144H55.8739C56.4158 41.6241 56.7052 40.6879 56.7038 39.7297C56.7038 37.1085 54.5434 34.9604 51.9308 34.9826C49.3363 35.0047 47.2399 37.1215 47.2399 39.7296C47.2399 40.7262 47.5467 41.6507 48.0698 42.4144H41.9135V53.4945C41.3657 53.1483 40.6999 52.9731 39.9897 53.046C38.5911 53.1897 37.46 54.3141 37.3068 55.7163C37.1074 57.5423 38.5275 59.0872 40.3071 59.0872C40.8758 59.0878 41.433 58.9266 41.9135 58.6225V62.5954H59.703C60.9883 62.5954 62.0303 61.5502 62.0303 60.2608V55.7614" stroke="white" stroke-width="1.6036" stroke-miterlimit="10" stroke-linecap="round" stroke-linejoin="round"/>
<path d="M38.1361 24.4476V20.7484L43.2653 15.6191H54.7065M41.9129 22.8331V29.0798C41.3141 28.7658 40.6408 28.6216 39.966 28.6629C38.1086 28.7726 36.5952 30.2765 36.4714 32.139C36.3265 34.3201 38.047 36.1345 40.1901 36.1345C40.7901 36.1351 41.3814 35.9897 41.9127 35.7109V42.4143H48.0691C47.5271 41.624 47.2377 40.6878 47.2391 39.7295C47.239 37.1084 49.3995 34.9602 52.0122 34.9824C54.6067 35.0046 56.7031 37.1214 56.7031 39.7294C56.7031 40.7261 56.3964 41.6505 55.8732 42.4143H62.0296V24.5677C62.0296 23.2783 60.9877 22.2331 59.7024 22.2331H42.5129C42.4341 22.2331 42.3561 22.2486 42.2833 22.2787C42.2105 22.3089 42.1443 22.3531 42.0886 22.4088C42.0329 22.4645 41.9887 22.5306 41.9585 22.6034C41.9284 22.6762 41.9128 22.7543 41.9129 22.8331Z" stroke="white" stroke-width="1.6036" stroke-miterlimit="10" stroke-linecap="round" stroke-linejoin="round"/>
<path d="M56.8057 17.6602C57.9329 17.6602 58.8468 16.7464 58.8468 15.6192C58.8468 14.4919 57.9329 13.5781 56.8057 13.5781C55.6785 13.5781 54.7646 14.4919 54.7646 15.6192C54.7646 16.7464 55.6785 17.6602 56.8057 17.6602Z" stroke="white" stroke-width="1.6036" stroke-miterlimit="10" stroke-linecap="round" stroke-linejoin="round"/>
<path d="M34.4922 25.7313V13.5439" stroke="white" stroke-width="1.6036" stroke-miterlimit="10" stroke-linecap="round" stroke-linejoin="round"/>
<path d="M34.4913 13.546C35.6185 13.546 36.5323 12.6322 36.5323 11.5049C36.5323 10.3777 35.6185 9.46387 34.4913 9.46387C33.364 9.46387 32.4502 10.3777 32.4502 11.5049C32.4502 12.6322 33.364 13.546 34.4913 13.546Z" stroke="white" stroke-width="1.6036" stroke-miterlimit="10" stroke-linecap="round" stroke-linejoin="round"/>
<path d="M29.5838 43.7272V39.451L26.9111 36.7783" stroke="white" stroke-width="1.6036" stroke-miterlimit="10" stroke-linecap="round" stroke-linejoin="round"/>
<path d="M25.4678 37.3761C26.5951 37.3761 27.5089 36.4622 27.5089 35.335C27.5089 34.2078 26.5951 33.2939 25.4678 33.2939C24.3406 33.2939 23.4268 34.2078 23.4268 35.335C23.4268 36.4622 24.3406 37.3761 25.4678 37.3761Z" stroke="white" stroke-width="1.6036" stroke-miterlimit="10" stroke-linecap="round" stroke-linejoin="round"/>
</g>
<defs>
<linearGradient id="paint0_linear_90_854" x1="0.113281" y1="0.679688" x2="122.59" y2="7.63343" gradientUnits="userSpaceOnUse">
<stop stop-color="#3C83F6"/>
<stop offset="0.5" stop-color="#7C3BED"/>
</linearGradient>
<clipPath id="clip0_90_854">
<rect width="54.736" height="54.736" fill="white" transform="translate(8.0957 8.66211)"/>
</clipPath>
</defs>
</svg>
