<svg width="204" height="41" viewBox="0 0 204 41" fill="none" xmlns="http://www.w3.org/2000/svg">
<path d="M11.455 28.4464L9.28898 28.4084C8.98498 28.4084 8.68098 28.4084 8.37698 28.4084L1.46098 28.7504C1.08098 28.7504 0.890977 28.6237 0.890977 28.3704C0.890977 28.2944 0.928977 28.117 1.00498 27.8384C1.25831 27.2557 1.43564 25.4064 1.53698 22.2904C1.66364 19.1744 1.72698 16.337 1.72698 13.7784C1.72698 11.1944 1.67631 9.10437 1.57498 7.50837C1.42298 5.10171 1.16964 3.65771 0.814977 3.17637C0.53631 2.82171 0.396977 2.59371 0.396977 2.49237C0.396977 2.08704 1.08098 1.73237 2.44898 1.42837C3.81698 1.12437 4.79231 0.972374 5.37498 0.972374C5.98298 0.972374 6.36298 1.01037 6.51498 1.08637C6.66698 1.13704 6.74298 1.26371 6.74298 1.46637C6.74298 1.66904 6.69231 2.31504 6.59098 3.40437C6.33764 6.62171 6.21098 10.371 6.21098 14.6524C6.21098 18.9084 6.31231 22.3157 6.51498 24.8744C6.51498 25.153 6.75564 25.3937 7.23698 25.5964C7.71831 25.799 8.31364 25.9004 9.02298 25.9004C11.5056 25.9004 12.747 23.9877 12.747 20.1624C12.747 19.0984 12.6836 18.4397 12.557 18.1864C12.4556 17.933 12.405 17.7684 12.405 17.6924C12.405 17.439 12.5823 17.3124 12.937 17.3124C13.2156 17.3124 13.583 17.4517 14.039 17.7304C14.5203 18.009 14.913 18.3637 15.217 18.7944C15.521 19.1997 15.7996 19.8584 16.053 20.7704C16.3063 21.657 16.433 22.7084 16.433 23.9244C16.433 26.939 16.0656 28.4464 15.331 28.4464C14.039 28.4464 12.747 28.4464 11.455 28.4464ZM28.73 6.71037C26.7286 9.21837 25.2846 11.7264 24.398 14.2344H24.436C27.9573 14.2344 29.9713 14.247 30.478 14.2724C31.01 14.2724 31.3013 14.247 31.352 14.1964C31.4026 14.1457 31.4406 14.0824 31.466 14.0064C31.0353 10.8904 30.6933 8.77504 30.44 7.66037C30.1866 6.52037 29.9333 5.95037 29.68 5.95037C29.4266 5.95037 29.11 6.20371 28.73 6.71037ZM25.348 24.6084L26.184 24.4564C26.4373 24.4564 26.564 24.5957 26.564 24.8744C26.564 25.761 26.3866 26.5084 26.032 27.1164C25.6773 27.7244 25.234 28.155 24.702 28.4084C23.8406 28.839 23.106 29.0544 22.498 29.0544C21.3326 29.0544 20.4586 28.6237 19.876 27.7624C19.2933 26.8757 19.002 25.5584 19.002 23.8104C19.002 22.037 19.4833 19.7444 20.446 16.9324H18.242C17.9633 16.9324 17.824 16.793 17.824 16.5144C17.824 16.2357 18.0393 15.7924 18.47 15.1844C18.9006 14.551 19.3566 14.2344 19.838 14.2344H21.548C23.3466 10.2317 25.462 6.77371 27.894 3.86037C28.5273 3.10037 29.3 2.39104 30.212 1.73237C31.1493 1.07371 31.8713 0.744374 32.378 0.744374C32.8846 0.744374 33.2646 0.972374 33.518 1.42837C34.1766 2.49237 34.9493 6.38104 35.836 13.0944C36.14 15.9824 36.6593 18.9717 37.394 22.0624C38.154 25.1277 38.8506 26.9137 39.484 27.4204C39.636 27.5217 39.712 27.6484 39.712 27.8004C39.712 28.1804 39.1673 28.535 38.078 28.8644C37.014 29.1937 36.1906 29.3584 35.608 29.3584C35.0506 29.3584 34.62 29.2824 34.316 29.1304C34.012 29.0037 33.822 28.8644 33.746 28.7124C33.29 27.7244 32.834 25.3684 32.378 21.6444L32.15 19.8584C32.0486 18.6677 31.9473 17.7684 31.846 17.1604L31.58 16.9704L23.638 16.9324C23.334 18.2244 23.182 19.3517 23.182 20.3144C23.182 21.277 23.2073 21.9864 23.258 22.4424C23.334 22.873 23.5493 23.3417 23.904 23.8484C24.2586 24.355 24.74 24.6084 25.348 24.6084ZM65.8773 19.7824C66.3586 19.7824 66.5993 20.3904 66.5993 21.6064C66.5993 22.8224 66.3713 23.9117 65.9153 24.8744C65.4593 25.837 64.902 26.5844 64.2433 27.1164C63.61 27.6484 62.888 28.079 62.0773 28.4084C59.3666 29.599 56.8333 29.5737 54.4773 28.3324C53.2866 27.699 52.3746 26.9517 51.7413 26.0904C51.108 25.2037 50.6013 24.1524 50.2213 22.9364C49.6386 21.1124 49.3473 19.1997 49.3473 17.1984C49.3473 15.197 49.5373 13.3224 49.9173 11.5744C50.2973 9.82637 50.88 8.16704 51.6653 6.59637C52.4506 5.00037 53.5653 3.72104 55.0093 2.75837C56.4533 1.79571 58.1253 1.31437 60.0253 1.31437C60.836 1.31437 61.672 1.45371 62.5333 1.73237C63.42 1.98571 64.142 2.31504 64.6993 2.72037C65.2566 3.10037 65.7506 3.69571 66.1813 4.50637C66.612 5.31704 66.8273 6.26704 66.8273 7.35637C66.8273 8.52171 66.5486 9.57304 65.9913 10.5104C65.738 10.941 65.3326 11.3337 64.7753 11.6884C64.218 12.0177 63.5593 12.1824 62.7993 12.1824C61.634 12.1824 60.8106 11.663 60.3293 10.6244C60.1266 10.219 60.0253 9.77571 60.0253 9.29438C60.0253 8.81304 60.19 8.53437 60.5193 8.45837C60.874 8.35704 61.2033 8.07837 61.5073 7.62237C61.8113 7.16637 61.9633 6.63437 61.9633 6.02637C61.9633 5.54504 61.8366 5.12704 61.5833 4.77237C61.102 4.13904 60.4053 3.82237 59.4933 3.82237C58.5813 3.82237 57.7453 4.24037 56.9853 5.07637C56.2506 5.91237 55.6933 6.96371 55.3133 8.23037C54.5533 10.7637 54.1733 13.0944 54.1733 15.2224C54.1733 17.3504 54.4646 19.0604 55.0473 20.3524C55.7566 21.9484 56.656 23.0124 57.7453 23.5444C58.4293 23.8737 59.2146 24.0384 60.1013 24.0384C61.596 24.0384 62.9386 23.367 64.1293 22.0244C64.636 21.4924 65.054 20.859 65.3833 20.1244C65.51 19.8964 65.6746 19.7824 65.8773 19.7824ZM73.4079 14.1584C72.7493 14.1837 72.2679 14.209 71.9639 14.2344C71.6853 14.2344 71.5459 14.1584 71.5459 14.0064C71.5459 13.8544 71.6219 13.7024 71.7739 13.5504C73.3953 12.0557 76.1313 11.3084 79.9819 11.3084C81.2993 11.3084 82.3379 11.4224 83.0979 11.6504L83.4779 11.7644C83.7819 11.891 83.9339 12.0304 83.9339 12.1824C83.9339 12.309 83.8453 12.4104 83.6679 12.4864C82.9839 12.689 82.3253 13.0184 81.6919 13.4744C81.0586 13.905 80.7419 14.209 80.7419 14.3864L80.9699 14.6524C81.7806 15.1084 82.4013 15.8304 82.8319 16.8184C83.2879 17.8064 83.5413 18.6804 83.5919 19.4404L83.6679 20.6184C83.6679 23.1264 82.9713 25.191 81.5779 26.8124C80.1846 28.4337 78.2846 29.2444 75.8779 29.2444C74.6619 29.2444 73.6106 29.029 72.7239 28.5984C71.8373 28.1677 71.1786 27.6864 70.7479 27.1544C70.3426 26.597 70.0133 25.9764 69.7599 25.2924C69.4559 24.355 69.3039 23.3924 69.3039 22.4044C69.3039 21.391 69.4686 20.3777 69.7979 19.3644C70.1526 18.351 70.5453 17.6037 70.9759 17.1224C71.4319 16.641 71.9386 16.2484 72.4959 15.9444C73.2053 15.5644 73.7753 15.3744 74.2059 15.3744C74.6366 15.3744 74.8519 15.463 74.8519 15.6404L74.6239 16.0204C74.0666 16.679 73.6613 17.5404 73.4079 18.6044C73.1799 19.6684 73.0659 20.6184 73.0659 21.4544C73.0659 22.265 73.1673 23.0757 73.3699 23.8864C73.5726 24.697 73.8006 25.305 74.0539 25.7104C74.3073 26.0904 74.5986 26.3817 74.9279 26.5844C75.4093 26.8884 75.9159 27.0404 76.4479 27.0404C76.9799 27.0404 77.4993 26.8377 78.0059 26.4324C78.5126 26.0017 78.8799 25.4444 79.1079 24.7604C79.5639 23.4937 79.7919 22.189 79.7919 20.8464C79.7919 18.7184 79.2473 17.0717 78.1579 15.9064C77.0939 14.741 75.5106 14.1584 73.4079 14.1584ZM86.5296 28.7504C86.9856 26.0144 87.2136 22.7337 87.2136 18.9084C87.2136 15.083 87.0996 12.6004 86.8716 11.4604C86.8716 11.131 87.2516 10.9664 88.0116 10.9664C89.177 10.9664 89.9496 11.4097 90.3296 12.2964C90.355 12.3724 90.4183 12.4104 90.5196 12.4104C90.621 12.4104 90.697 12.385 90.7476 12.3344C91.533 11.5237 92.749 11.1184 94.3956 11.1184C96.0423 11.1184 97.347 11.5364 98.3096 12.3724C99.2723 13.2084 99.7536 14.4244 99.7536 16.0204C99.7536 16.983 99.665 18.351 99.4876 20.1244C99.3356 21.8977 99.2596 23.215 99.2596 24.0764C99.2596 26.1284 99.6016 27.6104 100.286 28.5224C100.387 28.649 100.438 28.7757 100.438 28.9024C100.438 29.2317 100.083 29.3964 99.3736 29.3964C96.2323 29.3964 94.6616 28.003 94.6616 25.2164C94.6616 24.1524 94.9023 22.6704 95.3836 20.7704C95.865 18.8704 96.1056 17.4264 96.1056 16.4384C96.1056 14.4117 95.2696 13.3984 93.5976 13.3984C92.787 13.3984 92.1663 13.639 91.7356 14.1204C91.3303 14.6017 91.1023 15.159 91.0516 15.7924C91.001 16.4004 90.9756 17.5657 90.9756 19.2884C90.9756 21.923 91.0643 24.2157 91.2416 26.1664L91.3176 27.0024C91.3176 27.7117 90.849 28.2564 89.9116 28.6364C88.9996 29.0417 88.2016 29.2444 87.5176 29.2444C86.859 29.2444 86.5296 29.0797 86.5296 28.7504ZM114.259 23.2784C114.259 24.3677 114.044 25.3177 113.613 26.1284C113.208 26.939 112.739 27.5344 112.207 27.9144C111.675 28.2944 111.042 28.5984 110.307 28.8264C109.345 29.1304 108.471 29.2824 107.685 29.2824C106.039 29.2824 104.671 28.9657 103.581 28.3324C102.492 27.6737 101.947 26.635 101.947 25.2164C101.947 24.3804 102.175 23.6964 102.631 23.1644C103.341 22.379 104.189 21.9864 105.177 21.9864C105.481 21.9864 105.633 22.1257 105.633 22.4044C105.633 22.4297 105.57 22.6324 105.443 23.0124C105.342 23.367 105.291 23.823 105.291 24.3804C105.291 24.9377 105.507 25.4317 105.937 25.8624C106.393 26.293 106.938 26.5084 107.571 26.5084C108.205 26.5084 108.711 26.407 109.091 26.2044C109.471 25.9764 109.737 25.6977 109.889 25.3684C110.117 24.9124 110.231 24.4817 110.231 24.0764C110.231 23.3417 109.864 22.7084 109.129 22.1764C108.395 21.6444 107.584 21.2264 106.697 20.9224C105.811 20.6184 105 20.1117 104.265 19.4024C103.531 18.693 103.163 17.8064 103.163 16.7424C103.163 14.9184 103.733 13.5504 104.873 12.6384C106.039 11.7264 107.609 11.2704 109.585 11.2704C110.447 11.2704 111.346 11.397 112.283 11.6504C113.246 11.8784 113.727 12.2837 113.727 12.8664C113.727 13.4237 113.626 13.943 113.423 14.4244C113.246 14.9057 113.018 15.1464 112.739 15.1464C112.587 15.1464 112.486 15.0957 112.435 14.9944C112.385 14.8677 112.296 14.7284 112.169 14.5764C112.043 14.4244 111.739 14.2344 111.257 14.0064C110.776 13.753 110.358 13.6264 110.003 13.6264C109.674 13.6264 109.446 13.639 109.319 13.6644C109.218 13.6644 109.028 13.7024 108.749 13.7784C108.471 13.829 108.217 13.9177 107.989 14.0444C107.407 14.3737 107.115 14.855 107.115 15.4884C107.115 15.8937 107.204 16.1977 107.381 16.4004C107.559 16.5777 107.698 16.717 107.799 16.8184C107.901 16.9197 108.078 17.0464 108.331 17.1984C108.585 17.325 108.762 17.4137 108.863 17.4644C108.965 17.515 109.193 17.629 109.547 17.8064C109.902 17.9584 110.13 18.0597 110.231 18.1104C112.917 19.377 114.259 21.0997 114.259 23.2784ZM129.925 11.5744C129.469 14.3104 129.241 17.7937 129.241 22.0244C129.241 25.1404 129.368 27.1924 129.621 28.1804L129.773 28.6744C129.773 29.0037 129.494 29.1684 128.937 29.1684C126.986 29.1684 125.872 28.6237 125.593 27.5344C125.568 27.4077 125.504 27.3444 125.403 27.3444C125.327 27.3444 125.251 27.395 125.175 27.4964C124.39 28.535 123.174 29.0544 121.527 29.0544C120.615 29.0544 119.665 28.8264 118.677 28.3704C118.069 28.0917 117.575 27.6104 117.195 26.9264C116.815 26.217 116.625 25.3557 116.625 24.3424L117.195 16.0204C117.195 14.2724 117.018 13.031 116.663 12.2964C116.536 12.0177 116.473 11.8404 116.473 11.7644C116.473 11.6124 116.536 11.511 116.663 11.4604C117.068 11.3337 117.588 11.2704 118.221 11.2704C120.678 11.2704 121.907 12.2837 121.907 14.3104C121.907 14.9437 121.641 16.3877 121.109 18.6424C120.602 20.897 120.349 22.5057 120.349 23.4684C120.349 24.4057 120.552 25.1277 120.957 25.6344C121.388 26.141 121.97 26.3944 122.705 26.3944C123.465 26.3944 124.06 26.1284 124.491 25.5964C124.922 25.0644 125.175 24.5324 125.251 24.0004L125.365 23.2024C125.466 22.3157 125.517 20.7577 125.517 18.5284C125.517 16.299 125.441 14.893 125.289 14.3104C125.162 13.7024 125.099 13.3224 125.099 13.1704C125.099 12.537 125.606 12.043 126.619 11.6884C127.632 11.3084 128.544 11.1184 129.355 11.1184C129.735 11.1184 129.925 11.2704 129.925 11.5744ZM137.892 6.74837L137.664 20.6944C137.664 25.0517 137.803 27.661 138.082 28.5224C138.158 28.6744 138.196 28.8264 138.196 28.9784C138.196 29.2824 137.829 29.4344 137.094 29.4344C136.359 29.4344 135.536 29.2444 134.624 28.8644C133.737 28.5097 133.294 28.041 133.294 27.4584C133.801 23.9117 134.054 19.1744 134.054 13.2464L133.902 7.43237C133.851 6.72304 133.699 6.11504 133.446 5.60837C133.218 5.10171 132.99 4.77237 132.762 4.62037L132.458 4.43037C132.281 4.32904 132.192 4.21504 132.192 4.08837C132.192 3.73371 132.737 3.30304 133.826 2.79637C134.941 2.26437 136.017 1.99837 137.056 1.99837C137.461 1.99837 137.689 2.13771 137.74 2.41637C137.841 3.07504 137.892 4.51904 137.892 6.74837ZM140.911 13.6644L141.025 12.1444C141.05 11.9164 141.227 11.8024 141.557 11.8024H142.887L142.735 8.76237V8.61037C142.735 8.02771 143.178 7.47037 144.065 6.93837C144.951 6.40637 145.762 6.14038 146.497 6.14038C146.725 6.14038 146.839 6.24171 146.839 6.44437V6.48237C146.737 7.16637 146.636 8.92704 146.535 11.7644C147.649 11.7644 148.359 11.739 148.663 11.6884C148.967 11.6377 149.131 11.6124 149.157 11.6124C149.334 11.6124 149.423 11.7644 149.423 12.0684C149.423 12.3724 149.283 12.765 149.005 13.2464C148.726 13.7024 148.422 13.943 148.093 13.9684H146.497C146.471 14.8297 146.459 16.2864 146.459 18.3384C146.459 20.365 146.471 22.037 146.497 23.3544C146.547 24.6717 146.598 25.6724 146.649 26.3564C146.699 27.015 146.75 27.547 146.801 27.9524C146.877 28.3577 146.927 28.649 146.953 28.8264C147.003 29.0037 147.029 29.1177 147.029 29.1684C147.029 29.4217 146.864 29.561 146.535 29.5864C145.547 29.5864 144.559 29.447 143.571 29.1684C142.608 28.8897 142.127 28.4084 142.127 27.7244C142.659 23.4684 142.925 18.8957 142.925 14.0064C142.241 14.0064 141.721 14.0317 141.367 14.0824H141.329C141.101 14.0824 140.961 13.943 140.911 13.6644ZM154.893 8.15437L153.981 8.11637C153.297 8.11637 152.854 8.28104 152.651 8.61037C152.6 8.68637 152.537 8.72437 152.461 8.72437C152.132 8.72437 151.967 8.16704 151.967 7.05237C151.967 5.91237 152.132 5.19037 152.461 4.88637C152.816 4.58237 153.411 4.43037 154.247 4.43037C155.108 4.43037 155.691 4.58237 155.995 4.88637C156.299 5.16504 156.451 5.64637 156.451 6.33037C156.451 7.01437 156.337 7.49571 156.109 7.77437C155.881 8.02771 155.476 8.15437 154.893 8.15437ZM151.853 27.3444L152.271 18.4904C152.271 16.3877 152.03 14.9564 151.549 14.1964C151.397 13.943 151.22 13.753 151.017 13.6264C150.865 13.5757 150.789 13.4744 150.789 13.3224C150.789 12.8664 151.435 12.423 152.727 11.9924C154.019 11.5617 154.956 11.3464 155.539 11.3464C156.147 11.3464 156.464 11.4984 156.489 11.8024C156.489 12.309 156.413 13.753 156.261 16.1344C156.134 18.4904 156.071 20.973 156.071 23.5824C156.071 26.1917 156.223 27.813 156.527 28.4464C156.603 28.573 156.641 28.6997 156.641 28.8264C156.641 29.1557 156.16 29.3204 155.197 29.3204C154.234 29.3204 153.246 29.067 152.233 28.5604C151.98 28.4337 151.853 28.0284 151.853 27.3444ZM159.957 28.7504C160.413 26.0144 160.641 22.7337 160.641 18.9084C160.641 15.083 160.527 12.6004 160.299 11.4604C160.299 11.131 160.679 10.9664 161.439 10.9664C162.605 10.9664 163.377 11.4097 163.757 12.2964C163.783 12.3724 163.846 12.4104 163.947 12.4104C164.049 12.4104 164.125 12.385 164.175 12.3344C164.961 11.5237 166.177 11.1184 167.823 11.1184C169.47 11.1184 170.775 11.5364 171.737 12.3724C172.7 13.2084 173.181 14.4244 173.181 16.0204C173.181 16.983 173.093 18.351 172.915 20.1244C172.763 21.8977 172.687 23.215 172.687 24.0764C172.687 26.1284 173.029 27.6104 173.713 28.5224C173.815 28.649 173.865 28.7757 173.865 28.9024C173.865 29.2317 173.511 29.3964 172.801 29.3964C169.66 29.3964 168.089 28.003 168.089 25.2164C168.089 24.1524 168.33 22.6704 168.811 20.7704C169.293 18.8704 169.533 17.4264 169.533 16.4384C169.533 14.4117 168.697 13.3984 167.025 13.3984C166.215 13.3984 165.594 13.639 165.163 14.1204C164.758 14.6017 164.53 15.159 164.479 15.7924C164.429 16.4004 164.403 17.5657 164.403 19.2884C164.403 21.923 164.492 24.2157 164.669 26.1664L164.745 27.0024C164.745 27.7117 164.277 28.2564 163.339 28.6364C162.427 29.0417 161.629 29.2444 160.945 29.2444C160.287 29.2444 159.957 29.0797 159.957 28.7504ZM178.643 13.1704C179.2 12.5877 179.935 12.1064 180.847 11.7264C181.759 11.321 182.633 11.1184 183.469 11.1184C184.305 11.1184 185.154 11.3084 186.015 11.6884C186.116 11.6884 186.192 11.663 186.243 11.6124C186.902 10.9537 187.864 10.6244 189.131 10.6244C189.435 10.6244 189.587 10.7637 189.587 11.0424C189.587 11.0677 189.562 11.1817 189.511 11.3844C189.46 11.587 189.397 11.891 189.321 12.2964C189.245 12.6764 189.182 13.145 189.131 13.7024C188.954 15.1464 188.852 16.7424 188.827 18.4904C188.827 20.2384 188.827 21.9864 188.827 23.7344L188.941 31.7144C188.941 34.273 188.282 36.401 186.965 38.0984C186.433 38.7824 185.622 39.3777 184.533 39.8844C183.469 40.391 182.215 40.6444 180.771 40.6444C180.442 40.4417 180.277 40.239 180.277 40.0364C180.277 39.8337 180.416 39.669 180.695 39.5424C182.291 38.8077 183.431 37.0597 184.115 34.2984C184.799 31.5624 185.141 27.395 185.141 21.7964L185.065 16.4764L184.951 13.8924C184.951 13.6644 184.596 13.4997 183.887 13.3984C182.975 13.3984 182.202 13.7024 181.569 14.3104C180.961 14.893 180.543 15.6657 180.315 16.6284C179.91 18.1737 179.707 19.5164 179.707 20.6564C179.707 21.771 179.884 22.759 180.239 23.6204C180.619 24.4817 181.265 24.9124 182.177 24.9124C182.43 24.9124 182.658 24.8617 182.861 24.7604C183.089 24.659 183.241 24.6084 183.317 24.6084C183.57 24.6084 183.697 24.8617 183.697 25.3684C183.697 25.875 183.659 26.293 183.583 26.6224C183.507 26.9264 183.355 27.2684 183.127 27.6484C182.62 28.4844 181.632 28.9024 180.163 28.9024C178.694 28.9024 177.642 28.3704 177.009 27.3064C176.35 26.217 175.97 25.2417 175.869 24.3804C175.717 23.0884 175.641 22.2397 175.641 21.8344C175.641 21.429 175.641 21.1124 175.641 20.8844C175.666 20.631 175.73 20.1497 175.831 19.4404C175.958 18.7057 176.11 18.0217 176.287 17.3884C176.49 16.7297 176.794 16.0077 177.199 15.2224C177.604 14.4117 178.086 13.7277 178.643 13.1704ZM203.865 23.2784C203.865 24.3677 203.65 25.3177 203.219 26.1284C202.814 26.939 202.345 27.5344 201.813 27.9144C201.281 28.2944 200.648 28.5984 199.913 28.8264C198.95 29.1304 198.076 29.2824 197.291 29.2824C195.644 29.2824 194.276 28.9657 193.187 28.3324C192.098 27.6737 191.553 26.635 191.553 25.2164C191.553 24.3804 191.781 23.6964 192.237 23.1644C192.946 22.379 193.795 21.9864 194.783 21.9864C195.087 21.9864 195.239 22.1257 195.239 22.4044C195.239 22.4297 195.176 22.6324 195.049 23.0124C194.948 23.367 194.897 23.823 194.897 24.3804C194.897 24.9377 195.112 25.4317 195.543 25.8624C195.999 26.293 196.544 26.5084 197.177 26.5084C197.81 26.5084 198.317 26.407 198.697 26.2044C199.077 25.9764 199.343 25.6977 199.495 25.3684C199.723 24.9124 199.837 24.4817 199.837 24.0764C199.837 23.3417 199.47 22.7084 198.735 22.1764C198 21.6444 197.19 21.2264 196.303 20.9224C195.416 20.6184 194.606 20.1117 193.871 19.4024C193.136 18.693 192.769 17.8064 192.769 16.7424C192.769 14.9184 193.339 13.5504 194.479 12.6384C195.644 11.7264 197.215 11.2704 199.191 11.2704C200.052 11.2704 200.952 11.397 201.889 11.6504C202.852 11.8784 203.333 12.2837 203.333 12.8664C203.333 13.4237 203.232 13.943 203.029 14.4244C202.852 14.9057 202.624 15.1464 202.345 15.1464C202.193 15.1464 202.092 15.0957 202.041 14.9944C201.99 14.8677 201.902 14.7284 201.775 14.5764C201.648 14.4244 201.344 14.2344 200.863 14.0064C200.382 13.753 199.964 13.6264 199.609 13.6264C199.28 13.6264 199.052 13.639 198.925 13.6644C198.824 13.6644 198.634 13.7024 198.355 13.7784C198.076 13.829 197.823 13.9177 197.595 14.0444C197.012 14.3737 196.721 14.855 196.721 15.4884C196.721 15.8937 196.81 16.1977 196.987 16.4004C197.164 16.5777 197.304 16.717 197.405 16.8184C197.506 16.9197 197.684 17.0464 197.937 17.1984C198.19 17.325 198.368 17.4137 198.469 17.4644C198.57 17.515 198.798 17.629 199.153 17.8064C199.508 17.9584 199.736 18.0597 199.837 18.1104C202.522 19.377 203.865 21.0997 203.865 23.2784Z" fill="white"/>
</svg>
