<svg width="270" height="3" viewBox="0 0 270 3" fill="none" xmlns="http://www.w3.org/2000/svg">
<mask id="path-1-inside-1_90_273" fill="white">
<path d="M0.65625 0.93457H269.775V2.07491H0.65625V0.93457Z"/>
</mask>
<path d="M269.775 0.93457V0.364403H261.365V0.93457V1.50474H269.775V0.93457ZM244.545 0.93457V0.364403H227.725V0.93457V1.50474H244.545V0.93457ZM210.905 0.93457V0.364403H194.086V0.93457V1.50474H210.905V0.93457ZM177.266 0.93457V0.364403H160.446V0.93457V1.50474H177.266V0.93457ZM143.626 0.93457V0.364403H126.806V0.93457V1.50474H143.626V0.93457ZM109.986 0.93457V0.364403H93.1659V0.93457V1.50474H109.986V0.93457ZM76.3459 0.93457V0.364403H59.526V0.93457V1.50474H76.3459V0.93457ZM42.706 0.93457V0.364403H25.8861V0.93457V1.50474H42.706V0.93457ZM9.06616 0.93457V0.364403H0.65625V0.93457V1.50474H9.06616V0.93457ZM269.775 0.93457V-0.205764H261.365V0.93457V2.07491H269.775V0.93457ZM244.545 0.93457V-0.205764H227.725V0.93457V2.07491H244.545V0.93457ZM210.905 0.93457V-0.205764H194.086V0.93457V2.07491H210.905V0.93457ZM177.266 0.93457V-0.205764H160.446V0.93457V2.07491H177.266V0.93457ZM143.626 0.93457V-0.205764H126.806V0.93457V2.07491H143.626V0.93457ZM109.986 0.93457V-0.205764H93.1659V0.93457V2.07491H109.986V0.93457ZM76.3459 0.93457V-0.205764H59.526V0.93457V2.07491H76.3459V0.93457ZM42.706 0.93457V-0.205764H25.8861V0.93457V2.07491H42.706V0.93457ZM9.06616 0.93457V-0.205764H0.65625V0.93457V2.07491H9.06616V0.93457Z" fill="black" mask="url(#path-1-inside-1_90_273)"/>
</svg>
