<svg width="25" height="25" viewBox="0 0 25 25" fill="none" xmlns="http://www.w3.org/2000/svg">
<path d="M12.6731 21.2966C12.5099 21.4138 12.314 21.4768 12.1131 21.4768C11.9121 21.4768 11.7163 21.4138 11.5531 21.2966C6.72406 17.8546 1.59906 10.7746 6.78006 5.65856C8.2024 4.25941 10.1179 3.47569 12.1131 3.47656C14.1131 3.47656 16.0321 4.26156 17.4461 5.65756C22.6271 10.7736 17.5021 17.8526 12.6731 21.2966Z" stroke="white" stroke-width="1.5" stroke-linecap="round" stroke-linejoin="round"/>
<path d="M12.1133 12.4766C12.6437 12.4766 13.1524 12.2658 13.5275 11.8908C13.9026 11.5157 14.1133 11.007 14.1133 10.4766C14.1133 9.94613 13.9026 9.43742 13.5275 9.06235C13.1524 8.68728 12.6437 8.47656 12.1133 8.47656C11.5828 8.47656 11.0741 8.68728 10.6991 9.06235C10.324 9.43742 10.1133 9.94613 10.1133 10.4766C10.1133 11.007 10.324 11.5157 10.6991 11.8908C11.0741 12.2658 11.5828 12.4766 12.1133 12.4766Z" stroke="white" stroke-width="1.5" stroke-linecap="round" stroke-linejoin="round"/>
</svg>
