<svg width="23" height="30" viewBox="0 0 23 30" fill="none" xmlns="http://www.w3.org/2000/svg">
<path d="M15.7886 23.7087V24.4546H1.95143V4.57694H15.7886V10.2659C15.97 10.182 16.1676 10.1392 16.3674 10.1407H17.4051V2.02023C17.4051 1.02871 16.5712 0.17647 15.5566 0.17647H2.17873C1.69011 0.177712 1.22186 0.372364 0.87636 0.717868C0.530856 1.06337 0.336203 1.53162 0.334961 2.02023V27.9798C0.335459 28.4686 0.529873 28.9373 0.875538 29.283C1.2212 29.6286 1.68988 29.823 2.17873 29.8235H15.5566C16.0457 29.8225 16.5146 29.6281 16.8609 29.2827C17.2072 28.9373 17.4028 28.4689 17.4051 27.9798V23.8941H16.4832C16.2392 23.896 15.9992 23.8319 15.7886 23.7087ZM7.6912 1.91341H10.0441C10.3039 1.91341 10.5077 2.12188 10.5077 2.37694C10.5077 2.632 10.3039 2.84 10.0441 2.84H7.6912C7.43614 2.84 7.22767 2.63153 7.22767 2.37694C7.22767 2.12235 7.43614 1.91341 7.6912 1.91341ZM10.4008 27.776H7.33449C7.27357 27.7763 7.21319 27.7645 7.15685 27.7414C7.1005 27.7182 7.0493 27.6841 7.0062 27.6411C6.9631 27.598 6.92896 27.5469 6.90575 27.4905C6.88253 27.4342 6.87071 27.3739 6.87096 27.3129C6.87096 27.0579 7.07943 26.8494 7.33449 26.8494H10.4008C10.6606 26.8494 10.8644 27.0579 10.8644 27.3129C10.8649 27.3739 10.8533 27.4345 10.8302 27.4909C10.8071 27.5474 10.773 27.5987 10.7298 27.6418C10.6867 27.6849 10.6353 27.719 10.5789 27.742C10.5224 27.7651 10.4618 27.7766 10.4008 27.776Z" fill="#486FEB"/>
<path d="M11.7277 11.8485C11.7709 11.8913 11.8222 11.9252 11.8785 11.9482C11.9348 11.9712 11.9951 11.9829 12.0559 11.9825C12.1168 11.9822 12.1769 11.97 12.233 11.9464C12.2891 11.9228 12.34 11.8884 12.3828 11.8452L14.3188 9.89129C14.4048 9.80456 14.4531 9.68734 14.4531 9.56517C14.4531 9.44301 14.4048 9.32579 14.3188 9.23906L12.3828 7.28518C12.2953 7.20318 12.1794 7.15829 12.0595 7.15994C11.9396 7.16159 11.825 7.20965 11.7397 7.29402C11.6545 7.37839 11.6053 7.49251 11.6024 7.61239C11.5996 7.73228 11.6433 7.84861 11.7244 7.93694L13.3376 9.56517L11.7244 11.1934C11.6816 11.2366 11.6477 11.2879 11.6247 11.3442C11.6017 11.4005 11.59 11.4608 11.5903 11.5216C11.5906 11.5825 11.6029 11.6426 11.6265 11.6987C11.6501 11.7548 11.6845 11.8057 11.7277 11.8485ZM6.01006 7.28235C5.96694 7.2394 5.91575 7.20538 5.85944 7.18227C5.80313 7.15915 5.74281 7.14738 5.68195 7.14765C5.62108 7.14791 5.56086 7.16019 5.50475 7.18379C5.44865 7.2074 5.39776 7.24185 5.355 7.28518L3.41947 9.23906C3.33343 9.32579 3.28516 9.44301 3.28516 9.56517C3.28516 9.68734 3.33343 9.80456 3.41947 9.89129L5.355 11.8452C5.44143 11.9325 5.559 11.9819 5.68185 11.9825C5.8047 11.9831 5.92276 11.9349 6.01006 11.8485C6.09737 11.762 6.14676 11.6445 6.14738 11.5216C6.14799 11.3988 6.09979 11.2807 6.01336 11.1934L4.40065 9.56517L6.01336 7.93694C6.05617 7.89372 6.09005 7.84249 6.11305 7.78617C6.13606 7.72986 6.14774 7.66956 6.14744 7.60873C6.14713 7.54789 6.13484 7.48772 6.11127 7.43164C6.0877 7.37555 6.05331 7.32514 6.01006 7.28235ZM9.61571 5.97317L6.89665 12.8155C6.87422 12.8721 6.86314 12.9325 6.86406 12.9933C6.86497 13.0541 6.87786 13.1142 6.90198 13.17C6.9261 13.2259 6.96098 13.2764 7.00464 13.3188C7.0483 13.3612 7.09987 13.3945 7.15642 13.4169C7.21296 13.4394 7.27337 13.4504 7.3342 13.4495C7.39502 13.4486 7.45507 13.4357 7.51092 13.4116C7.56677 13.3875 7.61732 13.3526 7.65968 13.309C7.70204 13.2653 7.73539 13.2137 7.75783 13.1572L10.4769 6.31482C10.4993 6.25828 10.5104 6.19787 10.5095 6.13704C10.5086 6.07621 10.4957 6.01616 10.4716 5.96032C10.4474 5.90447 10.4126 5.85392 10.3689 5.81156C10.3252 5.76919 10.2737 5.73584 10.2171 5.71341C10.1606 5.69098 10.1002 5.6799 10.0393 5.68082C9.97851 5.68173 9.91846 5.69461 9.86262 5.71874C9.80677 5.74286 9.75622 5.77774 9.71386 5.8214C9.67149 5.86506 9.63814 5.91663 9.61571 5.97317ZM22.4576 15.9609L21.4402 15.8461C21.33 15.4102 21.1547 14.9935 20.9202 14.6099V14.6061L21.5221 13.7576C21.6585 13.5647 21.6369 13.3007 21.4694 13.1332L20.7404 12.4047C20.656 12.3202 20.5433 12.2698 20.424 12.2631C20.3048 12.2564 20.1872 12.2939 20.0938 12.3685L19.2957 13.0056C18.9086 12.7764 18.4891 12.6066 18.0515 12.5021L17.8783 11.4715C17.8594 11.3581 17.8008 11.255 17.7129 11.1807C17.6251 11.1065 17.5138 11.0658 17.3988 11.0659H16.3658C16.1183 11.0659 15.9108 11.2518 15.883 11.4974L15.7677 12.5186C15.3326 12.6306 14.9163 12.8058 14.5319 13.0386L13.6802 12.4334C13.5865 12.3668 13.4722 12.3357 13.3577 12.3454C13.2432 12.3551 13.1359 12.4052 13.0548 12.4866L12.3291 13.2146C12.155 13.3896 12.139 13.6673 12.2929 13.8602L12.9315 14.6631C12.6993 15.0492 12.5282 15.4689 12.4242 15.9073L11.3969 16.0805C11.163 16.12 10.9922 16.3224 10.9922 16.5595V17.5892C10.9922 17.8362 11.1776 18.0442 11.4228 18.072L12.4364 18.1868C12.5512 18.6292 12.7272 19.0461 12.9602 19.4268V19.4311L12.3597 20.2748C12.2223 20.4678 12.2444 20.7327 12.4115 20.9002L13.1409 21.6292C13.315 21.8033 13.5936 21.8193 13.7865 21.6654L14.5894 21.0273C14.9754 21.2558 15.3933 21.4256 15.8294 21.5308L16.0025 22.5614C16.0421 22.7958 16.2444 22.9671 16.4816 22.9671H17.515C17.7621 22.9671 17.9701 22.7812 17.9978 22.5355L18.1126 21.5144C18.5491 21.4059 18.9662 21.2305 19.3489 20.9944L20.2007 21.5995C20.3936 21.7369 20.6585 21.7144 20.8261 21.5464L21.5517 20.8179C21.7258 20.6433 21.7418 20.3661 21.5879 20.1727L20.9527 19.3736C21.1812 18.9848 21.3509 18.5642 21.4562 18.1256L22.4835 17.9525C22.7174 17.9129 22.8887 17.7106 22.8887 17.4734V16.4438C22.8887 16.1967 22.7032 15.9887 22.4576 15.9609ZM16.9423 19.0136C16.4126 19.0136 15.9046 18.8032 15.5301 18.4287C15.1555 18.0541 14.9451 17.5462 14.9451 17.0165C14.9459 16.487 15.1565 15.9795 15.5309 15.6051C15.9053 15.2307 16.4128 15.02 16.9423 15.0193C17.4713 15.0202 17.9784 15.231 18.3521 15.6055C18.7257 15.9799 18.9355 16.4874 18.9352 17.0165C18.9357 17.2785 18.8844 17.5381 18.7845 17.7803C18.6846 18.0225 18.5378 18.2427 18.3527 18.4282C18.1677 18.6136 17.9478 18.7608 17.7058 18.8613C17.4638 18.9617 17.2043 19.0135 16.9423 19.0136Z" fill="#486FEB"/>
</svg>
