<svg width="55" height="55" viewBox="0 0 55 55" fill="none" xmlns="http://www.w3.org/2000/svg">
<path d="M30.2742 7.66974H25.213C24.9893 7.66974 24.7747 7.58086 24.6166 7.42267C24.4584 7.26448 24.3695 7.04992 24.3695 6.8262C24.3695 6.60248 24.4584 6.38793 24.6166 6.22973C24.7747 6.07154 24.9893 5.98267 25.213 5.98267H30.2742C30.4979 5.98267 30.7125 6.07154 30.8707 6.22973C31.0289 6.38793 31.1178 6.60248 31.1178 6.8262C31.1178 7.04992 31.0289 7.26448 30.8707 7.42267C30.7125 7.58086 30.4979 7.66974 30.2742 7.66974ZM37.0225 53.2206H18.4647C17.3466 53.2193 16.2746 52.7745 15.4839 51.9838C14.6932 51.1931 14.2484 50.1211 14.2471 49.0029V20.3228C14.2471 20.099 14.3359 19.8845 14.4941 19.7263C14.6523 19.5681 14.8669 19.4792 15.0906 19.4792C15.3143 19.4792 15.5289 19.5681 15.6871 19.7263C15.8453 19.8845 15.9341 20.099 15.9341 20.3228V49.0029C15.9341 50.3981 17.0695 51.5335 18.4647 51.5335H37.0225C38.4177 51.5335 39.5531 50.3981 39.5531 49.0029V20.3228C39.5531 20.099 39.642 19.8845 39.8002 19.7263C39.9584 19.5681 40.1729 19.4792 40.3966 19.4792C40.6204 19.4792 40.8349 19.5681 40.9931 19.7263C41.1513 19.8845 41.2402 20.099 41.2402 20.3228V49.0029C41.2402 51.3277 39.349 53.2206 37.0225 53.2206Z" fill="black"/>
<path d="M40.3968 26.2276C40.1731 26.2276 39.9585 26.1387 39.8003 25.9805C39.6422 25.8224 39.5533 25.6078 39.5533 25.3841V6.82632C39.5533 5.43111 38.4179 4.29571 37.0227 4.29571H18.4649C17.0697 4.29571 15.9343 5.43111 15.9343 6.82632V25.3841C15.9343 25.6078 15.8454 25.8224 15.6872 25.9805C15.5291 26.1387 15.3145 26.2276 15.0908 26.2276C14.8671 26.2276 14.6525 26.1387 14.4943 25.9805C14.3361 25.8224 14.2472 25.6078 14.2472 25.3841V6.82632C14.2472 4.50153 16.1384 2.60864 18.4649 2.60864H37.0227C39.3491 2.60864 41.2404 4.50153 41.2404 6.82632V25.3841C41.2404 25.6078 41.1515 25.8224 40.9933 25.9805C40.8351 26.1387 40.6205 26.2276 40.3968 26.2276ZM45.458 11.1283C44.9924 11.1283 44.6145 10.8348 44.6145 10.3692V10.2005C44.6145 9.97674 44.7034 9.76218 44.8616 9.60399C45.0197 9.44579 45.2343 9.35692 45.458 9.35692C45.6817 9.35692 45.8963 9.44579 46.0545 9.60399C46.2127 9.76218 46.3016 9.97674 46.3016 10.2005C46.3016 10.6661 45.9237 11.1283 45.458 11.1283ZM45.458 14.5025C44.9924 14.5025 44.6145 14.2089 44.6145 13.7433V13.5746C44.6145 13.3509 44.7034 13.1363 44.8616 12.9781C45.0197 12.8199 45.2343 12.7311 45.458 12.7311C45.6817 12.7311 45.8963 12.8199 46.0545 12.9781C46.2127 13.1363 46.3016 13.3509 46.3016 13.5746C46.3016 14.0402 45.9237 14.5025 45.458 14.5025ZM45.458 17.8766C44.9924 17.8766 44.6145 17.5831 44.6145 17.1174V16.9487C44.6145 16.725 44.7034 16.5105 44.8616 16.3523C45.0197 16.1941 45.2343 16.1052 45.458 16.1052C45.6817 16.1052 45.8963 16.1941 46.0545 16.3523C46.2127 16.5105 46.3016 16.725 46.3016 16.9487C46.3016 17.4144 45.9237 17.8766 45.458 17.8766ZM10.0296 39.6398C9.56394 39.6398 9.18604 39.3463 9.18604 38.8806V38.7119C9.18604 38.4882 9.27491 38.2737 9.4331 38.1155C9.59129 37.9573 9.80585 37.8684 10.0296 37.8684C10.2533 37.8684 10.4678 37.9573 10.626 38.1155C10.7842 38.2737 10.8731 38.4882 10.8731 38.7119C10.8731 39.1776 10.4952 39.6398 10.0296 39.6398ZM10.0296 43.014C9.56394 43.014 9.18604 42.7204 9.18604 42.2548V42.0861C9.18604 41.8623 9.27491 41.6478 9.4331 41.4896C9.59129 41.3314 9.80585 41.2425 10.0296 41.2425C10.2533 41.2425 10.4678 41.3314 10.626 41.4896C10.7842 41.6478 10.8731 41.8623 10.8731 42.0861C10.8731 42.5517 10.4952 43.014 10.0296 43.014ZM10.0296 46.3881C9.56394 46.3881 9.18604 46.0945 9.18604 45.6289V45.4602C9.18604 45.2365 9.27491 45.0219 9.4331 44.8637C9.59129 44.7055 9.80585 44.6167 10.0296 44.6167C10.2533 44.6167 10.4678 44.7055 10.626 44.8637C10.7842 45.0219 10.8731 45.2365 10.8731 45.4602C10.8731 45.9258 10.4952 46.3881 10.0296 46.3881Z" fill="black"/>
<path d="M42.6588 46.4722C42.533 46.4723 42.4088 46.4442 42.2952 46.39C42.1816 46.3357 42.0817 46.2568 42.0026 46.159C41.9235 46.0611 41.8673 45.9468 41.8381 45.8244C41.8089 45.702 41.8074 45.5746 41.8339 45.4516L42.3906 42.8703C42.4238 42.7153 42.5002 42.5729 42.611 42.4594C42.7217 42.346 42.8623 42.2662 43.0165 42.2293C43.8305 42.0297 44.6086 41.7047 45.3227 41.2659C45.4574 41.1838 45.6124 41.141 45.7702 41.1425C45.9279 41.144 46.0821 41.1897 46.2152 41.2744L47.8854 42.3423L48.9196 41.2997L47.8516 39.643C47.7659 39.5098 47.7194 39.3552 47.7173 39.1968C47.7152 39.0384 47.7577 38.8826 47.8398 38.7472C48.2787 38.0333 48.6032 37.2551 48.8015 36.4409C48.8386 36.2872 48.918 36.147 49.0307 36.036C49.1434 35.9251 49.2849 35.848 49.4392 35.8133L51.3624 35.3865V33.9407L49.4409 33.5139C49.2866 33.4792 49.1451 33.4021 49.0324 33.2912C48.9197 33.1802 48.8403 33.04 48.8032 32.8863C48.6042 32.0723 48.2797 31.2943 47.8415 30.58C47.7587 30.4452 47.7156 30.2897 47.7174 30.1315C47.7192 29.9733 47.7658 29.8188 47.8516 29.6859L48.9212 28.014L47.8888 26.9815L46.2169 28.0511C46.0839 28.1362 45.9297 28.1822 45.7719 28.1837C45.614 28.1851 45.4589 28.1421 45.3244 28.0596C44.61 27.6214 43.832 27.2965 43.0182 27.0963C42.864 27.0593 42.7234 26.9795 42.6127 26.8661C42.5019 26.7527 42.4255 26.6102 42.3923 26.4552L41.9773 24.5403H41.24C41.0163 24.5403 40.8017 24.4515 40.6435 24.2933C40.4854 24.1351 40.3965 23.9205 40.3965 23.6968C40.3965 23.4731 40.4854 23.2585 40.6435 23.1003C40.8017 22.9421 41.0163 22.8533 41.24 22.8533H42.6572C42.8499 22.8536 43.0366 22.9199 43.1864 23.0411C43.3362 23.1624 43.44 23.3313 43.4804 23.5197L43.9309 25.5998C44.5484 25.7871 45.154 26.0401 45.7377 26.3556L47.5497 25.1966C47.7117 25.0931 47.9042 25.048 48.0954 25.0689C48.2865 25.0897 48.4648 25.1753 48.6007 25.3113L50.5931 27.3021C50.7289 27.4382 50.8142 27.6165 50.8347 27.8077C50.8553 27.9988 50.8099 28.1913 50.7062 28.3531L49.5471 30.165C49.8626 30.7504 50.1157 31.3561 50.303 31.9753L52.3865 32.4375C52.7745 32.5236 53.0495 32.8677 53.0495 33.2625V36.063C53.0494 36.255 52.9839 36.4413 52.8636 36.591C52.7434 36.7406 52.5756 36.8448 52.3882 36.8863L50.3046 37.3486C50.1142 37.9753 49.861 38.5812 49.5488 39.1571L50.7062 40.9522C50.811 41.1134 50.8572 41.3058 50.8373 41.4971C50.8173 41.6884 50.7323 41.867 50.5965 42.0032L48.6041 44.0108C48.4681 44.1473 48.2897 44.2332 48.0982 44.2544C47.9068 44.2755 47.7138 44.2307 47.5513 44.1272L45.7394 42.9682C45.1639 43.2798 44.5586 43.533 43.9326 43.724L43.4821 45.8042C43.4417 45.9927 43.338 46.1618 43.1883 46.2833C43.0385 46.4049 42.8517 46.4715 42.6588 46.4722Z" fill="#A0D766"/>
<path d="M43.5863 39.0121C43.4056 39.0118 43.2298 38.9535 43.0848 38.8458C42.9398 38.7381 42.8332 38.5866 42.7806 38.4138C42.7281 38.2409 42.7325 38.0558 42.7931 37.8856C42.8537 37.7154 42.9673 37.5692 43.1173 37.4684C43.7647 37.0321 44.241 36.3849 44.4651 35.6369C44.6892 34.889 44.6472 34.0865 44.3464 33.366C44.0455 32.6455 43.5043 32.0516 42.8148 31.6851C42.1253 31.3187 41.3302 31.2025 40.5647 31.3562C40.4562 31.3784 40.3443 31.3791 40.2355 31.3581C40.1266 31.3372 40.023 31.295 39.9305 31.2339C39.838 31.1729 39.7584 31.0943 39.6963 31.0025C39.6342 30.9107 39.5908 30.8076 39.5685 30.6991C39.5462 30.5905 39.5456 30.4786 39.5665 30.3698C39.5875 30.261 39.6297 30.1574 39.6907 30.0649C39.7518 29.9724 39.8304 29.8928 39.9222 29.8307C40.0139 29.7685 40.1171 29.7251 40.2256 29.7028C40.961 29.5537 41.7204 29.5698 42.4488 29.7498C43.1773 29.9299 43.8567 30.2694 44.4379 30.744C45.0192 31.2185 45.4878 31.8163 45.8099 32.494C46.1321 33.1717 46.2997 33.9125 46.3008 34.6628C46.3009 35.4944 46.0961 36.3133 45.7045 37.0468C45.3128 37.7804 44.7464 38.4062 44.0553 38.8687C43.9166 38.962 43.7534 39.0119 43.5863 39.0121ZM14.2464 26.2275C13.159 26.2289 12.1 25.88 11.2265 25.2324C10.3529 24.5847 9.71128 23.6729 9.39662 22.632C9.08196 21.5911 9.11104 20.4765 9.47955 19.4534C9.84806 18.4303 10.5364 17.5532 11.4425 16.952C11.6287 16.8358 11.8528 16.7967 12.0673 16.843C12.2817 16.8893 12.4698 17.0173 12.5914 17.2C12.713 17.3826 12.7587 17.6055 12.7187 17.8213C12.6787 18.037 12.5562 18.2287 12.3772 18.3556C11.7297 18.7903 11.2526 19.4356 11.0268 20.182C10.801 20.9285 10.8405 21.73 11.1385 22.4507C11.4365 23.1713 11.9748 23.7666 12.6618 24.1355C13.3489 24.5045 14.1424 24.6243 14.9078 24.4746C15.1272 24.4313 15.3548 24.4766 15.5409 24.6005C15.7271 24.7244 15.8567 24.9169 15.9014 25.136C15.9233 25.2445 15.9236 25.3563 15.9021 25.465C15.8807 25.5737 15.8381 25.677 15.7766 25.7692C15.7152 25.8613 15.6362 25.9405 15.5441 26.002C15.4521 26.0636 15.3488 26.1064 15.2401 26.128C14.9131 26.1945 14.5802 26.2279 14.2464 26.2275Z" fill="#A0D766"/>
<path d="M14.247 32.9761H12.8298C12.6371 32.9757 12.4504 32.9094 12.3006 32.7882C12.1508 32.667 12.047 32.4981 12.0066 32.3097L11.5561 30.2295C10.93 30.0388 10.3247 29.7856 9.74926 29.4737L7.93735 30.6327C7.77531 30.7363 7.58277 30.7813 7.39162 30.7605C7.20047 30.7396 7.02218 30.6541 6.8863 30.518L4.89387 28.5273C4.75808 28.3912 4.67285 28.2128 4.65229 28.0216C4.63174 27.8305 4.67709 27.6381 4.78084 27.4762L5.93986 25.6643C5.62796 25.0877 5.37475 24.4813 5.18405 23.8541L3.10052 23.3918C2.9126 23.3503 2.74446 23.246 2.6239 23.096C2.50334 22.9459 2.43758 22.7593 2.4375 22.5668V19.7663C2.43758 19.5743 2.50315 19.3881 2.6234 19.2384C2.74364 19.0887 2.91136 18.9845 3.09883 18.943L5.18236 18.4808C5.36963 17.8616 5.62269 17.2559 5.93817 16.6722L4.78253 14.8755C4.67774 14.7142 4.63146 14.5219 4.65142 14.3306C4.67138 14.1393 4.75636 13.9606 4.89219 13.8244L6.88461 11.8168C7.02007 11.6796 7.19863 11.5931 7.39033 11.5719C7.58202 11.5507 7.77517 11.5961 7.93735 11.7004L9.74926 12.8594C10.3248 12.5479 10.9301 12.2947 11.5561 12.1036L12.0066 10.0235C12.027 9.91238 12.0695 9.80652 12.1316 9.71217C12.1938 9.61782 12.2742 9.53691 12.3682 9.47424C12.4622 9.41157 12.5678 9.36842 12.6788 9.34734C12.7897 9.32626 12.9038 9.32768 13.0142 9.35153C13.1247 9.37538 13.2292 9.42116 13.3216 9.48616C13.4139 9.55116 13.4923 9.63405 13.5521 9.72992C13.6118 9.82579 13.6517 9.93269 13.6694 10.0443C13.687 10.1558 13.6821 10.2698 13.6548 10.3795L13.0981 12.9607C13.0649 13.1157 12.9885 13.2582 12.8777 13.3716C12.767 13.4851 12.6264 13.5648 12.4722 13.6018C11.6577 13.8016 10.8792 14.1266 10.1643 14.5651C10.0296 14.6473 9.8746 14.69 9.71684 14.6886C9.55908 14.6871 9.4049 14.6414 9.27182 14.5566L7.60162 13.4887L6.56576 14.5313L7.63367 16.188C7.72015 16.321 7.76717 16.4757 7.76926 16.6342C7.77135 16.7928 7.72843 16.9487 7.64548 17.0839C7.20657 17.7977 6.8821 18.5759 6.68385 19.3901C6.64675 19.5438 6.56734 19.6841 6.45464 19.795C6.34193 19.9059 6.20043 19.983 6.04614 20.0177L4.12457 20.4428V21.8886L6.04614 22.3155C6.20043 22.3501 6.34193 22.4273 6.45464 22.5382C6.56734 22.6491 6.64675 22.7893 6.68385 22.9431C6.87449 23.7394 7.2001 24.5154 7.64548 25.2493C7.81419 25.5243 7.81081 25.8718 7.63536 26.1434L6.56576 27.8136L7.59824 28.8461L9.27013 27.7765C9.40336 27.6922 9.55748 27.6467 9.71516 27.6452C9.87283 27.6437 10.0278 27.6863 10.1626 27.7681C10.8982 28.2152 11.6742 28.5391 12.4688 28.7314C12.623 28.7683 12.7636 28.8481 12.8744 28.9615C12.9851 29.075 13.0615 29.2175 13.0947 29.3725L13.5097 31.289H14.247C14.4707 31.289 14.6853 31.3779 14.8435 31.5361C15.0016 31.6943 15.0905 31.9088 15.0905 32.1325C15.0905 32.3562 15.0016 32.5708 14.8435 32.729C14.6853 32.8872 14.4707 32.9761 14.247 32.9761ZM26.9 32.1325C26.7718 32.1328 26.6452 32.1038 26.5298 32.0477C26.4145 31.9916 26.3135 31.9099 26.2346 31.8089C26.1557 31.7078 26.1009 31.59 26.0744 31.4645C26.0479 31.3391 26.0504 31.2092 26.0818 31.0849L27.7688 24.3366C27.7949 24.2287 27.8421 24.127 27.9078 24.0376C27.9735 23.9481 28.0563 23.8726 28.1514 23.8154C28.2466 23.7583 28.3521 23.7206 28.462 23.7047C28.5718 23.6887 28.6837 23.6948 28.7912 23.7225C28.8988 23.7491 29 23.7967 29.0891 23.8626C29.1782 23.9284 29.2535 24.0112 29.3105 24.1062C29.3676 24.2012 29.4053 24.3065 29.4216 24.4161C29.4378 24.5257 29.4323 24.6374 29.4053 24.7449L27.7182 31.4931C27.6732 31.676 27.5681 31.8384 27.4197 31.9544C27.2713 32.0703 27.0883 32.1331 26.9 32.1325ZM31.9612 32.1325C31.7945 32.1325 31.6315 32.0831 31.4929 31.9905C31.3543 31.8979 31.2462 31.7663 31.1823 31.6123C31.1184 31.4584 31.1015 31.2889 31.1339 31.1254C31.1662 30.9618 31.2463 30.8115 31.364 30.6935L34.1426 27.9149L31.3657 25.1379C31.212 24.9788 31.127 24.7658 31.1289 24.5446C31.1308 24.3234 31.2196 24.1119 31.376 23.9555C31.5324 23.7991 31.7439 23.7103 31.9651 23.7084C32.1863 23.7065 32.3993 23.7915 32.5584 23.9452L35.9326 27.3193C36.0907 27.4775 36.1795 27.692 36.1795 27.9157C36.1795 28.1394 36.0907 28.3539 35.9326 28.5121L32.5584 31.8862C32.3997 32.044 32.185 32.1326 31.9612 32.1325ZM23.5259 32.1325C23.3021 32.1326 23.0874 32.044 22.9286 31.8862L19.5545 28.5121C19.3964 28.3539 19.3075 28.1394 19.3075 27.9157C19.3075 27.692 19.3964 27.4775 19.5545 27.3193L22.9286 23.9452C23.0877 23.7915 23.3008 23.7065 23.522 23.7084C23.7432 23.7103 23.9547 23.7991 24.1111 23.9555C24.2675 24.1119 24.3562 24.3234 24.3582 24.5446C24.3601 24.7658 24.2751 24.9788 24.1214 25.1379L21.3445 27.9149L24.1214 30.6918C24.2396 30.8096 24.3201 30.9599 24.3528 31.1236C24.3856 31.2873 24.369 31.457 24.3052 31.6112C24.2415 31.7655 24.1334 31.8973 23.9947 31.9901C23.8559 32.0829 23.6928 32.1325 23.5259 32.1325Z" fill="#A0D766"/>
</svg>
