<svg width="121" height="41" viewBox="0 0 121 41" fill="none" xmlns="http://www.w3.org/2000/svg">
<rect x="0.65918" y="0.539795" width="119" height="39" rx="5.5" fill="black"/>
<rect x="0.65918" y="0.539795" width="119" height="39" rx="5.5" stroke="#A6A6A6"/>
<path d="M17.9642 19.5015L8.24902 30.0457C8.24994 30.0476 8.24994 30.0504 8.25085 30.0523C8.54923 31.1972 9.57121 32.0398 10.7848 32.0398C11.2703 32.0398 11.7256 31.9054 12.1161 31.6703L12.1472 31.6516L23.0824 25.1991L17.9642 19.5015Z" fill="#EA4335"/>
<path d="M27.7923 17.706L27.7832 17.6995L23.062 14.901L17.7432 19.7411L23.0812 25.198L27.7768 22.4276C28.5999 21.9722 29.1592 21.0848 29.1592 20.0621C29.1592 19.045 28.6081 18.1623 27.7923 17.706Z" fill="#FBBC04"/>
<path d="M8.2486 10.033C8.1902 10.2533 8.15918 10.4847 8.15918 10.7236V29.3561C8.15918 29.595 8.1902 29.8264 8.24952 30.0457L18.2978 19.7711L8.2486 10.033Z" fill="#4285F4"/>
<path d="M18.0353 20.0398L23.0631 14.8992L12.1407 8.42339C11.7438 8.17985 11.2802 8.03988 10.7848 8.03988C9.57115 8.03988 8.54734 8.88435 8.24896 10.0302C8.24896 10.0312 8.24805 10.0321 8.24805 10.033L18.0353 20.0398Z" fill="#34A853"/>
<path d="M43.7692 11.7498C43.7692 12.7498 43.4725 13.5465 42.8792 14.1398C42.2125 14.8465 41.3358 15.1998 40.2492 15.1998C39.2092 15.1998 38.3292 14.8398 37.6092 14.1198C36.8892 13.3998 36.5292 12.5131 36.5292 11.4598C36.5292 10.4065 36.8892 9.5198 37.6092 8.7998C38.3292 8.0798 39.2092 7.7198 40.2492 7.7198C40.7758 7.7198 41.2725 7.81313 41.7392 7.9998C42.2058 8.18646 42.5892 8.4498 42.8892 8.7898L42.2292 9.4498C42.0092 9.18313 41.7225 8.97646 41.3692 8.82979C41.0225 8.67646 40.6492 8.5998 40.2492 8.5998C39.4692 8.5998 38.8092 8.8698 38.2692 9.4098C37.7358 9.95646 37.4692 10.6398 37.4692 11.4598C37.4692 12.2798 37.7358 12.9631 38.2692 13.5098C38.8092 14.0498 39.4692 14.3198 40.2492 14.3198C40.9625 14.3198 41.5558 14.1198 42.0292 13.7198C42.5025 13.3198 42.7758 12.7698 42.8492 12.0698H40.2492V11.2098H43.7192C43.7525 11.3965 43.7692 11.5765 43.7692 11.7498ZM49.067 7.8798V8.7598H45.807V11.0298H48.747V11.8898H45.807V14.1598H49.067V15.0398H44.887V7.8798H49.067ZM52.7469 8.7598V15.0398H51.8269V8.7598H49.8269V7.8798H54.7469V8.7598H52.7469ZM58.8246 15.0398H57.9046V7.8798H58.8246V15.0398ZM62.7078 8.7598V15.0398H61.7878V8.7598H59.7878V7.8798H64.7078V8.7598H62.7078ZM74.6802 11.4598C74.6802 12.5198 74.3269 13.4065 73.6202 14.1198C72.9069 14.8398 72.0335 15.1998 71.0002 15.1998C69.9602 15.1998 69.0869 14.8398 68.3802 14.1198C67.6735 13.4065 67.3202 12.5198 67.3202 11.4598C67.3202 10.3998 67.6735 9.51313 68.3802 8.7998C69.0869 8.0798 69.9602 7.7198 71.0002 7.7198C72.0402 7.7198 72.9135 8.08313 73.6202 8.8098C74.3269 9.52313 74.6802 10.4065 74.6802 11.4598ZM68.2602 11.4598C68.2602 12.2865 68.5202 12.9698 69.0402 13.5098C69.5669 14.0498 70.2202 14.3198 71.0002 14.3198C71.7802 14.3198 72.4302 14.0498 72.9502 13.5098C73.4769 12.9765 73.7402 12.2931 73.7402 11.4598C73.7402 10.6265 73.4769 9.94313 72.9502 9.4098C72.4302 8.8698 71.7802 8.5998 71.0002 8.5998C70.2202 8.5998 69.5669 8.8698 69.0402 9.4098C68.5202 9.9498 68.2602 10.6331 68.2602 11.4598ZM76.6859 15.0398H75.7659V7.8798H76.8859L80.3659 13.4498H80.4059L80.3659 12.0698V7.8798H81.2859V15.0398H80.3259L76.6859 9.19979H76.6459L76.6859 10.5798V15.0398Z" fill="white"/>
<path d="M93.6773 31.4494H95.3061V20.4379H93.6773V31.4494ZM108.348 24.4044L106.481 29.1786H106.425L104.487 24.4044H102.733L105.639 31.0768L103.983 34.7888H105.68L110.159 24.4044H108.348ZM99.111 30.1986C98.5768 30.1986 97.8331 29.93 97.8331 29.2632C97.8331 28.414 98.7593 28.0881 99.5597 28.0881C100.275 28.0881 100.613 28.244 101.048 28.4563C100.921 29.4763 100.051 30.1986 99.111 30.1986ZM99.3074 24.1639C98.1282 24.1639 96.9061 24.688 96.4016 25.8499L97.8471 26.4586C98.1561 25.8499 98.7313 25.6508 99.3354 25.6508C100.178 25.6508 101.034 26.1608 101.048 27.0681V27.1808C100.753 27.0108 100.122 26.7563 99.3493 26.7563C97.7912 26.7563 96.2043 27.6204 96.2043 29.235C96.2043 30.7087 97.4822 31.6582 98.9138 31.6582C100.009 31.6582 100.613 31.1623 100.992 30.5809H101.048V31.431H102.62V27.209C102.62 25.2544 101.175 24.1639 99.3074 24.1639ZM89.2413 25.7451H86.9246V21.9706H89.2413C90.459 21.9706 91.1503 22.988 91.1503 23.8574C91.1503 24.7109 90.459 25.7451 89.2413 25.7451ZM89.1994 20.4379H85.2967V31.4494H86.9246V27.2777H89.1994C91.0045 27.2777 92.7791 25.9582 92.7791 23.8574C92.7791 21.7566 91.0045 20.4379 89.1994 20.4379ZM67.9175 30.2004C66.7923 30.2004 65.8505 29.25 65.8505 27.9445C65.8505 26.625 66.7923 25.6596 67.9175 25.6596C69.0287 25.6596 69.8998 26.625 69.8998 27.9445C69.8998 29.25 69.0287 30.2004 67.9175 30.2004ZM69.7881 25.021H69.7313C69.3656 24.5815 68.6629 24.1842 67.777 24.1842C65.9203 24.1842 64.2191 25.8296 64.2191 27.9445C64.2191 30.0445 65.9203 31.6767 67.777 31.6767C68.6629 31.6767 69.3656 31.2794 69.7313 30.8249H69.7881V31.3649C69.7881 32.798 69.0287 33.5644 67.8049 33.5644C66.8063 33.5644 66.1874 32.8403 65.9343 32.2299L64.5141 32.8262C64.9217 33.8198 66.005 35.0398 67.8049 35.0398C69.7174 35.0398 71.3348 33.9044 71.3348 31.1376V24.4106H69.7881V25.021ZM72.46 31.4494H74.0914V20.4371H72.46V31.4494ZM76.4954 27.8168C76.4535 26.3696 77.6065 25.6314 78.4358 25.6314C79.0835 25.6314 79.6317 25.9573 79.8141 26.426L76.4954 27.8168ZM81.5581 26.5678C81.2491 25.731 80.3064 24.1842 78.3799 24.1842C76.4674 24.1842 74.8788 25.7019 74.8788 27.9305C74.8788 30.0304 76.4535 31.6767 78.5624 31.6767C80.2645 31.6767 81.2491 30.6267 81.6568 30.0163L80.3911 29.1645C79.9695 29.789 79.3925 30.2004 78.5624 30.2004C77.7331 30.2004 77.1422 29.8172 76.7625 29.0659L81.7266 26.9932L81.5581 26.5678ZM42.0093 25.3337V26.9228H45.7775C45.6649 27.8168 45.3699 28.4695 44.9204 28.9232C44.3713 29.4772 43.5133 30.0877 42.0093 30.0877C39.6883 30.0877 37.8744 28.2 37.8744 25.8587C37.8744 23.5165 39.6883 21.6297 42.0093 21.6297C43.261 21.6297 44.1749 22.1265 44.8497 22.7651L45.9608 21.6438C45.0181 20.7357 43.7673 20.0398 42.0093 20.0398C38.8311 20.0398 36.1592 22.6515 36.1592 25.8587C36.1592 29.0659 38.8311 31.6767 42.0093 31.6767C43.7245 31.6767 45.0181 31.1086 46.0307 30.0445C47.072 28.9945 47.395 27.5191 47.395 26.3264C47.395 25.9573 47.3671 25.6173 47.3103 25.3337H42.0093ZM51.68 30.2004C50.5549 30.2004 49.5842 29.2641 49.5842 27.9305C49.5842 26.5819 50.5549 25.6596 51.68 25.6596C52.8043 25.6596 53.7749 26.5819 53.7749 27.9305C53.7749 29.2641 52.8043 30.2004 51.68 30.2004ZM51.68 24.1842C49.6261 24.1842 47.9528 25.7592 47.9528 27.9305C47.9528 30.0877 49.6261 31.6767 51.68 31.6767C53.733 31.6767 55.4064 30.0877 55.4064 27.9305C55.4064 25.7592 53.733 24.1842 51.68 24.1842ZM59.8092 30.2004C58.6841 30.2004 57.7134 29.2641 57.7134 27.9305C57.7134 26.5819 58.6841 25.6596 59.8092 25.6596C60.9344 25.6596 61.9042 26.5819 61.9042 27.9305C61.9042 29.2641 60.9344 30.2004 59.8092 30.2004ZM59.8092 24.1842C57.7562 24.1842 56.0829 25.7592 56.0829 27.9305C56.0829 30.0877 57.7562 31.6767 59.8092 31.6767C61.8623 31.6767 63.5356 30.0877 63.5356 27.9305C63.5356 25.7592 61.8623 24.1842 59.8092 24.1842Z" fill="white"/>
</svg>
