<svg width="72" height="72" viewBox="0 0 72 72" fill="none" xmlns="http://www.w3.org/2000/svg">
<rect x="0.955078" y="0.679688" width="70.7007" height="70.7007" rx="9.12267" fill="#D9D9D9"/>
<rect x="0.955078" y="0.679688" width="70.7007" height="70.7007" rx="9.12267" fill="url(#paint0_linear_90_836)"/>
<g clip-path="url(#clip0_90_836)">
<path d="M55.2699 25.8303L52.6999 22.7124C52.3479 22.2866 52.1319 21.765 52.0799 21.215L51.6924 17.193C51.491 15.1034 49.8281 13.4405 47.7384 13.2392L43.7165 12.852C43.1666 12.7996 42.645 12.5837 42.219 12.232L39.1012 9.66144C37.4813 8.3264 35.1298 8.3264 33.51 9.66144L30.392 12.2319C29.9661 12.5837 29.4445 12.7997 28.8946 12.8519L24.8725 13.2392C22.7831 13.4405 21.1207 15.1034 20.9188 17.193L20.5317 21.2149C20.4793 21.7648 20.2634 22.2864 19.9117 22.7124L17.3411 25.8303C16.0061 27.4503 16.0061 29.8018 17.3411 31.4216L19.9115 34.5394C20.2631 34.9654 20.4791 35.487 20.5315 36.0369L20.9187 40.0589C21.12 42.1485 22.783 43.811 24.8725 44.0128L27.3311 44.2495L21.49 58.207C21.4122 58.3915 21.3884 58.5944 21.4215 58.792C21.4545 58.9895 21.543 59.1736 21.6767 59.3228C21.9502 59.6307 22.3657 59.7525 22.7607 59.6403L27.8284 58.2094C27.8384 58.2064 27.8492 58.2069 27.8589 58.2107C27.8686 58.2146 27.8767 58.2217 27.8818 58.2308L30.4196 62.8453C30.5105 63.0125 30.6449 63.152 30.8087 63.249C30.9724 63.3459 31.1593 63.3968 31.3496 63.3961C31.3679 63.3961 31.3863 63.3957 31.4051 63.3948C31.8157 63.374 32.1706 63.1259 32.3331 62.7434L38.4997 48.0062C38.7116 47.8846 38.9129 47.7455 39.1016 47.5904L42.2193 45.0204C42.6119 44.6966 43.0864 44.4877 43.5903 44.417L49.1757 57.7631L45.2232 56.6472C44.8603 56.5436 44.4729 56.5665 44.1247 56.7122C43.7766 56.8578 43.4883 57.1175 43.3072 57.4486L41.3281 61.0471L38.7061 54.781C38.6229 54.5823 38.4643 54.4249 38.265 54.3432C38.0658 54.2615 37.8423 54.2623 37.6436 54.3454C37.5453 54.3866 37.4561 54.4467 37.381 54.5223C37.3059 54.5979 37.2465 54.6876 37.2061 54.7862C37.1656 54.8849 37.1451 54.9905 37.1455 55.097C37.1459 55.2036 37.1673 55.309 37.2085 55.4073L40.2799 62.7475C40.3573 62.932 40.4854 63.0907 40.6494 63.2053C40.8133 63.3199 41.0064 63.3856 41.2063 63.3948C41.225 63.3957 41.2434 63.3965 41.2619 63.3965C41.4522 63.3971 41.6391 63.3461 41.8028 63.2491C41.9665 63.1521 42.1009 63.0125 42.1917 62.8453L44.7291 58.2316C44.7343 58.2225 44.7424 58.2153 44.7521 58.2113C44.7617 58.2073 44.7725 58.2067 44.7826 58.2094L49.8493 59.6402C50.0416 59.6955 50.2457 59.6951 50.4378 59.6389C50.6299 59.5827 50.8021 59.4731 50.9343 59.3228C51.2077 59.0147 51.2792 58.5875 51.1205 58.2061L45.2799 44.249L47.7383 44.0123C49.828 43.811 51.4909 42.1485 51.6922 40.059L52.0798 36.0365C52.1324 35.4849 52.347 34.9675 52.6998 34.5394L55.2699 31.4216C56.6053 29.8018 56.6053 27.4502 55.2699 25.8303ZM31.2834 61.0469L29.3039 57.4476C29.1228 57.1166 28.8344 56.857 28.4862 56.7116C28.138 56.5661 27.7507 56.5434 27.3879 56.6471L23.4357 57.7626L29.0207 44.4169C29.5247 44.4876 29.9993 44.6962 30.3921 45.0198L33.5099 47.5902C34.3201 48.2579 35.3128 48.5917 36.3058 48.5917C36.3696 48.5917 36.4331 48.5899 36.4971 48.5871L31.2834 61.0469ZM54.0176 30.3892L51.4475 33.507C50.8894 34.1821 50.5467 35.0091 50.4637 35.8811L50.0767 39.903C49.9497 41.2209 48.901 42.2696 47.5831 42.3965L44.0502 42.7368C44.0364 42.7377 44.0222 42.739 44.0085 42.741L43.5612 42.784C42.6891 42.867 41.862 43.2096 41.1867 43.7675L38.0689 46.3374C37.0474 47.1798 35.5641 47.1798 34.5427 46.3374L31.4248 43.7674C30.7496 43.2094 29.9225 42.8668 29.0504 42.784L28.601 42.7406C28.5887 42.7391 28.5763 42.738 28.5639 42.7373L25.0285 42.3965C23.7105 42.2696 22.6619 41.2209 22.5349 39.903L22.1479 35.8815C22.065 35.0094 21.7222 34.1822 21.164 33.507L18.594 30.3892C17.7518 29.3673 17.7518 27.884 18.594 26.8626L21.164 23.7448C21.7222 23.0696 22.0649 22.2424 22.1478 21.3703L22.535 17.3484C22.662 16.0304 23.7106 14.9818 25.0285 14.8548L29.0505 14.4678C29.9225 14.3848 30.7496 14.0422 31.4249 13.4843L34.5428 10.9143C35.0535 10.4934 35.6799 10.2825 36.3059 10.2825C36.932 10.2825 37.5583 10.4931 38.069 10.9143L41.1868 13.4843C41.862 14.0424 42.6891 14.385 43.5612 14.4678L47.5832 14.8548C48.9011 14.9818 49.9498 16.0304 50.0767 17.3484L50.4638 21.3702C50.5467 22.2424 50.8894 23.0696 51.4476 23.7448L54.0177 26.8626C54.8594 27.8844 54.8594 29.3674 54.0177 30.3892H54.0176Z" fill="white"/>
<path d="M36.3057 15.9482C35.7637 15.9482 35.2183 15.9825 34.6837 16.051C34.4703 16.0783 34.2764 16.1893 34.1448 16.3596C34.0131 16.5298 33.9544 16.7454 33.9817 16.9588C34.0385 17.4036 34.4456 17.7176 34.8896 17.6612C35.3556 17.6015 35.8321 17.5714 36.3057 17.5714C42.4023 17.5714 47.3622 22.5313 47.3622 28.628C47.3622 34.7245 42.4018 39.684 36.3057 39.684C30.2091 39.684 25.2492 34.7241 25.2492 28.6275C25.2492 24.279 27.8133 20.318 31.7813 18.5361C31.8786 18.4925 31.9663 18.4301 32.0394 18.3526C32.1126 18.2751 32.1697 18.1839 32.2076 18.0843C32.2455 17.9846 32.2634 17.8785 32.2603 17.772C32.2572 17.6654 32.2331 17.5606 32.1894 17.4633C32.1458 17.3661 32.0834 17.2784 32.0058 17.2053C31.9283 17.1321 31.8371 17.075 31.7375 17.0371C31.6379 16.9992 31.5318 16.9813 31.4252 16.9845C31.3187 16.9876 31.2138 17.0117 31.1166 17.0554C26.5659 19.0987 23.626 23.6409 23.626 28.6275C23.626 35.6194 29.3141 41.3072 36.3057 41.3072C43.2972 41.3072 48.9853 35.6194 48.9853 28.6275C48.9853 21.636 43.2972 15.9482 36.3057 15.9482Z" fill="white"/>
<path d="M28.2452 27.6863C27.2776 28.6538 27.2776 30.2286 28.2452 31.1962L31.7903 34.7417C32.0203 34.9728 32.2938 35.156 32.595 35.2807C32.8963 35.4054 33.2193 35.4692 33.5453 35.4683C33.8714 35.4692 34.1944 35.4054 34.4957 35.2807C34.7969 35.1559 35.0705 34.9727 35.3005 34.7417L43.0392 27.0027C44.0068 26.0347 44.0068 24.4603 43.0392 23.4922C42.0717 22.5247 40.4968 22.5247 39.5288 23.4922L33.5453 29.4761L31.7551 27.6863C30.7876 26.7188 29.213 26.7188 28.2452 27.6863ZM33.5454 31.4359C33.652 31.4359 33.7575 31.4148 33.856 31.374C33.9544 31.3332 34.0439 31.2733 34.1192 31.1979L40.6768 24.6403C41.0117 24.3054 41.5563 24.3057 41.8912 24.6403C42.2261 24.9751 42.2261 25.5201 41.8912 25.8546L34.1526 33.5936C34.073 33.6736 33.9783 33.7369 33.8741 33.7801C33.7699 33.8233 33.6581 33.8453 33.5453 33.845C33.4325 33.8454 33.3208 33.8234 33.2165 33.7802C33.1123 33.7371 33.0177 33.6737 32.9381 33.5937L29.3928 30.0487C29.0582 29.7138 29.0582 29.1687 29.3928 28.8342C29.4725 28.7544 29.5672 28.6911 29.6715 28.648C29.7757 28.6048 29.8875 28.5827 30.0003 28.5829C30.113 28.5827 30.2246 28.6048 30.3287 28.6479C30.4329 28.6909 30.5275 28.7541 30.6071 28.8338L32.9711 31.1978C33.0465 31.2733 33.136 31.3332 33.2345 31.374C33.3331 31.4149 33.4387 31.4359 33.5453 31.4359H33.5454Z" fill="white"/>
</g>
<defs>
<linearGradient id="paint0_linear_90_836" x1="0.955078" y1="0.679688" x2="123.432" y2="7.63343" gradientUnits="userSpaceOnUse">
<stop stop-color="#3C83F6"/>
<stop offset="0.5" stop-color="#7C3BED"/>
</linearGradient>
<clipPath id="clip0_90_836">
<rect width="54.736" height="54.736" fill="white" transform="translate(8.9375 8.66211)"/>
</clipPath>
</defs>
</svg>
