<svg width="55" height="55" viewBox="0 0 55 55" fill="none" xmlns="http://www.w3.org/2000/svg">
<g clip-path="url(#clip0_90_972)">
<mask id="mask0_90_972" style="mask-type:luminance" maskUnits="userSpaceOnUse" x="0" y="0" width="55" height="55">
<path d="M54.7372 0.0273438H0.750977V54.0136H54.7372V0.0273438Z" fill="white"/>
</mask>
<g mask="url(#mask0_90_972)">
<path d="M33.5232 19.9064C33.3854 19.9064 33.247 19.882 33.1144 19.8318L27.7495 17.8103L22.491 19.8293C22.1241 19.97 21.7112 19.9156 21.3934 19.6849C21.0757 19.4539 20.8964 19.078 20.9169 18.6857L21.212 13.0646L17.6692 8.69049C17.4219 8.38523 17.3461 7.9756 17.4674 7.60212C17.5887 7.22854 17.891 6.94174 18.2704 6.84009L23.7014 5.38531L26.7669 0.564931C26.9783 0.232789 27.3436 0.0303409 27.7372 0.027494C28.1328 0.021062 28.4992 0.221612 28.7152 0.550696L31.8876 5.38289L37.328 6.8402C37.7075 6.94184 38.0097 7.22864 38.131 7.60223C38.2523 7.9757 38.1765 8.38534 37.9293 8.69059L34.3865 13.0647L34.6817 18.6858C34.7021 19.0767 34.524 19.4517 34.2079 19.6828C34.0064 19.8302 33.7659 19.9064 33.5232 19.9064ZM27.7457 15.4096C27.8842 15.4096 28.0229 15.4343 28.1547 15.4842L32.2721 17.0357L32.0467 12.7417C32.0316 12.4554 32.1232 12.1737 32.3037 11.9509L35.0024 8.61879L30.8608 7.50944C30.5858 7.43574 30.3475 7.26354 30.1911 7.02567L27.7613 3.32434L25.4166 7.01133C25.2607 7.25648 25.0186 7.43415 24.7381 7.50933L20.5963 8.61869L23.295 11.9508C23.4754 12.1736 23.5669 12.4553 23.5521 12.7415L23.3272 17.0234L27.3301 15.4865C27.4638 15.4352 27.6047 15.4096 27.7457 15.4096Z" fill="#A0D766"/>
<path d="M47.5628 27.0818C47.2209 27.0818 46.8925 26.9303 46.6702 26.6623L44.0327 23.4825L39.9097 23.2178C39.5011 23.1916 39.1366 22.9518 38.9507 22.5869C38.7647 22.222 38.785 21.7862 39.004 21.4401L41.2134 17.9491L40.1911 13.9464C40.0898 13.5496 40.2052 13.1287 40.4948 12.8392C40.7844 12.5496 41.2057 12.4343 41.6019 12.5356L45.6048 13.5579L49.0958 11.3486C49.4417 11.1298 49.8778 11.1094 50.2427 11.2954C50.6074 11.4814 50.8472 11.8459 50.8736 12.2545L51.1382 16.3773L54.318 19.0147C54.6331 19.276 54.7871 19.6844 54.7231 20.089C54.6591 20.4934 54.3865 20.8341 54.0059 20.9853L50.1667 22.5112L48.6409 26.3504C48.4896 26.731 48.1489 27.0035 47.7445 27.0676C47.6839 27.0771 47.6231 27.0818 47.5628 27.0818ZM42.01 21.0281L44.6805 21.1995C44.9991 21.22 45.2951 21.3709 45.499 21.6166L47.2073 23.6763L48.1955 21.1895C48.3134 20.8929 48.5484 20.6579 48.845 20.54L51.3319 19.5517L49.2722 17.8434C49.0265 17.6395 48.8756 17.3435 48.8551 17.0249L48.6839 14.3545L46.4225 15.7854C46.1527 15.9562 45.8246 16.0081 45.5153 15.929L42.9225 15.2669L43.5846 17.8596C43.6636 18.169 43.6116 18.4971 43.4409 18.7668L42.01 21.0281Z" fill="#A0D766"/>
<path d="M8.03274 27.0818C7.97253 27.0818 7.9118 27.0771 7.85116 27.0675C7.4467 27.0034 7.10601 26.7309 6.9547 26.3503L5.43118 22.5165L1.49165 20.9888C1.10542 20.8391 0.82832 20.4946 0.764738 20.0854C0.701157 19.676 0.860796 19.2638 1.18355 19.0041L4.45826 16.3673L4.72218 12.2545C4.74843 11.8459 4.98821 11.4813 5.35304 11.2954C5.71808 11.1094 6.15387 11.1298 6.49982 11.3486L9.9909 13.5579L13.9938 12.5356C14.3904 12.4342 14.8112 12.5496 15.101 12.8392C15.3905 13.1288 15.506 13.5496 15.4046 13.9464L14.3824 17.9491L16.5914 21.4401C16.8104 21.7862 16.8308 22.222 16.6449 22.5869C16.4589 22.9517 16.0944 23.1916 15.6857 23.2178L11.5628 23.4825L8.9253 26.6623C8.70303 26.9303 8.37468 27.0818 8.03274 27.0818ZM4.20193 19.5517L6.7415 20.5364C7.04233 20.653 7.28094 20.8897 7.40009 21.1894L8.38828 23.6761L10.0967 21.6165C10.3005 21.3707 10.5965 21.2199 10.9151 21.1994L13.5856 21.028L12.1547 18.7668C11.984 18.497 11.932 18.1689 12.0109 17.8596L12.6732 15.2669L10.0803 15.929C9.77105 16.0081 9.44291 15.956 9.1731 15.7854L6.91178 14.3545L6.74044 17.0249C6.71967 17.3493 6.56352 17.6502 6.31034 17.854L4.20193 19.5517Z" fill="#A0D766"/>
<path d="M54.3978 45.2159L48.1862 39.0032C48.2209 38.8641 48.2473 38.7629 48.261 38.7091L49.8564 33.8156C50.0388 33.2556 49.7741 32.6494 49.2395 32.4026L48.5509 32.0842C42.1064 29.1107 34.9301 27.5386 27.798 27.5386C20.6649 27.5386 13.4886 29.1107 7.04397 32.0842L6.35544 32.4026C5.82718 32.6462 5.56146 33.2451 5.73439 33.8008C5.73966 33.8176 6.26898 35.511 6.71711 36.8575L7.33605 38.7123C7.34976 38.766 7.37401 38.8641 7.4088 38.9969L1.09708 45.2085C0.791298 45.51 0.676367 45.9561 0.799733 46.3673C0.922045 46.7785 1.26262 47.0886 1.68333 47.1729L6.61061 48.1587L7.59543 53.085C7.67978 53.5046 7.98767 53.8431 8.39679 53.9675C8.5075 54.0013 8.62032 54.017 8.73314 54.017C9.03576 54.017 9.33205 53.8979 9.55243 53.6776L12.9634 50.2666C14.1065 49.1235 14.6832 47.6484 14.5862 46.1121C14.5198 45.0598 14.136 44.0297 13.4917 43.126C22.7473 40.1568 32.8676 40.1589 42.1202 43.1313C40.4594 45.4573 40.5712 48.3127 42.5251 50.2666L45.9361 53.6776C46.1564 53.8979 46.4527 54.017 46.7553 54.017C46.8681 54.017 46.981 54.0013 47.0917 53.9675C47.5008 53.8431 47.8086 53.5046 47.893 53.085L48.8779 48.1587L53.8051 47.1729C54.2238 47.0886 54.5633 46.7806 54.6877 46.3716C54.8111 45.9625 54.7003 45.5176 54.3978 45.2159ZM11.3238 48.6259L9.44487 50.5049L8.73314 46.9453C8.64141 46.4865 8.28185 46.127 7.82318 46.0353L4.28458 45.3277L8.09417 41.5772C8.29346 42.2953 8.49695 42.9975 8.65828 43.4835C8.81961 43.9686 9.27195 44.2764 9.75804 44.2764C9.87191 44.2764 9.98579 44.2607 10.0997 44.2258C10.4128 44.1289 10.7534 44.0214 11.1193 43.9043C11.8057 44.5844 12.218 45.4195 12.2707 46.2587C12.3266 47.1329 11.9987 47.951 11.3238 48.6259ZM8.2555 34.0814C20.6871 28.4265 34.8984 28.4255 47.3311 34.0771L45.0693 41.6583C44.56 41.4939 44.0011 41.3105 43.3991 41.109C33.3378 37.7392 22.2561 37.7392 12.1948 41.109C11.5938 41.3115 11.036 41.4949 10.5267 41.6583C10.0461 39.9272 8.2555 34.0814 8.2555 34.0814ZM47.6652 46.0352C47.2066 46.1269 46.8471 46.4864 46.7553 46.9452L46.0436 50.5048L44.1647 48.6258C42.6736 47.1349 43.2441 45.1979 44.4841 43.9073C44.8458 44.0223 45.1842 44.1288 45.4963 44.2247C46.0984 44.4103 46.7385 44.0813 46.9378 43.4835C47.098 43.0016 47.2994 42.3067 47.4966 41.595L51.2249 45.3234L47.6652 46.0352Z" fill="black"/>
</g>
</g>
<defs>
<clipPath id="clip0_90_972">
<rect width="53.9862" height="53.9862" fill="white" transform="translate(0.750977 0.0273438)"/>
</clipPath>
</defs>
</svg>
