<svg width="33" height="32" viewBox="0 0 33 32" fill="none" xmlns="http://www.w3.org/2000/svg">
<path fill-rule="evenodd" clip-rule="evenodd" d="M25.9514 19.0512H18.9424C19.5207 17.3157 19.8281 15.8549 19.8788 14.6094C19.9984 11.6711 18.611 10.5082 17.4261 10.0494C17.3766 10.0299 17.325 10.0161 17.2724 10.0081C16.3543 9.86306 16.0274 10.295 15.8109 10.7831L15.7824 10.8471C15.7507 10.9172 15.73 10.9918 15.721 11.0682C15.428 13.5748 14.3576 15.9268 12.6601 17.7942V31.7973C12.8495 31.8667 13.0429 31.9244 13.2393 31.9701C13.2925 31.9827 13.3469 31.9894 13.4015 31.9902C13.9882 31.9964 14.6876 31.9996 15.4942 31.9996C16.2989 31.9996 17.2099 31.9964 18.221 31.9902H24.824C25.2101 31.9903 25.5892 31.8878 25.9227 31.6932C26.2562 31.4986 26.532 31.219 26.7219 30.8828C26.9118 30.5467 27.009 30.1661 27.0035 29.7801C26.9981 29.394 26.8902 29.0163 26.6909 28.6857C27.1316 28.3519 27.4287 27.8628 27.522 27.3179C27.6152 26.7729 27.4976 26.2129 27.193 25.7515C27.6206 25.3888 27.8919 24.8751 27.9502 24.3174C28.0085 23.7597 27.8494 23.201 27.506 22.7577C27.8072 22.4516 28.0111 22.0632 28.0922 21.6415C28.1733 21.2197 28.1279 20.7834 27.9618 20.3874C27.7957 19.9914 27.5162 19.6533 27.1585 19.4156C26.8008 19.1779 26.3809 19.0512 25.9514 19.0515V19.0512ZM11.1947 6.48006C11.1503 6.34329 11.0676 6.22215 10.9564 6.13104C10.8451 6.03993 10.7101 5.98269 10.5672 5.96613L8.51973 5.73056L7.66348 3.85731C7.60397 3.72629 7.508 3.61518 7.38702 3.53726C7.26605 3.45933 7.12519 3.41789 6.98129 3.41789C6.83739 3.41789 6.69654 3.45933 6.57556 3.53726C6.45459 3.61518 6.35861 3.72629 6.2991 3.85731L5.44285 5.73056L3.39542 5.96613C3.25258 5.98252 3.11746 6.03963 3.00616 6.13065C2.89486 6.22167 2.81207 6.34277 2.76765 6.47951C2.72323 6.61625 2.71905 6.76288 2.75561 6.90193C2.79217 7.04099 2.86792 7.1666 2.97385 7.26381L4.49148 8.65756L4.08292 10.6774C4.0547 10.8182 4.06746 10.9642 4.11971 11.098C4.17195 11.2318 4.26148 11.3478 4.37766 11.4322C4.49385 11.5166 4.63182 11.566 4.7752 11.5744C4.91859 11.5827 5.06137 11.5498 5.1866 11.4795L6.9811 10.4663L8.77598 11.4795C8.90117 11.5502 9.04404 11.5833 9.18756 11.5751C9.33108 11.5669 9.46921 11.5176 9.5855 11.4331C9.70179 11.3485 9.79135 11.2324 9.8435 11.0984C9.89565 10.9645 9.90821 10.8183 9.87967 10.6774L9.4711 8.65763L10.9887 7.26388C11.0946 7.16671 11.1702 7.04118 11.2067 6.90223C11.2433 6.76328 11.2391 6.61676 11.1947 6.48012L11.1947 6.48006ZM30.7344 6.48006C30.7788 6.61669 30.783 6.7632 30.7465 6.90215C30.71 7.0411 30.6344 7.16664 30.5285 7.26381L29.0108 8.65756L29.4194 10.6774C29.4479 10.8183 29.4353 10.9644 29.3832 11.0983C29.331 11.2323 29.2415 11.3484 29.1252 11.4329C29.0089 11.5174 28.8708 11.5668 28.7273 11.575C28.5838 11.5832 28.4409 11.5501 28.3157 11.4794L26.5212 10.4663L24.7266 11.4794C24.6014 11.5501 24.4585 11.5833 24.315 11.575C24.1715 11.5668 24.0334 11.5175 23.9171 11.433C23.8008 11.3485 23.7112 11.2323 23.6591 11.0984C23.6069 10.9644 23.5944 10.8183 23.6229 10.6774L24.0315 8.65756L22.5139 7.26381C22.4079 7.1666 22.3322 7.04099 22.2956 6.90193C22.259 6.76288 22.2632 6.61625 22.3077 6.47951C22.3521 6.34277 22.4349 6.22167 22.5462 6.13065C22.6575 6.03963 22.7926 5.98252 22.9354 5.96613L24.9822 5.73056L25.8389 3.85731C25.8983 3.7263 25.9943 3.6152 26.1153 3.53728C26.2362 3.45936 26.3771 3.41792 26.5209 3.41792C26.6648 3.41792 26.8057 3.45936 26.9266 3.53728C27.0476 3.6152 27.1436 3.7263 27.203 3.85731L28.0597 5.73056L30.1066 5.96613C30.2494 5.98266 30.3845 6.03989 30.4958 6.131C30.607 6.22212 30.6897 6.34328 30.7341 6.48006H30.7344ZM21.7995 3.66875C21.7551 3.53182 21.6723 3.41047 21.5611 3.31903C21.4499 3.2276 21.3149 3.1699 21.1719 3.15275L18.536 2.852L17.4332 0.436875C17.373 0.30659 17.2768 0.196259 17.1559 0.118929C17.035 0.0415986 16.8945 0.00050354 16.751 0.00050354C16.6075 0.00050354 16.467 0.0415986 16.3461 0.118929C16.2252 0.196259 16.129 0.30659 16.0689 0.436875L14.9659 2.85181L12.3301 3.15256C12.1874 3.16931 12.0524 3.22666 11.9413 3.31779C11.8302 3.40893 11.7475 3.53003 11.7031 3.66673C11.6587 3.80343 11.6545 3.94999 11.6909 4.08902C11.7273 4.22805 11.8029 4.35373 11.9085 4.45113L13.8627 6.24625L13.3365 8.84625C13.3081 8.98712 13.3207 9.13319 13.3729 9.26709C13.4251 9.40099 13.5147 9.51708 13.6309 9.60154C13.7472 9.686 13.8853 9.73527 14.0288 9.7435C14.1722 9.75172 14.3151 9.71855 14.4402 9.64794L16.751 8.3445L19.0617 9.64806C19.1869 9.71866 19.3297 9.75181 19.4732 9.74358C19.6166 9.73534 19.7547 9.68607 19.871 9.60161C19.9872 9.51716 20.0768 9.40108 20.129 9.26719C20.1812 9.1333 20.1938 8.98723 20.1654 8.84638L19.6394 6.24638L21.5935 4.45113C21.6993 4.35418 21.7749 4.22887 21.8115 4.09012C21.8481 3.95138 21.844 3.80505 21.7997 3.66856L21.7995 3.66875ZM11.1601 19.1869C11.028 18.9769 10.8449 18.8038 10.6277 18.6838C10.4106 18.5638 10.1666 18.5008 9.91854 18.5007H4.74179C4.35264 18.501 3.97951 18.6558 3.7043 18.9309C3.42908 19.206 3.27425 19.5791 3.27379 19.9683V30.5312C3.27412 30.9206 3.42887 31.2938 3.70408 31.5692C3.97929 31.8445 4.35249 31.9995 4.74179 32H9.91854C10.1666 31.9999 10.4105 31.9369 10.6276 31.817C10.8447 31.6971 11.0279 31.5242 11.1601 31.3143V19.1869ZM5.17073 21.2556C5.17073 21.0567 5.24975 20.8659 5.3904 20.7253C5.53105 20.5846 5.72182 20.5056 5.92073 20.5056H6.47117C6.67008 20.5056 6.86084 20.5846 7.0015 20.7253C7.14215 20.8659 7.22117 21.0567 7.22117 21.2556C7.22117 21.4545 7.14215 21.6453 7.0015 21.786C6.86084 21.9266 6.67008 22.0056 6.47117 22.0056H5.92079C5.82229 22.0056 5.72476 21.9862 5.63376 21.9486C5.54276 21.9109 5.46007 21.8556 5.39042 21.786C5.32077 21.7163 5.26552 21.6336 5.22783 21.5427C5.19013 21.4517 5.17073 21.3541 5.17073 21.2556Z" fill="#486FEB"/>
</svg>
