<svg width="48" height="48" viewBox="0 0 48 48" fill="none" xmlns="http://www.w3.org/2000/svg">
<g clip-path="url(#clip0_343_1190)">
<path d="M44.1096 0H3.89044C1.74525 0 0 1.74525 0 3.89044V6.06853C0 9.50672 1.18284 12.8787 3.33056 15.5632C5.11641 17.7956 7.65825 19.5444 10.4881 20.4877L12.1443 21.0397C13.8993 23.9663 16.7173 26.2045 20.1096 27.2007V29.7183C20.1096 30.7262 19.2895 31.5462 18.2816 31.5462C16.1364 31.5462 14.3912 33.2915 14.3912 35.4367V37.2645H12.5632C11.9937 37.2645 11.532 37.7262 11.532 38.2957V45.9375H9.70416C9.13463 45.9375 8.67291 46.3992 8.67291 46.9688C8.67291 47.5383 9.13463 48 9.70416 48H38.2959C38.8655 48 39.3272 47.5383 39.3272 46.9688C39.3272 46.3992 38.8655 45.9375 38.2959 45.9375H36.4681V38.2958C36.4681 37.7263 36.0064 37.2646 35.4368 37.2646H33.6089V35.4368C33.6089 33.2916 31.8637 31.5463 29.7185 31.5463C28.7106 31.5463 27.8905 30.7263 27.8905 29.7184V27.2008C31.2802 26.2054 34.0965 23.9698 35.8518 21.0466L37.5939 20.4921C37.5984 20.4907 37.6029 20.4893 37.6073 20.4877C40.3931 19.5592 42.8352 17.8564 44.6695 15.5634C46.8172 12.8787 48 9.50672 48 6.06853V3.89044C48 1.74525 46.2548 0 44.1096 0ZM4.94119 14.2749C3.08484 11.9546 2.0625 9.04022 2.0625 6.06853V3.89044C2.0625 2.88253 2.88253 2.0625 3.89044 2.0625H8.78109L10.2754 15.511C10.3886 16.5301 10.6146 17.5174 10.9399 18.4603C8.56388 17.6271 6.43941 16.1478 4.94119 14.2749ZM34.4055 45.9375H13.5945V39.3271H34.4055V45.9375ZM26.6279 25.4002C26.1597 25.5078 25.8279 25.9247 25.8279 26.4052V29.7185C25.8279 31.8637 27.5732 33.6089 29.7184 33.6089C30.7263 33.6089 31.5463 34.4289 31.5463 35.4368V37.2647H16.4537V35.4368C16.4537 34.4289 17.2737 33.6089 18.2816 33.6089C20.4268 33.6089 22.1721 31.8637 22.1721 29.7185V26.4052C22.1721 25.9247 21.8403 25.5079 21.3721 25.4002C16.5089 24.2812 12.8733 20.2156 12.3253 15.2833L10.8563 2.0625H37.1437L35.6747 15.2832C35.1268 20.2156 31.4911 24.2812 26.6279 25.4002ZM45.9375 6.06853C45.9375 9.04012 44.9152 11.9545 43.0588 14.2748C41.4938 16.231 39.4166 17.6891 37.0476 18.4984C37.3799 17.5441 37.6099 16.5437 37.7245 15.5109L39.2189 2.0625H44.1096C45.1175 2.0625 45.9375 2.88253 45.9375 3.89044V6.06853Z" fill="black"/>
<path d="M27.5338 18.4011C27.3729 18.4011 27.2115 18.3636 27.063 18.2873L23.9998 16.715L20.9366 18.2873C20.5882 18.466 20.1689 18.4322 19.8537 18.1999C19.5387 17.9676 19.3822 17.5769 19.4499 17.1913L20.0292 13.8934L17.5704 11.5535C17.2839 11.2808 17.1786 10.8684 17.2991 10.4919C17.4197 10.1153 17.745 9.84094 18.1365 9.78544L21.5551 9.30028L23.0793 6.28472C23.2548 5.93766 23.6107 5.71875 23.9997 5.71875C24.3887 5.71875 24.7445 5.93766 24.92 6.28472L26.4443 9.30028L29.8629 9.78544C30.2544 9.84094 30.5797 10.1154 30.7003 10.4919C30.8208 10.8685 30.7155 11.2808 30.429 11.5535L27.9702 13.8934L28.5495 17.1913C28.6173 17.5769 28.4608 17.9676 28.1457 18.1999C27.9651 18.3332 27.7501 18.4011 27.5338 18.4011ZM23.9998 14.5246C24.1614 14.5246 24.3228 14.5625 24.4707 14.6384L26.1593 15.5051L25.8433 13.7061C25.7835 13.366 25.8979 13.0186 26.1481 12.7806L27.4639 11.5283L25.622 11.267C25.2882 11.2196 24.9987 11.0121 24.8465 10.7111L23.9998 9.03609L23.1531 10.711C23.001 11.012 22.7114 11.2195 22.3776 11.2669L20.5357 11.5282L21.8516 12.7805C22.1017 13.0185 22.2162 13.3659 22.1564 13.706L21.8403 15.505L23.529 14.6383C23.6767 14.5625 23.8383 14.5246 23.9998 14.5246Z" fill="#DFB757"/>
</g>
<defs>
<clipPath id="clip0_343_1190">
<rect width="48" height="48" fill="white"/>
</clipPath>
</defs>
</svg>
