<svg width="48" height="48" viewBox="0 0 48 48" fill="none" xmlns="http://www.w3.org/2000/svg">
<g clip-path="url(#clip0_343_1202)">
<path d="M29.1384 17.6748C29.0159 17.6748 28.8928 17.6531 28.7749 17.6085L24.0049 15.8111L19.3295 17.6062C19.0033 17.7313 18.6362 17.683 18.3536 17.4778C18.0711 17.2725 17.9117 16.9382 17.9299 16.5894L18.1923 11.5916L15.0424 7.70254C14.8225 7.43113 14.7551 7.06692 14.8629 6.73485C14.9708 6.4027 15.2396 6.1477 15.5769 6.05732L20.4057 4.76385L23.1313 0.477977C23.3192 0.182665 23.644 0.00266479 23.994 0.000133545C24.3457 -0.00558521 24.6715 0.172727 24.8635 0.465321L27.6842 4.7617L32.5213 6.05742C32.8587 6.14779 33.1274 6.40279 33.2353 6.73495C33.3431 7.06701 33.2757 7.43123 33.0559 7.70263L29.906 11.5917L30.1684 16.5895C30.1866 16.9371 30.0282 17.2705 29.7472 17.476C29.568 17.607 29.3542 17.6748 29.1384 17.6748ZM24.0015 13.6766C24.1247 13.6766 24.248 13.6986 24.3652 13.7429L28.026 15.1224L27.8256 11.3045C27.8122 11.05 27.8936 10.7995 28.0541 10.6014L30.4536 7.63879L26.7712 6.65245C26.5267 6.58692 26.3148 6.43382 26.1758 6.22232L24.0154 2.93141L21.9307 6.20957C21.7921 6.42754 21.5768 6.58551 21.3274 6.65235L17.6449 7.6387L20.0443 10.6013C20.2047 10.7994 20.2861 11.0499 20.2729 11.3044L20.073 15.1115L23.632 13.745C23.7509 13.6994 23.8762 13.6766 24.0015 13.6766ZM21.0605 5.65626H21.0614H21.0605Z" fill="#DFB757"/>
<path d="M41.6212 24.0546C41.3172 24.0546 41.0252 23.9199 40.8275 23.6816L38.4825 20.8544L34.8167 20.6191C34.4534 20.5958 34.1293 20.3826 33.964 20.0581C33.7986 19.7337 33.8167 19.3462 34.0114 19.0385L35.9758 15.9346L35.0669 12.3757C34.9768 12.0229 35.0794 11.6487 35.3369 11.3913C35.5944 11.1338 35.969 11.0313 36.3212 11.1214L39.8803 12.0303L42.9842 10.066C43.2917 9.87141 43.6795 9.85332 44.0039 10.0187C44.3282 10.1841 44.5414 10.5081 44.5648 10.8714L44.8001 14.5371L47.6273 16.882C47.9075 17.1144 48.0444 17.4775 47.9875 17.8372C47.9306 18.1968 47.6882 18.4997 47.3498 18.6341L43.9363 19.9908L42.5797 23.4043C42.4452 23.7427 42.1423 23.985 41.7827 24.042C41.7288 24.0504 41.6748 24.0546 41.6212 24.0546ZM36.6841 18.6722L39.0585 18.8246C39.3417 18.8428 39.6049 18.977 39.7862 19.1954L41.3051 21.0267L42.1837 18.8157C42.2885 18.552 42.4975 18.343 42.7612 18.2382L44.9723 17.3595L43.141 15.8406C42.9226 15.6593 42.7884 15.3961 42.7702 15.1129L42.6179 12.7386L40.6073 14.0108C40.3674 14.1627 40.0757 14.2088 39.8007 14.1385L37.4954 13.5498L38.0841 15.855C38.1543 16.1301 38.1081 16.4218 37.9563 16.6616L36.6841 18.6722Z" fill="#DFB757"/>
<path d="M6.47433 24.0546C6.4208 24.0546 6.3668 24.0504 6.31289 24.0419C5.95327 23.9849 5.65036 23.7426 5.51583 23.4042L4.16124 19.9955L0.658548 18.6372C0.315142 18.5041 0.0687669 18.1978 0.0122356 17.834C-0.0442956 17.47 0.0976419 17.1035 0.384611 16.8726L3.2962 14.5282L3.53086 10.8714C3.5542 10.5081 3.76739 10.184 4.09177 10.0187C4.41633 9.85332 4.8038 9.87141 5.11139 10.066L8.21536 12.0303L11.7744 11.1214C12.127 11.0312 12.5012 11.1338 12.7588 11.3913C13.0162 11.6488 13.1189 12.0229 13.0288 12.3757L12.1199 15.9346L14.084 19.0385C14.2787 19.3462 14.2968 19.7337 14.1315 20.0581C13.9662 20.3825 13.6421 20.5958 13.2787 20.6191L9.61299 20.8544L7.26792 23.6816C7.0703 23.9199 6.77836 24.0546 6.47433 24.0546ZM3.0683 17.3595L5.32627 18.235C5.59374 18.3387 5.80589 18.5491 5.91183 18.8156L6.79045 21.0266L8.30939 19.1953C8.49061 18.9768 8.75377 18.8427 9.03708 18.8245L11.4115 18.6721L10.1392 16.6616C9.98742 16.4217 9.9412 16.13 10.0114 15.855L10.6002 13.5498L8.29486 14.1385C8.01989 14.2088 7.72814 14.1625 7.48824 14.0108L5.47767 12.7386L5.32533 15.1129C5.30686 15.4013 5.16802 15.6688 4.94292 15.85L3.0683 17.3595Z" fill="#DFB757"/>
<path d="M47.6982 40.1781L42.1754 34.6543C42.2063 34.5306 42.2297 34.4406 42.2419 34.3928L43.6604 30.0419C43.8226 29.544 43.5872 29.005 43.1119 28.7856L42.4997 28.5025C36.7698 25.8587 30.3892 24.4609 24.0479 24.4609C17.7058 24.4609 11.3252 25.8587 5.5952 28.5025L4.98302 28.7856C4.51333 29.0022 4.27708 29.5347 4.43083 30.0287C4.43552 30.0437 4.90614 31.5493 5.30458 32.7465L5.85489 34.3956C5.86708 34.4434 5.88864 34.5306 5.91958 34.6487L0.307724 40.1715C0.0358502 40.4396 -0.0663369 40.8362 0.0433502 41.2018C0.1521 41.5674 0.454911 41.8431 0.828972 41.9181L5.20989 42.7946L6.08551 47.1746C6.16051 47.5477 6.43426 47.8487 6.79801 47.9593C6.89645 47.9893 6.99676 48.0033 7.09707 48.0033C7.36613 48.0033 7.62957 47.8974 7.82551 47.7015L10.8583 44.6687C11.8746 43.6524 12.3874 42.3409 12.3011 40.9749C12.2421 40.0393 11.9008 39.1234 11.328 38.3199C19.5573 35.68 28.5554 35.6818 36.782 38.3246C35.3054 40.3927 35.4048 42.9315 37.142 44.6687L40.1748 47.7015C40.3707 47.8974 40.6341 48.0033 40.9032 48.0033C41.0035 48.0033 41.1038 47.9893 41.2023 47.9593C41.566 47.8487 41.8397 47.5477 41.9147 47.1746L42.7904 42.7946L47.1713 41.9181C47.5435 41.8431 47.8454 41.5693 47.956 41.2056C48.0657 40.8419 47.9672 40.4463 47.6982 40.1781ZM9.4005 43.21L7.72988 44.8806L7.09707 41.7157C7.01551 41.3078 6.69582 40.9882 6.28801 40.9066L3.14178 40.2775L6.52895 36.9429C6.70614 37.5813 6.88707 38.2057 7.03051 38.6378C7.17395 39.0691 7.57613 39.3428 8.00832 39.3428C8.10957 39.3428 8.21082 39.3288 8.31207 39.2978C8.5905 39.2116 8.89332 39.116 9.21863 39.0119C9.82894 39.6166 10.1955 40.3591 10.2424 41.1053C10.2921 41.8825 10.0005 42.6099 9.4005 43.21ZM6.67239 30.2782C17.7255 25.2504 30.361 25.2495 41.4151 30.2744L39.4041 37.015C38.9513 36.8688 38.4544 36.7057 37.9191 36.5266C28.9735 33.5304 19.1205 33.5304 10.1749 36.5266C9.6405 36.7066 9.14456 36.8697 8.69175 37.015C8.26444 35.4758 6.67239 30.2782 6.67239 30.2782ZM41.7122 40.9065C41.3044 40.9881 40.9848 41.3077 40.9032 41.7156L40.2704 44.8805L38.5998 43.2099C37.2741 41.8843 37.7813 40.1621 38.8838 39.0146C39.2054 39.1168 39.5063 39.2115 39.7838 39.2968C40.3191 39.4618 40.8882 39.1693 41.0654 38.6378C41.2079 38.2093 41.3869 37.5915 41.5623 36.9587L44.8772 40.2737L41.7122 40.9065Z" fill="black"/>
</g>
<defs>
<clipPath id="clip0_343_1202">
<rect width="48" height="48" fill="white"/>
</clipPath>
</defs>
</svg>
