<svg width="48" height="48" viewBox="0 0 48 48" fill="none" xmlns="http://www.w3.org/2000/svg">
<g clip-path="url(#clip0_11763_8992)">
<path d="M44.0612 0H3.93731C1.79222 0 0.046875 1.74525 0.046875 3.89044V44.1096C0.046875 46.2548 1.79222 48 3.93731 48H44.0611C46.2063 48 47.9515 46.2548 47.9515 44.1096V3.89044C47.9516 1.74525 46.2063 0 44.0612 0ZM3.93731 2.0625H44.0611C45.069 2.0625 45.889 2.88253 45.889 3.89044V11.4367H2.10938V3.89044C2.10938 2.88253 2.92941 2.0625 3.93731 2.0625ZM44.0612 45.9375H3.93731C2.92941 45.9375 2.10938 45.1175 2.10938 44.1096V13.4993H45.889V44.1096C45.8891 45.1175 45.0691 45.9375 44.0612 45.9375Z" fill="black"/>
<path d="M41.2035 7.78125H23.9531C23.3836 7.78125 22.9219 7.31953 22.9219 6.75C22.9219 6.18047 23.3836 5.71875 23.9531 5.71875H41.2035C41.773 5.71875 42.2347 6.18047 42.2347 6.75C42.2347 7.31953 41.773 7.78125 41.2035 7.78125Z" fill="black"/>
<path d="M26.8106 42.186H21.0923C20.5227 42.186 20.061 41.7243 20.061 41.1548V38.4677C19.449 38.1949 18.8678 37.8579 18.3228 37.46L15.9921 38.8056C15.4988 39.0904 14.8682 38.9212 14.5834 38.4281L11.7243 33.4759C11.4395 32.9827 11.6085 32.3519 12.1017 32.0672L14.4057 30.737C14.3634 30.3809 14.3427 30.0437 14.3427 29.718C14.3427 29.3924 14.3635 29.0551 14.4057 28.699L12.1017 27.3688C11.6085 27.084 11.4395 26.4533 11.7243 25.9601L14.5834 21.0079C14.8681 20.5147 15.4989 20.3457 15.9921 20.6304L18.3228 21.976C18.8677 21.5782 19.4489 21.2412 20.061 20.9683V18.2812C20.061 17.7117 20.5227 17.25 21.0923 17.25H26.8106C27.3802 17.25 27.8419 17.7117 27.8419 18.2812V20.9683C28.4539 21.2411 29.0351 21.5781 29.5801 21.976L31.9108 20.6304C32.404 20.3457 33.0347 20.5147 33.3195 21.0079L36.1786 25.9601C36.4634 26.4533 36.2944 27.0841 35.8012 27.3688L33.4972 28.699C33.5394 29.0551 33.5602 29.3924 33.5602 29.718C33.5602 30.0436 33.5394 30.3808 33.4972 30.737L35.8012 32.0672C36.2944 32.352 36.4634 32.9827 36.1786 33.4759L33.3195 38.4281C33.0348 38.9213 32.404 39.0903 31.9108 38.8056L29.5801 37.46C29.0352 37.8578 28.454 38.1948 27.8419 38.4677V41.1548C27.8419 41.7243 27.3802 42.186 26.8106 42.186ZM22.1235 40.1235H25.7794V37.7703C25.7794 37.334 26.0541 36.9448 26.4652 36.7987C27.3244 36.4932 28.117 36.0338 28.8211 35.433C29.1533 35.1496 29.6278 35.1062 30.006 35.3244L32.0488 36.5038L33.8768 33.3378L31.8561 32.1712C31.4781 31.9529 31.2784 31.5203 31.3576 31.0911C31.4532 30.5727 31.4978 30.1364 31.4978 29.7182C31.4978 29.2999 31.4532 28.8637 31.3576 28.3452C31.2784 27.9159 31.4781 27.4834 31.8561 27.2651L33.8768 26.0985L32.0488 22.9325L30.006 24.1118C29.6279 24.3301 29.1533 24.2867 28.8211 24.0033C28.1169 23.4025 27.3243 22.9431 26.4652 22.6376C26.0541 22.4915 25.7794 22.1023 25.7794 21.666V19.3128H22.1235V21.666C22.1235 22.1023 21.8488 22.4915 21.4377 22.6376C20.5786 22.9431 19.7859 23.4025 19.0818 24.0033C18.7496 24.2867 18.2751 24.3301 17.8969 24.1118L15.8541 22.9325L14.0261 26.0985L16.0468 27.2651C16.4248 27.4834 16.6245 27.916 16.5453 28.3452C16.4497 28.8636 16.4051 29.2999 16.4051 29.7182C16.4051 30.1364 16.4497 30.5727 16.5453 31.0911C16.6245 31.5203 16.4248 31.9529 16.0468 32.1712L14.0261 33.3378L15.8541 36.5038L17.8969 35.3244C18.275 35.1062 18.7496 35.1497 19.0818 35.433C19.7859 36.0338 20.5786 36.4932 21.4377 36.7987C21.8488 36.9448 22.1235 37.334 22.1235 37.7703V40.1235Z" fill="#5e5ee9"/>
<path d="M23.9529 33.609C21.8078 33.609 20.0625 31.8638 20.0625 29.7186C20.0625 27.5734 21.8078 25.8281 23.9529 25.8281C26.0981 25.8281 27.8434 27.5734 27.8434 29.7186C27.8434 31.8638 26.0981 33.609 23.9529 33.609ZM23.9529 27.8906C22.945 27.8906 22.125 28.7107 22.125 29.7186C22.125 30.7265 22.945 31.5465 23.9529 31.5465C24.9608 31.5465 25.7809 30.7265 25.7809 29.7186C25.7809 28.7107 24.9608 27.8906 23.9529 27.8906Z" fill="#5e5ee9"/>
<path d="M18.3277 7.87573C16.8459 7.84958 17.0714 5.56929 18.5293 5.83386C19.7238 6.04114 19.5397 7.90536 18.3277 7.87573Z" fill="black"/>
<path d="M12.8005 7.8758C11.3184 7.85002 11.5441 5.56889 13.0021 5.83392C14.196 6.04111 14.0124 7.90627 12.8005 7.8758Z" fill="black"/>
<path d="M7.36656 7.8757C5.88503 7.84879 6.1105 5.56954 7.56822 5.83382C8.76306 6.04073 8.57819 7.90617 7.36656 7.8757Z" fill="black"/>
</g>
<defs>
<clipPath id="clip0_11763_8992">
<rect width="48" height="48" fill="white"/>
</clipPath>
</defs>
</svg>
