<svg width="48" height="48" viewBox="0 0 48 48" fill="none" xmlns="http://www.w3.org/2000/svg">
<g clip-path="url(#clip0_11763_8960)">
<path d="M44.0612 0C42.273 0 40.7637 1.21303 40.3105 2.85919H27.842V1.03125C27.842 0.461719 27.3803 0 26.8107 0H21.0923C20.5228 0 20.0611 0.461719 20.0611 1.03125V2.85919H7.68787C7.23478 1.21303 5.7255 0 3.93731 0C1.79213 0 0.046875 1.74525 0.046875 3.89044C0.046875 6.03562 1.79213 7.78088 3.93731 7.78088C5.7255 7.78088 7.23478 6.56784 7.68787 4.92169H20.0611V6.74963C20.0611 7.31916 20.5228 7.78088 21.0923 7.78088H26.8107C27.3803 7.78088 27.842 7.31916 27.842 6.74963V4.92169H40.3105C40.7637 6.56784 42.273 7.78088 44.0612 7.78088C46.2064 7.78088 47.9516 6.03562 47.9516 3.89044C47.9516 1.74525 46.2064 0 44.0612 0ZM3.93731 5.71837C2.92941 5.71837 2.10938 4.89834 2.10938 3.89044C2.10938 2.88253 2.92941 2.0625 3.93731 2.0625C4.94522 2.0625 5.76525 2.88253 5.76525 3.89044C5.76525 4.89844 4.94522 5.71837 3.93731 5.71837ZM25.7795 5.71837H22.1236V2.0625H25.7795V5.71837ZM44.0612 5.71837C43.0533 5.71837 42.2332 4.89834 42.2332 3.89044C42.2332 2.88253 43.0533 2.0625 44.0612 2.0625C45.0691 2.0625 45.8891 2.88253 45.8891 3.89044C45.8891 4.89844 45.0691 5.71837 44.0612 5.71837Z" fill="#5e5ee9"/>
<path d="M29.671 22.8738H28.4804L30.5933 18.6479C30.7385 18.3576 30.7385 18.0158 30.5933 17.7255L24.8751 6.28884C24.7004 5.93944 24.3433 5.71875 23.9528 5.71875C23.5622 5.71875 23.205 5.93944 23.0303 6.28884L17.312 17.7256C17.1668 18.0159 17.1668 18.3577 17.312 18.648L19.4249 22.8739H18.2344C17.6648 22.8739 17.2031 23.3356 17.2031 23.9051C17.2031 24.4747 17.6648 24.9364 18.2344 24.9364H20.0623V35.4371C20.0623 36.0067 20.524 36.4684 21.0936 36.4684C21.6631 36.4684 22.1248 36.0067 22.1248 35.4371V24.9363H25.7807V35.437C25.7807 36.0066 26.2424 36.4683 26.8119 36.4683C27.3815 36.4683 27.8432 36.0066 27.8432 35.437V24.9363H29.6711C30.2407 24.9363 30.7024 24.4746 30.7024 23.905C30.7024 23.3355 30.2406 22.8738 29.671 22.8738ZM24.984 22.8738V18.1867C24.984 17.6171 24.5222 17.1554 23.9528 17.1554C23.3832 17.1554 22.9215 17.6171 22.9215 18.1867V22.8738H21.7309L19.3873 18.1867L23.9527 9.05588L28.518 18.1867L26.1745 22.8738H24.984Z" fill="black"/>
<path d="M44.0614 36.4678H3.9375C3.36797 36.4678 2.90625 36.0061 2.90625 35.4365C2.90625 34.867 3.36797 34.4053 3.9375 34.4053H44.0614C44.6309 34.4053 45.0926 34.867 45.0926 35.4365C45.0926 36.0061 44.6309 36.4678 44.0614 36.4678Z" fill="#5e5ee9"/>
<path d="M41.2022 11.4365H26.8109C26.2414 11.4365 25.7797 11.8982 25.7797 12.4678C25.7797 13.0373 26.2414 13.499 26.8109 13.499H41.2022C42.2101 13.499 43.0301 14.3191 43.0301 15.327V38.2957C43.0301 39.3037 42.2101 40.1236 41.2022 40.1236H6.79669C5.78878 40.1236 4.96875 39.3036 4.96875 38.2957V15.327C4.96875 14.3191 5.78878 13.499 6.79669 13.499H21.0926C21.6622 13.499 22.1239 13.0373 22.1239 12.4678C22.1239 11.8982 21.6622 11.4365 21.0926 11.4365H6.79669C4.6515 11.4365 2.90625 13.1818 2.90625 15.327V38.2957C2.90625 40.4409 4.6515 42.1861 6.79669 42.1861H20.0614V45.9373H15.3742C14.8047 45.9373 14.343 46.399 14.343 46.9685C14.343 47.5381 14.8047 47.9998 15.3742 47.9998H32.5293C33.0988 47.9998 33.5605 47.5381 33.5605 46.9685C33.5605 46.399 33.0988 45.9373 32.5293 45.9373H27.8422V42.1861H41.2022C43.3474 42.1861 45.0926 40.4409 45.0926 38.2957V15.327C45.0926 13.1817 43.3474 11.4365 41.2022 11.4365ZM25.7797 45.9373H22.1238V42.1861H25.7797V45.9373Z" fill="black"/>
</g>
<defs>
<clipPath id="clip0_11763_8960">
<rect width="48" height="48" fill="white"/>
</clipPath>
</defs>
</svg>
