<svg width="48" height="48" viewBox="0 0 48 48" fill="none" xmlns="http://www.w3.org/2000/svg">
<path d="M46.9688 15.0244H1.03125C0.461719 15.0244 0 14.5627 0 13.9932C0 13.4236 0.461719 12.9619 1.03125 12.9619H46.9688C47.5383 12.9619 48 13.4236 48 13.9932C48 14.5628 47.5383 15.0244 46.9688 15.0244Z" fill="#5e5ee9"/>
<path d="M44.1096 46.4755H3.89044C1.74525 46.4755 0 44.7304 0 42.5851V5.41583C0 3.27064 1.74525 1.52539 3.89044 1.52539H44.1096C46.2548 1.52539 48 3.27064 48 5.41583V42.5852C48 44.7304 46.2548 46.4755 44.1096 46.4755ZM3.89044 3.58789C2.88253 3.58789 2.0625 4.40792 2.0625 5.41583V42.5852C2.0625 43.5931 2.88253 44.4131 3.89044 44.4131H44.1096C45.1175 44.4131 45.9375 43.5931 45.9375 42.5852V5.41583C45.9375 4.40792 45.1175 3.58789 44.1096 3.58789H3.89044Z" fill="black"/>
<path d="M41.252 9.30664H23.9062C23.3367 9.30664 22.875 8.84492 22.875 8.27539C22.875 7.70586 23.3367 7.24414 23.9062 7.24414H41.252C41.8215 7.24414 42.2832 7.70586 42.2832 8.27539C42.2832 8.84492 41.8215 9.30664 41.252 9.30664Z" fill="black"/>
<path d="M21.2611 36.3685C21.1075 36.3685 20.9514 36.334 20.8044 36.2611C20.294 36.0084 20.085 35.3897 20.3378 34.8793L25.97 23.5046C26.2227 22.9943 26.8412 22.7852 27.3517 23.038C27.8621 23.2907 28.071 23.9094 27.8183 24.4197L22.1861 35.7945C22.0062 36.1579 21.6408 36.3685 21.2611 36.3685Z" fill="#5e5ee9"/>
<path d="M15.3655 36.3728C15.1016 36.3728 14.8377 36.2721 14.6363 36.0707L8.94659 30.3809C8.54384 29.9782 8.54384 29.3252 8.94659 28.9225L14.6363 23.2327C15.0391 22.83 15.6919 22.8299 16.0948 23.2327C16.4975 23.6354 16.4975 24.2884 16.0948 24.6912L11.1342 29.6518L16.0948 34.6123C16.4975 35.0151 16.4975 35.6681 16.0948 36.0708C15.8934 36.2721 15.6293 36.3728 15.3655 36.3728Z" fill="black"/>
<path d="M32.6328 36.3728C32.3689 36.3728 32.105 36.2722 31.9036 36.0708C31.5009 35.668 31.5009 35.0151 31.9036 34.6123L36.8641 29.6517L31.9036 24.6911C31.5009 24.2884 31.5009 23.6354 31.9036 23.2327C32.3064 22.83 32.9593 22.83 33.3621 23.2327L39.0518 28.9224C39.4545 29.3252 39.4545 29.9782 39.0518 30.3809L33.3621 36.0707C33.1606 36.2722 32.8967 36.3728 32.6328 36.3728Z" fill="black"/>
<path d="M18.282 9.4015C17.0708 9.4285 16.8864 7.5685 18.0804 7.35869C19.541 7.09806 19.7639 9.37272 18.282 9.4015Z" fill="black"/>
<path d="M12.4696 9.4018C11.2583 9.42974 11.0738 7.56805 12.2681 7.35899C13.7269 7.09621 13.9511 9.37424 12.4696 9.4018Z" fill="black"/>
<path d="M6.65617 9.40178C5.17408 9.37347 5.39917 7.09638 6.85783 7.35897C8.05183 7.56803 7.86771 9.42981 6.65617 9.40178Z" fill="black"/>
</svg>
