<svg width="48" height="48" viewBox="0 0 48 48" fill="none" xmlns="http://www.w3.org/2000/svg">
<g clip-path="url(#clip0_343_1198)">
<path d="M18.2654 32.0587C17.2575 32.0587 16.4375 31.2386 16.4375 30.2307C16.4375 29.2228 17.2575 28.4028 18.2654 28.4028C19.2733 28.4028 20.0934 29.2228 20.0934 30.2307C20.0934 30.8002 20.5551 31.262 21.1246 31.262C21.6942 31.262 22.1559 30.8002 22.1559 30.2307C22.1559 28.4482 20.9502 26.9427 19.312 26.4845V24.0938C19.312 23.5242 18.8502 23.0625 18.2807 23.0625C17.7112 23.0625 17.2495 23.5242 17.2495 24.0938V26.4758C15.5955 26.9239 14.375 28.4371 14.375 30.2308C14.375 32.376 16.1203 34.1212 18.2654 34.1212C19.2733 34.1212 20.0934 34.9413 20.0934 35.9492C20.0934 36.9571 19.2733 37.7771 18.2654 37.7771C17.2575 37.7771 16.4375 36.9571 16.4375 35.9492C16.4375 35.3797 15.9758 34.9179 15.4062 34.9179C14.8367 34.9179 14.375 35.3797 14.375 35.9492C14.375 37.7429 15.5955 39.2561 17.2495 39.7042V41.2488C17.2495 41.8183 17.7112 42.28 18.2807 42.28C18.8502 42.28 19.312 41.8183 19.312 41.2488V39.6954C20.9502 39.2371 22.1559 37.7318 22.1559 35.9492C22.1559 33.8039 20.4106 32.0587 18.2654 32.0587Z" fill="#DFB757"/>
<path d="M48 32.6729C48 31.5433 47.5157 30.5251 46.7443 29.8137C47.5157 29.1023 48 28.0841 48 26.9545C48 24.8093 46.2548 23.0641 44.1096 23.0641H32.5776C32.3797 23.0641 32.1854 23.0792 31.9955 23.1078C30.4468 21.1908 28.5963 19.6141 26.5462 18.4555C27.3687 17.7416 27.8904 16.6898 27.8904 15.5178C27.8904 13.8444 26.8283 12.4146 25.343 11.8664L27.8396 4.21013C27.942 3.89606 27.8878 3.552 27.6937 3.28472C27.4997 3.01744 27.1895 2.85919 26.8592 2.85919H22.0323C21.5791 1.21303 20.0697 0 18.2816 0C16.4933 0 14.9829 1.21294 14.5298 2.85919H9.70406C9.37378 2.85919 9.06347 3.01744 8.8695 3.28472C8.67553 3.552 8.62134 3.89606 8.72363 4.21013L11.2202 11.8664C9.73481 12.4145 8.67281 13.8443 8.67281 15.5178C8.67281 16.6904 9.195 17.7427 10.0182 18.4566C7.45538 19.9067 5.17209 22.0186 3.44494 24.5668C1.22344 27.8441 0 31.7383 0 35.532C0 40.2918 1.88972 43.717 5.61675 45.7125C8.53172 47.2731 12.5561 48 18.2816 48C23.1049 48 26.6847 47.4868 29.4309 46.3935C30.1388 47.3661 31.2853 48 32.5776 48H44.1096C46.2548 48 48 46.2548 48 44.1096C48 42.98 47.5157 41.9617 46.7443 41.2504C47.5157 40.539 48 39.5208 48 38.3912C48 37.2617 47.5157 36.2434 46.7444 35.532C47.5157 34.8206 48 33.8024 48 32.6729ZM45.9375 26.9545C45.9375 27.9624 45.1175 28.7825 44.1096 28.7825H32.5776C31.5697 28.7825 30.7496 27.9624 30.7496 26.9545C30.7496 25.9466 31.5697 25.1266 32.5776 25.1266H44.1096C45.1175 25.1266 45.9375 25.9466 45.9375 26.9545ZM15.4224 4.92169C15.992 4.92169 16.4537 4.45997 16.4537 3.89044C16.4537 2.88253 17.2737 2.0625 18.2816 2.0625C19.2895 2.0625 20.1096 2.88253 20.1096 3.89044V6.74963C20.1096 7.31916 20.5713 7.78088 21.1408 7.78088C21.7103 7.78088 22.1721 7.31916 22.1721 6.74963V4.92169H25.4382L23.2516 11.6273H13.3117L11.1251 4.92169H15.4224V4.92169ZM12.5601 13.6899C12.561 13.6899 12.562 13.69 12.563 13.69C12.5653 13.69 12.5677 13.6898 12.57 13.6898H23.9931C23.9954 13.6898 23.9978 13.69 24.0001 13.69C24.001 13.69 24.0021 13.6899 24.003 13.6899C25.0095 13.6916 25.8278 14.5109 25.8278 15.5177C25.8278 16.525 25.0087 17.3447 24.0015 17.3455C23.9902 17.3455 23.979 17.3453 23.9678 17.3456H12.5933C12.5838 17.3453 12.5743 17.3456 12.5648 17.3456H12.5632C11.5553 17.3456 10.7354 16.5256 10.7354 15.5177C10.7354 14.5109 11.5537 13.6916 12.5601 13.6899ZM18.2816 45.9375C12.909 45.9375 9.19397 45.2882 6.59025 43.8941C3.54356 42.263 2.0625 39.5276 2.0625 35.532C2.0625 32.1467 3.15975 28.6633 5.15213 25.7239C7.08422 22.8734 9.78169 20.6374 12.7641 19.4082H23.7952C26.1577 20.3805 28.3001 21.953 30.053 23.9981C29.218 24.7122 28.6872 25.7723 28.6872 26.9545C28.6872 28.0841 29.1715 29.1023 29.9429 29.8137C29.1715 30.5251 28.6872 31.5433 28.6872 32.6729C28.6872 33.8024 29.1715 34.8206 29.9428 35.532C29.1714 36.2434 28.6872 37.2616 28.6872 38.3912C28.6872 39.5208 29.1715 40.539 29.9429 41.2504C29.0882 42.0266 28.5828 43.241 28.7041 44.4636C26.2077 45.4671 22.8637 45.9375 18.2816 45.9375ZM45.9375 44.1096C45.9375 45.1175 45.1175 45.9375 44.1096 45.9375H32.5776C31.5697 45.9375 30.7496 45.1175 30.7496 44.1096C30.7496 43.1017 31.5697 42.2816 32.5776 42.2816H44.1096C45.1175 42.2816 45.9375 43.1017 45.9375 44.1096ZM45.9375 38.3912C45.9375 39.3991 45.1175 40.2191 44.1096 40.2191H32.5776C31.5697 40.2191 30.7496 39.3991 30.7496 38.3912C30.7496 37.3833 31.5697 36.5632 32.5776 36.5632H44.1096C45.1175 36.5632 45.9375 37.3833 45.9375 38.3912ZM32.5776 34.5007C31.5697 34.5007 30.7496 33.6808 30.7496 32.6729C30.7496 31.665 31.5697 30.845 32.5776 30.845H44.1096C45.1175 30.845 45.9375 31.665 45.9375 32.6729C45.9375 33.6808 45.1175 34.5007 44.1096 34.5007H32.5776Z" fill="black"/>
</g>
<defs>
<clipPath id="clip0_343_1198">
<rect width="48" height="48" fill="white"/>
</clipPath>
</defs>
</svg>
