<svg width="48" height="48" viewBox="0 0 48 48" fill="none" xmlns="http://www.w3.org/2000/svg">
<path d="M46.9688 33.6094H1.03125C0.461719 33.6094 0 33.1477 0 32.5781C0 32.0086 0.461719 31.5469 1.03125 31.5469H46.9688C47.5383 31.5469 48 32.0086 48 32.5781C48 33.1477 47.5383 33.6094 46.9688 33.6094Z" fill="#DFB757"/>
<path d="M44.1096 2.95312H3.98578C1.82522 2.95312 0 4.73466 0 6.84347V35.4352C0 37.5441 1.82522 39.3257 3.98578 39.3257H20.1096V42.9816H15.4224C14.8529 42.9816 14.3912 43.4433 14.3912 44.0128C14.3912 44.5823 14.8529 45.0441 15.4224 45.0441H32.5775C33.147 45.0441 33.6087 44.5823 33.6087 44.0128C33.6087 43.4433 33.147 42.9816 32.5775 42.9816H27.8903V39.3258H44.1095C46.2547 39.3258 47.9999 37.5805 47.9999 35.4353V6.84347C48 4.69828 46.2548 2.95312 44.1096 2.95312ZM25.8279 42.9816H22.1721V39.3258H25.8279V42.9816ZM45.9375 35.4353C45.9375 36.4432 45.1175 37.2633 44.1096 37.2633H3.98578C2.94319 37.2633 2.0625 36.4261 2.0625 35.4353V6.84347C2.0625 5.85263 2.94319 5.01553 3.98578 5.01553H44.1096C45.1175 5.01553 45.9375 5.83556 45.9375 6.84347V35.4353Z" fill="black"/>
<path d="M19.1179 27.4589C19.2438 27.2861 19.3113 27.0721 19.3119 26.8585V9.70341C19.3223 9.14719 18.8297 8.65829 18.2736 8.67216H6.85085C6.29491 8.65838 5.80235 9.14729 5.81266 9.70341V26.8585C5.80235 27.4118 6.29088 27.9009 6.84447 27.8898H18.2801C18.607 27.8912 18.9302 27.7272 19.1179 27.4589ZM11.3229 18.281L7.87516 23.4526V13.1094L11.3229 18.281ZM8.77085 10.7347H16.3538L12.5623 16.4218L8.77085 10.7347ZM12.5623 20.14L16.3538 25.8273H8.77085L12.5623 20.14ZM13.8017 18.281L17.2494 13.1094V23.4526L13.8017 18.281Z" fill="#DFB757"/>
<path d="M41.1551 16.4527H24C23.4305 16.4527 22.9688 15.991 22.9688 15.4215V9.70312C22.9688 9.13359 23.4305 8.67188 24 8.67188H41.1551C41.7247 8.67188 42.1864 9.13359 42.1864 9.70312V15.4215C42.1864 15.991 41.7247 16.4527 41.1551 16.4527ZM25.0312 14.3902H40.1239V10.7344H25.0312V14.3902Z" fill="black"/>
<path d="M29.7184 27.8902H24C23.4305 27.8902 22.9688 27.4285 22.9688 26.859V21.1406C22.9688 20.5711 23.4305 20.1094 24 20.1094H29.7184C30.2879 20.1094 30.7496 20.5711 30.7496 21.1406V26.859C30.7496 27.4285 30.2879 27.8902 29.7184 27.8902ZM25.0312 25.8277H28.6871V22.1719H25.0312V25.8277Z" fill="black"/>
<path d="M41.1559 27.8902H35.4375C34.868 27.8902 34.4062 27.4285 34.4062 26.859V21.1406C34.4062 20.5711 34.868 20.1094 35.4375 20.1094H41.1559C41.7254 20.1094 42.1871 20.5711 42.1871 21.1406V26.859C42.1871 27.4285 41.7254 27.8902 41.1559 27.8902ZM36.4688 25.8277H40.1246V22.1719H36.4688V25.8277Z" fill="black"/>
</svg>
