<svg width="48" height="48" viewBox="0 0 48 48" fill="none" xmlns="http://www.w3.org/2000/svg">
<g clip-path="url(#clip0_11763_8945)">
<path d="M8.55867 19.4826C8.30367 19.4826 8.05692 19.3881 7.86689 19.216L6.08939 17.6078C5.66705 17.2257 5.63442 16.5736 6.01655 16.1512C6.39858 15.729 7.0508 15.6963 7.47314 16.0784L8.47336 16.9834L11.3572 13.6898C11.7323 13.2613 12.3839 13.2181 12.8124 13.5933C13.2408 13.9685 13.284 14.62 12.9089 15.0485L9.33455 19.1306C9.15249 19.3386 8.89449 19.4647 8.61858 19.4808C8.59852 19.482 8.57855 19.4826 8.55867 19.4826Z" fill="#5e5ee9"/>
<path d="M25.1593 19.4268H17.0469C16.4773 19.4268 16.0156 18.965 16.0156 18.3955C16.0156 17.826 16.4773 17.3643 17.0469 17.3643H25.1593C25.7288 17.3643 26.1905 17.826 26.1905 18.3955C26.1905 18.965 25.7288 19.4268 25.1593 19.4268Z" fill="black"/>
<path d="M25.1598 25.3457H6.66406C6.09453 25.3457 5.63281 24.884 5.63281 24.3145C5.63281 23.7449 6.09453 23.2832 6.66406 23.2832H25.1598C25.7293 23.2832 26.1911 23.7449 26.1911 24.3145C26.1911 24.884 25.7293 25.3457 25.1598 25.3457Z" fill="black"/>
<path d="M8.55867 35.8411C8.30367 35.8411 8.05692 35.7466 7.86689 35.5745L6.08939 33.9663C5.66705 33.5842 5.63442 32.9321 6.01655 32.5097C6.39858 32.0874 7.0508 32.0548 7.47314 32.4369L8.47336 33.3419L11.3572 30.0482C11.7323 29.6197 12.3839 29.5765 12.8124 29.9517C13.2409 30.3269 13.2841 30.9784 12.909 31.4069L9.33455 35.4891C9.15249 35.6971 8.89449 35.8232 8.61858 35.8393C8.59852 35.8405 8.57855 35.8411 8.55867 35.8411Z" fill="#5e5ee9"/>
<path d="M25.5329 35.7793H17.0469C16.4773 35.7793 16.0156 35.3176 16.0156 34.748C16.0156 34.1785 16.4773 33.7168 17.0469 33.7168H25.5329C26.1025 33.7168 26.5642 34.1785 26.5642 34.748C26.5642 35.3176 26.1026 35.7793 25.5329 35.7793Z" fill="black"/>
<path d="M25.1598 41.6143H6.66406C6.09453 41.6143 5.63281 41.1525 5.63281 40.583C5.63281 40.0135 6.09453 39.5518 6.66406 39.5518H25.1598C25.7293 39.5518 26.1911 40.0135 26.1911 40.583C26.1911 41.1525 25.7293 41.6143 25.1598 41.6143Z" fill="black"/>
<path d="M44.8678 0H17.6988C17.6011 0.00046875 17.2408 0.0159375 16.8589 0.189094C16.5623 0.122437 16.2546 0.0867188 15.9394 0.0867188C13.9922 0.0867188 12.3257 1.43034 11.8366 3.23897H10.0146C9.11003 3.23897 8.374 3.975 8.374 4.87959V5.13956H2.95309C1.35278 5.13956 0.0507812 6.44156 0.0507812 8.04187V45.0978C0.0507812 46.698 1.35269 48 2.95309 48H28.926C30.3686 48 31.5683 46.9418 31.7909 45.5611H45.1075C45.22 45.5611 45.3302 45.5427 45.4343 45.5079C46.8843 45.2393 47.9527 43.972 47.9527 42.4762V3.08494C47.9527 1.38394 46.5689 0 44.8678 0ZM12.7233 5.30137C13.2848 5.30137 13.7431 4.85222 13.7544 4.29084C13.7781 3.10988 14.7584 2.14913 15.9396 2.14913C17.1209 2.14913 18.101 3.10988 18.1248 4.29084C18.1361 4.85222 18.5944 5.30137 19.1559 5.30137H21.4427V7.66453H10.4365V5.30137H12.7233ZM29.7658 45.0977C29.7658 45.5607 29.389 45.9375 28.926 45.9375H2.95309C2.49006 45.9375 2.11328 45.5607 2.11328 45.0977V8.04178C2.11328 7.57875 2.49006 7.20197 2.95309 7.20197H8.37409V7.90088C8.37409 8.90775 9.19328 9.72703 10.2002 9.72703H21.6789C22.6859 9.72703 23.5051 8.90784 23.5051 7.90088V7.20197H28.9261C29.3891 7.20197 29.7659 7.57875 29.7659 8.04178V45.0977H29.7658ZM45.8902 42.4762C45.8902 42.9956 45.5015 43.4318 44.9862 43.4908C44.9677 43.4929 44.9492 43.4955 44.9311 43.4986H31.8283V8.04178C31.8283 6.44147 30.5263 5.13947 28.926 5.13947H23.505V4.89741C23.505 3.98287 22.761 3.23887 21.8464 3.23887H20.0424C19.9285 2.81766 19.75 2.42213 19.5197 2.0625H44.8678C45.4316 2.0625 45.8902 2.52122 45.8902 3.08494V42.4762Z" fill="black"/>
</g>
<defs>
<clipPath id="clip0_11763_8945">
<rect width="48" height="48" fill="white"/>
</clipPath>
</defs>
</svg>
