<svg width="150" height="31" viewBox="0 0 150 31" fill="none" xmlns="http://www.w3.org/2000/svg">
<path d="M116.901 11.6956C114.99 11.6956 113.423 12.3634 112.309 13.6383L112.524 12.5137C112.593 12.1583 112.35 11.8578 111.996 11.8578C111.641 11.8578 111.282 12.1583 111.216 12.5137L107.915 29.7032C107.847 30.0586 108.089 30.3591 108.443 30.3591C108.797 30.3591 109.156 30.0586 109.224 29.7032L110.449 23.3194C110.901 24.1352 111.947 25.255 114.298 25.255C116.136 25.255 117.677 24.6885 118.882 23.5687C120.123 22.4143 120.971 20.697 121.4 18.461C121.829 16.2285 121.64 14.5136 120.84 13.3676C120.067 12.2585 118.74 11.6968 116.901 11.6968V11.6956ZM114.529 24.0505C111.734 24.0505 110.627 22.1185 111.33 18.4622C112.039 14.7712 113.808 12.9001 116.589 12.9001C119.63 12.9001 120.757 14.7187 120.037 18.4622C119.305 22.2748 117.555 24.0505 114.529 24.0505ZM145.385 17.7359C143.726 17.1181 142.159 16.5362 142.457 14.9859C142.607 14.2071 143.237 12.8989 145.777 12.8989C147.204 12.8989 148.105 13.2948 148.887 14.2655C149.033 14.4468 149.199 14.4468 149.271 14.4468C149.439 14.4383 149.6 14.3749 149.729 14.2662C149.859 14.1575 149.949 14.0095 149.986 13.8446C150.003 13.7728 150.004 13.6985 149.991 13.6261C149.978 13.5537 149.95 13.4848 149.909 13.4236L149.9 13.4069C149.107 12.2704 147.797 11.6944 146.009 11.6944C143.401 11.6944 141.539 12.9549 141.148 14.9859C140.682 17.4139 142.827 18.2284 144.72 18.9451C146.355 19.5653 147.901 20.152 147.614 21.6367C147.21 23.7356 145.017 24.0493 143.744 24.0493C141.99 24.0493 140.907 23.5711 140.122 22.4489L140.114 22.4381C140.068 22.38 140.01 22.3332 139.943 22.3018C139.876 22.2703 139.803 22.2549 139.73 22.2569C139.561 22.2655 139.4 22.329 139.271 22.4377C139.142 22.5464 139.052 22.6943 139.014 22.8591C138.997 22.9309 138.996 23.0052 139.009 23.0776C139.022 23.15 139.05 23.2189 139.091 23.2801C139.614 24.2616 141.184 25.2538 143.514 25.2538C146.466 25.2538 148.488 23.9014 148.923 21.6367C149.387 19.2242 147.26 18.4323 145.384 17.7359H145.385ZM141.428 8.30157H140.047L140.313 6.91582C140.381 6.56043 140.14 6.25991 139.784 6.25991C139.43 6.25991 139.072 6.56043 139.004 6.91582L138.738 8.30157H137.357C137.002 8.30157 136.645 8.60209 136.577 8.95747C136.508 9.31286 136.751 9.61338 137.105 9.61338H138.486L138.221 10.9991C138.152 11.3545 138.393 11.655 138.749 11.655C139.103 11.655 139.461 11.3545 139.529 10.9991L139.794 9.61457H141.175C141.529 9.61457 141.887 9.31286 141.956 8.95867C141.975 8.87937 141.976 8.79664 141.958 8.71693C141.941 8.63722 141.905 8.56267 141.854 8.49909C141.803 8.43551 141.738 8.3846 141.664 8.35034C141.59 8.31609 141.509 8.29939 141.428 8.30157ZM31.7814 21.6415C32.452 21.9909 33.6601 22.4763 34.8135 22.4489C35.8599 22.4489 36.4247 21.8824 36.4247 21.1848C36.4247 20.511 36.0216 20.0542 34.8943 19.4079C33.4996 18.6005 32.452 17.4699 32.452 15.9888C32.452 13.3771 34.6803 11.5203 37.9265 11.5203C39.3498 11.5203 40.4497 11.7898 41.0394 12.1404L40.1809 14.7783C39.4577 14.4432 38.6709 14.2683 37.8741 14.2655C36.8278 14.2655 36.1559 14.7509 36.1559 15.5046C36.1559 16.0961 36.6387 16.5278 37.5781 17.0394C39.0287 17.8742 40.2356 19.0036 40.2356 20.5933C40.2356 23.5532 37.8468 25.2216 34.5186 25.1953C32.9895 25.1679 31.5661 24.7636 30.8694 24.2795L31.7814 21.6415ZM40.9871 25.1214L44.5829 6.27541H48.2868L46.8647 13.5798L46.917 13.5321C47.9099 12.3479 49.1988 11.5298 50.835 11.5298C52.7684 11.5298 53.8671 12.776 53.8671 14.8761C53.8671 15.5225 53.7601 16.566 53.5996 17.3745L52.1501 25.1214H48.4473L49.8421 17.6071C49.9491 17.0943 50.0038 16.4336 50.0038 15.9232C50.0038 15.1158 49.6828 14.5279 48.8504 14.5279C47.6685 14.5279 46.4069 16.1104 45.9241 18.5611L44.6887 25.1226H40.9871V25.1214ZM67.2619 16.6888C67.2619 21.2921 64.3083 25.2216 59.9349 25.2216C56.6055 25.2216 54.8362 22.9068 54.8362 20.0268C54.8362 15.5309 57.7886 11.4929 62.2429 11.4929C65.7054 11.494 67.2607 14.0247 67.2607 16.6888H67.2619ZM58.6198 19.9457C58.6198 21.2921 59.1572 22.3678 60.4188 22.3678C62.3772 22.3678 63.4783 18.8688 63.4783 16.5815C63.4783 15.4772 63.0479 14.3478 61.734 14.3478C59.7197 14.3478 58.6198 17.8182 58.6198 19.9457ZM66.3761 30.3567L68.9528 16.7735C69.2489 15.2399 69.5426 13.2555 69.7043 11.859H72.979L72.7637 13.9531H72.8172C73.8101 12.5566 75.2596 11.6193 76.7352 11.6193C79.4451 11.6193 80.5462 13.7897 80.5462 16.2941C80.5462 20.8163 77.7019 25.2705 73.3535 25.2705C72.4415 25.2705 71.6092 25.1214 71.1799 24.7732H71.099L70.0788 30.3579H66.3761V30.3567ZM71.6638 21.8836C72.0669 22.2056 72.5224 22.4214 73.1942 22.4214C75.2608 22.4214 76.6841 19.0036 76.6841 16.6077C76.6841 15.6119 76.3345 14.5625 75.2073 14.5625C73.9195 14.5625 72.7114 16.0973 72.2822 18.4121L71.6638 21.8836ZM80.6544 25.1214L83.1514 11.8602H86.8815L84.3583 25.1214H80.6544ZM85.4594 10.4637C84.413 10.4637 83.715 9.56568 83.715 8.46137C83.715 7.25092 84.6544 6.23606 85.8352 6.23606C86.9624 6.23606 87.6865 7.12571 87.6865 8.20259C87.6604 9.57403 86.6675 10.4637 85.5141 10.4637H85.4594ZM87.5783 25.1214L89.5379 14.6507H87.8209L88.3572 11.8602H90.0754L90.1824 11.1923C90.4785 9.63008 91.067 8.04398 92.3286 6.96829C93.3215 6.10726 94.6366 5.7173 95.9529 5.7173C96.8649 5.7173 97.5368 5.84728 97.9648 6.03452L97.2407 8.93839C96.8602 8.81029 96.4613 8.74622 96.0599 8.74878C94.8257 8.74878 94.0742 9.92702 93.8602 11.1935L93.7246 11.859H96.3013L95.79 14.6519H93.2418L91.2823 25.1226H87.5783V25.1214ZM100.891 11.8602L101.481 17.7955C101.611 18.8389 101.718 19.8851 101.803 20.9331H101.857C102.153 20.2355 102.42 19.1956 102.958 17.7693L105.212 11.8602H109.077L104.54 21.57C102.93 24.9067 101.374 27.3396 99.683 28.928C98.3679 30.1659 96.8114 30.7765 96.0599 30.9375L95.0397 27.7832C95.658 27.5685 96.4345 27.243 97.1325 26.7325C97.991 26.1398 98.7163 25.3313 99.1456 24.4977C99.2526 24.3093 99.2799 24.1817 99.2264 23.9133L96.9981 11.8602L100.891 11.8578V11.8602ZM138.398 13.1064C138.043 13.1064 137.686 13.4069 137.618 13.7623L136.367 20.2784C135.689 23.5973 133.656 24.0505 131.751 24.0505C128.319 24.0505 128.232 22.0899 128.6 20.1723L130.072 12.5149C130.14 12.1595 129.898 11.859 129.543 11.859C129.189 11.859 128.831 12.1595 128.763 12.5149L127.292 20.1711C126.996 21.7155 127.102 22.8663 127.617 23.6927C128.261 24.729 129.575 25.2538 131.519 25.2538C133.463 25.2538 134.978 24.7279 136.022 23.6927C136.854 22.8675 137.401 21.7155 137.699 20.1723L138.928 13.7635C138.995 13.4069 138.753 13.1076 138.398 13.1076V13.1064ZM126.575 6.29688C126.221 6.29688 125.862 6.5974 125.794 6.95279L122.437 24.4357C122.369 24.7911 122.611 25.0916 122.966 25.0916C123.32 25.0916 123.678 24.7911 123.746 24.4357L127.103 6.95279C127.172 6.59621 126.929 6.29688 126.575 6.29688ZM18.1963 3.53253L17.2926 3.81278C17.181 3.44494 17.0361 3.08807 16.8598 2.74664C16.2189 1.52307 15.2807 0.871936 14.1487 0.870743H14.1439C14.0655 0.870743 13.987 0.877899 13.9085 0.885054C13.8755 0.844006 13.841 0.804226 13.8051 0.765798C13.3116 0.237495 12.6778 -0.0212897 11.9204 0.00136894C10.4555 0.0431084 8.99767 1.10329 7.81573 2.98753C6.98339 4.31127 6.35199 5.97727 6.17244 7.26524L3.29015 8.16085C2.44234 8.42798 2.41499 8.45422 2.30322 9.25681C2.21999 9.86382 0 27.082 0 27.082L18.4186 30.2768V3.49437C18.3434 3.49953 18.2689 3.51231 18.1963 3.53253ZM13.943 4.85388L10.836 5.81866C11.1368 4.66546 11.7064 3.51703 12.4055 2.76572C12.6647 2.48427 13.0286 2.17302 13.459 1.99413C13.8657 2.84085 13.9525 4.04175 13.943 4.85388ZM11.9477 0.978073C12.2579 0.96187 12.5653 1.04272 12.8277 1.20943C12.4015 1.43859 12.0174 1.73906 11.6921 2.09788C10.7622 3.09844 10.0488 4.65115 9.7658 6.15019L7.21407 6.94205C7.71704 4.58317 9.68732 1.04366 11.9477 0.979266V0.978073ZM9.09993 14.4158C9.19862 15.9864 13.3211 16.3299 13.553 20.0113C13.7349 22.908 12.0215 24.8888 9.55177 25.0439C6.58862 25.2323 4.95722 23.4792 4.95722 23.4792L5.58505 20.7996C5.58505 20.7996 7.22596 22.0422 8.54106 21.9587C9.39957 21.9039 9.70635 21.2038 9.67543 20.7077C9.54702 18.6577 6.19147 18.7782 5.97744 15.4104C5.79908 12.5757 7.65521 9.70282 11.7515 9.44285C13.3294 9.34386 14.138 9.74695 14.138 9.74695L13.201 13.2602C13.201 13.2602 12.1558 12.7832 10.918 12.8619C9.09993 12.9788 9.07971 14.1284 9.09993 14.4146V14.4158ZM14.9157 4.55097C14.9038 3.80801 14.8158 2.77406 14.4709 1.87965C15.5815 2.09073 16.1285 3.35126 16.3592 4.10257L14.9157 4.55097ZM19.0286 30.2041L26.6696 28.2984C26.6696 28.2984 23.3794 5.99039 23.3592 5.83655C23.3488 5.77162 23.3171 5.71205 23.269 5.66731C23.221 5.62258 23.1594 5.59525 23.094 5.58969C22.9847 5.58015 20.8324 5.54795 20.8324 5.54795C20.8324 5.54795 19.5209 4.27072 19.0286 3.78655V30.2041Z" fill="black"/>
</svg>
